<svg xmlns="http://www.w3.org/2000/svg" fill="none" viewBox="0 0 237 38" height="38" width="237">
<path fill="#37021C" d="M191.918 12.8052L191.746 13.1153C191.697 13.2054 191.603 13.2612 191.502 13.2612L191.458 13.2576C191.374 13.244 191.299 13.1916 191.257 13.1141L191.087 12.8039C190.344 11.4576 189.236 10.3566 187.882 9.62119L187.571 9.45296C187.479 9.4034 187.422 9.30678 187.422 9.20143C187.422 9.09608 187.478 8.99947 187.57 8.94949L187.882 8.78001C189.236 8.04336 190.345 6.94234 191.088 5.59605L191.257 5.28665C191.305 5.19587 191.399 5.13965 191.502 5.13965C191.599 5.14132 191.697 5.19544 191.746 5.28539L191.918 5.59605C192.656 6.94068 193.765 8.04127 195.123 8.7796L195.435 8.94949C195.526 8.99905 195.584 9.09608 195.583 9.20143C195.583 9.30679 195.526 9.4034 195.434 9.45296L195.122 9.6216C193.766 10.3583 192.658 11.4593 191.918 12.8052ZM161.827 30.142C160.687 30.6155 159.427 30.8558 158.082 30.8558C157.796 30.8558 157.506 30.8446 157.222 30.823C156.977 30.8038 156.718 30.7755 156.448 30.7409L156.392 30.7331C156.285 30.7172 156.057 30.6828 155.959 30.6651C155.782 30.6297 155.612 30.5919 155.447 30.5464C155.348 30.5186 155.18 30.4663 155.005 30.41L154.828 30.3531C154.596 30.2777 154.384 30.2072 154.337 30.1908C153.437 29.8948 152.672 29.9876 152.004 30.4756C151.812 30.6164 151.481 30.7955 151.002 30.8496C150.984 30.8533 150.965 30.8554 150.946 30.8554H150.641C150.487 30.8554 150.361 30.7276 150.361 30.5701V28.4601C150.36 26.6871 150.36 24.9127 150.36 23.1387V21.4247L150.361 21.4138V12.1963C150.361 11.2761 150.317 10.5919 150.229 10.1621C150.146 9.75069 150.001 9.3884 149.8 9.08567C149.683 8.92118 149.546 8.78042 149.388 8.66258C149.303 8.59929 149.26 8.49351 149.276 8.38816C149.293 8.2828 149.365 8.19536 149.465 8.16162C151.646 7.42664 153.785 6.59546 155.824 5.69141L155.926 5.65435C156.011 5.62728 156.103 5.64352 156.175 5.69724C156.246 5.75096 156.289 5.83632 156.289 5.92669V15.3054C156.95 14.8182 157.619 14.4471 158.282 14.2006C159.1 13.8966 159.952 13.7425 160.814 13.7425C161.771 13.7425 162.674 13.9365 163.499 14.3188C164.32 14.7007 165.038 15.2375 165.633 15.9137C166.225 16.5892 166.692 17.4091 167.021 18.3515L167.093 18.5696C167.372 19.4488 167.515 20.4059 167.515 21.4184C167.515 22.7505 167.276 24.0098 166.803 25.1609C166.329 26.313 165.66 27.3233 164.814 28.164C163.969 29.0036 162.964 29.669 161.827 30.142ZM117.902 30.4607C118.023 30.4607 118.131 30.3811 118.169 30.2637C118.207 30.1463 118.166 30.0175 118.068 29.9447C117.909 29.8272 117.774 29.6865 117.656 29.522C117.454 29.2189 117.309 28.8566 117.226 28.4456C117.156 28.1 117.114 27.5831 117.1 26.9165V22.3787C118.085 22.4666 118.974 23.0154 119.517 23.8845L122.54 28.7258C123.219 29.8119 124.372 30.4603 125.626 30.4603H131.774C131.898 30.4603 132.009 30.3761 132.043 30.2541C132.078 30.132 132.029 30.0014 131.924 29.9339L131.811 29.8622C131.467 29.6407 131.161 29.418 130.902 29.2006C130.645 28.9848 130.376 28.7146 130.104 28.3977C129.826 28.075 129.504 27.6668 129.144 27.1843C128.772 26.6871 128.329 26.0644 127.823 25.332L126.372 23.2481C125.995 22.7077 125.522 22.2325 124.984 21.8503C126.007 21.5105 126.865 21.002 127.541 20.3353C128.911 19.0124 129.606 17.4329 129.606 15.641C129.606 13.8346 128.931 12.29 127.541 10.9171C126.165 9.58871 124.104 8.91535 121.414 8.91535H116.413C116.406 8.91452 116.398 8.9141 116.389 8.9141H110.372C110.251 8.9141 110.143 8.99364 110.106 9.11107C110.068 9.2285 110.11 9.35717 110.207 9.42963C110.366 9.54706 110.502 9.68782 110.619 9.8523C110.821 10.1555 110.966 10.5177 111.049 10.9291C111.136 11.3589 111.181 12.0431 111.181 12.9629V26.4118C111.181 27.33 111.136 28.0142 111.049 28.4456C110.965 28.857 110.821 29.2193 110.624 29.5154C110.502 29.6869 110.365 29.8272 110.207 29.9447C110.109 30.0175 110.068 30.1463 110.106 30.2637C110.143 30.3811 110.251 30.4607 110.372 30.4607H117.902ZM118.058 20.6639H117.101V10.6181H118.057C120.035 10.6181 121.445 11.0691 122.244 11.9544C123.026 12.851 123.421 14.0915 123.421 15.6414C123.421 17.1913 123.026 18.4314 122.248 19.3239C121.446 20.2129 120.035 20.6639 118.058 20.6639ZM144.229 29.7365C142.898 30.4786 141.418 30.8546 139.828 30.8546C138.239 30.8546 136.76 30.4756 135.434 29.7286C134.105 28.9803 133.045 27.938 132.284 26.6304C131.522 25.3233 131.136 23.8637 131.136 22.2929C131.136 20.7226 131.522 19.263 132.284 17.9554C133.045 16.6483 134.105 15.606 135.434 14.8573C136.76 14.1103 138.239 13.7313 139.828 13.7313C142.01 13.7313 143.979 14.4667 145.681 15.9171C147.595 17.5648 148.565 19.7511 148.565 22.4153C148.565 23.9458 148.173 25.3778 147.4 26.6712C146.628 27.9629 145.561 28.9944 144.229 29.7365ZM141.304 28.3215C140.465 27.878 139.3 26.2202 137.843 23.3944C136.473 20.7363 135.782 18.9028 135.789 17.9446C135.794 17.1668 136.101 16.6213 136.728 16.2777C137.017 16.1195 137.299 16.0404 137.581 16.0404C137.852 16.0404 138.121 16.1132 138.393 16.259C139.221 16.6987 140.389 18.3756 141.867 21.2427C143.183 23.7949 143.865 25.5835 143.895 26.5614L143.896 26.6433C143.891 27.4216 143.584 27.9667 142.957 28.3103C142.4 28.6159 141.86 28.6196 141.304 28.3215ZM158.016 29.0931C157.382 29.0931 156.949 28.9182 156.696 28.5585C156.425 28.174 156.287 27.4803 156.287 26.4955V17.8326C156.591 17.6115 156.861 17.4554 157.092 17.3692C157.345 17.2742 157.645 17.2263 157.983 17.2263C161.383 17.2259 161.555 21.7944 161.555 22.7102C161.555 27.0955 159.72 29.0931 158.016 29.0931ZM180.817 30.142C179.677 30.6155 178.417 30.8558 177.072 30.8558C176.785 30.8558 176.496 30.8446 176.211 30.823C175.966 30.8038 175.707 30.7755 175.436 30.7409L175.382 30.7331C175.274 30.7172 175.046 30.6828 174.949 30.6651C174.772 30.6297 174.602 30.5919 174.436 30.5464C174.337 30.5186 174.17 30.4663 173.994 30.41L173.818 30.3531C173.585 30.2777 173.373 30.2072 173.327 30.1908C172.426 29.8948 171.661 29.9876 170.993 30.4756C170.801 30.6164 170.47 30.7955 169.991 30.8496C169.974 30.8533 169.955 30.8554 169.936 30.8554H169.631C169.476 30.8554 169.35 30.7276 169.35 30.5701V28.4601C169.349 26.6871 169.349 24.9127 169.349 23.1387L169.35 21.4247V21.4138V12.1963C169.35 11.2761 169.306 10.5919 169.219 10.1621C169.136 9.75069 168.991 9.3884 168.788 9.08567C168.672 8.92118 168.536 8.78042 168.377 8.66258C168.292 8.59929 168.25 8.49351 168.265 8.38816C168.282 8.2828 168.355 8.19536 168.454 8.16162C170.635 7.42664 172.775 6.59546 174.813 5.69141L174.915 5.65435C175.001 5.62728 175.092 5.64352 175.164 5.69724C175.236 5.75096 175.278 5.83632 175.278 5.92669V15.3054C175.94 14.8182 176.608 14.4471 177.271 14.2006C178.09 13.8966 178.941 13.7425 179.804 13.7425C180.76 13.7425 181.662 13.9365 182.488 14.3188C183.31 14.7007 184.027 15.2375 184.622 15.9137C185.214 16.5892 185.682 17.4091 186.01 18.3515L186.083 18.5696C186.362 19.4488 186.504 20.4059 186.505 21.4184C186.505 22.7505 186.265 24.0098 185.792 25.1609C185.319 26.313 184.649 27.3233 183.803 28.164C182.958 29.0036 181.954 29.669 180.817 30.142ZM177.005 29.0931C176.371 29.0931 175.939 28.9182 175.685 28.5585C175.414 28.174 175.277 27.4803 175.277 26.4955V17.8326C175.58 17.6115 175.85 17.4554 176.081 17.3692C176.335 17.2742 176.635 17.2263 176.972 17.2263C180.373 17.2259 180.545 21.7944 180.545 22.7102C180.544 27.0955 178.71 29.0931 177.005 29.0931ZM195.501 30.4619C195.623 30.4619 195.73 30.3828 195.768 30.2657C195.806 30.1479 195.766 30.0197 195.668 29.9468C195.51 29.8286 195.374 29.6874 195.256 29.5225C195.055 29.2197 194.91 28.8574 194.827 28.446C194.739 28.0146 194.695 27.33 194.695 26.4122V13.9799C194.695 13.8874 194.651 13.8004 194.577 13.7471C194.502 13.6938 194.407 13.6805 194.321 13.7113C193.918 13.8562 193.571 13.9753 193.279 14.0681C192.986 14.1619 192.698 14.2497 192.415 14.3326L191.514 14.5995C191.2 14.6941 190.83 14.8031 190.403 14.9289C189.979 15.053 189.606 15.1563 189.278 15.2408C188.823 15.357 188.405 15.4811 188 15.6206L187.875 15.6635C187.775 15.6981 187.704 15.7855 187.688 15.8908C187.672 15.9958 187.715 16.1015 187.8 16.1641C187.913 16.2477 188.024 16.3585 188.139 16.5026L188.182 16.5521L188.188 16.56C188.193 16.5652 188.198 16.5701 188.202 16.5747C188.205 16.579 188.209 16.5829 188.211 16.5863C188.414 16.8895 188.558 17.2518 188.642 17.6632C188.728 18.0925 188.773 18.7766 188.773 19.6986L188.78 23.6405L188.779 23.6515V26.4126C188.779 27.3308 188.735 28.0154 188.649 28.4464C188.565 28.8582 188.421 29.2205 188.223 29.5166C188.101 29.6878 187.965 29.8286 187.806 29.9464C187.708 30.0193 187.667 30.1479 187.706 30.2653C187.743 30.3824 187.85 30.4619 187.972 30.4619H195.501ZM204.993 30.2657C204.955 30.3828 204.848 30.4623 204.726 30.4623H197.187C197.066 30.4623 196.959 30.3828 196.92 30.2653C196.883 30.1479 196.924 30.0193 197.023 29.9464C197.181 29.829 197.317 29.6882 197.439 29.5166C197.636 29.2205 197.781 28.8582 197.864 28.4468C197.952 28.0158 197.996 27.3312 197.996 26.413V26.1453C197.994 26.1315 197.993 26.1178 197.993 26.1041L197.996 20.9354L197.989 19.7407C197.989 18.8192 197.945 18.1349 197.857 17.7052C197.775 17.2938 197.629 16.9315 197.428 16.6283C197.423 16.6209 197.415 16.612 197.406 16.6027L197.398 16.5942L197.356 16.5442C197.241 16.4005 197.131 16.2902 197.017 16.2057C196.932 16.1427 196.888 16.037 196.905 15.9316C196.92 15.8263 196.993 15.7388 197.093 15.7052C197.247 15.6531 197.4 15.5991 197.553 15.545L197.578 15.5361L197.856 15.4382C198.085 15.3845 198.287 15.3362 198.5 15.2816C198.822 15.1984 199.196 15.0951 199.62 14.971L199.69 14.9501L199.693 14.9491C200.089 14.8325 200.434 14.7305 200.731 14.6416L201.631 14.3746C201.914 14.2918 202.202 14.2039 202.494 14.1103C202.786 14.0174 203.134 13.8982 203.537 13.7533C203.622 13.7225 203.718 13.7358 203.792 13.7892C203.867 13.8425 203.911 13.9295 203.911 14.0219L203.917 16.0732C204.829 15.1579 206.822 13.7366 209.769 13.7366C211.086 13.7366 211.99 14.52 212.516 15.1767C212.826 15.5644 213.049 16.0286 213.181 16.5571C213.31 17.0764 213.373 17.771 213.373 18.6813V22.7452V22.7464C213.373 22.7543 213.373 22.7623 213.373 22.7705L213.374 26.4122C213.374 27.332 213.418 28.0163 213.506 28.446C213.588 28.8574 213.734 29.2197 213.935 29.5225C214.053 29.6882 214.189 29.8286 214.346 29.9447C214.445 30.0175 214.484 30.1475 214.447 30.2649C214.41 30.3824 214.302 30.4619 214.18 30.4619H206.666C206.544 30.4619 206.437 30.3824 206.398 30.2653C206.361 30.1479 206.402 30.0193 206.5 29.9464C206.658 29.8286 206.795 29.6878 206.917 29.5166C207.114 29.2201 207.259 28.8578 207.343 28.4464C207.429 28.0171 207.473 27.3325 207.473 26.4126V19.7032C207.473 19.1568 207.45 18.7454 207.402 18.481C207.357 18.2382 207.268 18.0241 207.127 17.8256C207.006 17.6498 206.85 17.5149 206.645 17.4104C206.157 17.1609 205.62 17.2176 205.031 17.4933C204.355 17.813 203.919 18.5168 203.919 19.2852L203.918 26.4138C203.918 27.3333 203.963 28.0175 204.049 28.4472C204.133 28.8587 204.278 29.2205 204.48 29.5237C204.597 29.6882 204.733 29.829 204.892 29.9468C204.99 30.0197 205.031 30.1483 204.993 30.2657ZM223.084 30.8554C224.082 30.8554 225.025 30.7072 225.887 30.4152C226.748 30.1221 227.502 29.7073 228.126 29.1826C228.755 28.6542 229.252 28.012 229.602 27.2754C229.95 26.5471 230.128 25.7467 230.132 24.8972V24.8956C230.132 21.1324 226.419 19.9855 223.434 19.0644C221.769 18.5506 220.926 17.8309 220.926 16.9256C220.926 16.5305 221.088 16.2015 221.421 15.9208C221.771 15.6264 222.185 15.4831 222.687 15.4831C223.112 15.4831 223.564 15.5915 224.031 15.8055C224.51 16.0249 224.989 16.3356 225.455 16.7291C225.629 16.8769 225.843 17.0835 226.112 17.345L226.118 17.3506C226.557 17.7765 227.158 18.3589 227.928 19.0007C228.008 19.0678 228.118 19.0839 228.214 19.0427C228.31 19.0015 228.376 18.9099 228.385 18.8041L228.702 15.0464C228.713 14.911 228.629 14.786 228.501 14.7477C227.465 14.4433 226.037 14.0698 225.139 13.9337C223.31 13.658 221.469 13.6467 219.948 14.1502C219.128 14.4221 218.406 14.8035 217.804 15.2842C217.197 15.7684 216.711 16.3493 216.359 17.0114C216.002 17.6798 215.821 18.4143 215.821 19.1952L215.824 19.2714C215.824 19.2793 215.824 19.2872 215.825 19.2946C215.839 23.0325 218.929 23.9861 222.838 25.1925L222.942 25.2245C223.923 25.5277 224.706 25.7834 225.092 26.087C225.416 26.3397 225.608 26.7615 225.608 27.2146C225.608 27.6206 225.445 27.9425 225.11 28.1986C224.755 28.4697 224.268 28.6072 223.662 28.6072C223.005 28.6072 222.378 28.4855 221.802 28.2449C220.3 27.6177 219.235 26.5979 218.295 25.698L218.293 25.6961C217.614 25.046 217.027 24.4847 216.396 24.1877C216.309 24.1465 216.207 24.1535 216.126 24.2068C216.046 24.2596 215.998 24.3509 215.999 24.4483L216.014 26.8632C216.014 26.8782 216.015 26.8927 216.018 26.9069L216.034 28.9369C216.035 29.0506 216.102 29.1527 216.205 29.1972C216.454 29.3051 216.667 29.3909 216.845 29.4549C217.018 29.5183 217.198 29.5816 217.383 29.6452C217.569 29.7094 217.772 29.7731 217.989 29.8373C218.202 29.9001 218.481 29.9838 218.822 30.0867C219.351 30.2557 219.82 30.3882 220.216 30.4802C220.606 30.571 220.969 30.6468 221.298 30.7059C221.634 30.7651 221.946 30.8054 222.226 30.8254C222.508 30.8454 222.796 30.8554 223.084 30.8554ZM36.2065 30.2649C36.1688 30.3824 36.061 30.4615 35.9398 30.4615H28.4099C28.2888 30.4615 28.181 30.382 28.1433 30.2645C28.106 30.1471 28.147 30.0185 28.2449 29.9455C28.4034 29.8281 28.5398 29.6878 28.6615 29.5162C28.8588 29.2201 29.0034 28.8578 29.087 28.446C29.1742 28.0146 29.2185 27.3304 29.2185 26.4122V23.6621L29.2193 23.6367L29.2123 11.6463C29.2123 10.7247 29.1681 10.0401 29.0809 9.61078C28.9973 9.19894 28.8527 8.83664 28.6507 8.5339C28.6452 8.52577 28.6361 8.51551 28.6267 8.50495L28.6217 8.49934L28.5792 8.44938C28.4632 8.30529 28.3522 8.19452 28.2392 8.11082C28.1548 8.04836 28.1117 7.94301 28.1274 7.83765C28.1433 7.7323 28.2154 7.64526 28.3145 7.6107L28.4398 7.56781C28.8454 7.42831 29.2631 7.30379 29.7178 7.18803C30.0458 7.10349 30.4189 7.00022 30.8429 6.87613C31.2693 6.75037 31.6392 6.64126 31.9546 6.54673L32.8552 6.27981C33.1378 6.19694 33.4254 6.10908 33.7182 6.01538C34.0102 5.92252 34.3575 5.80342 34.7606 5.65851C34.8462 5.62769 34.9417 5.64102 35.0162 5.69432C35.0908 5.74763 35.1345 5.83466 35.1345 5.92711L35.1342 26.4126C35.1342 27.3325 35.178 28.0167 35.2652 28.446C35.3487 28.8574 35.4934 29.2197 35.6953 29.5225C35.8108 29.6853 35.9509 29.8298 36.1066 29.9455C36.2048 30.0185 36.2453 30.1467 36.2065 30.2649ZM17.6501 30.4611C19.1111 30.4611 20.4479 30.3036 21.6231 29.9934C22.8101 29.6807 23.8308 29.2214 24.6565 28.6284C25.4929 28.0291 26.1424 27.2896 26.5873 26.4309C26.9788 25.6768 27.1992 24.8081 27.2431 23.8486L27.25 23.7359C27.2554 23.6621 27.2603 23.588 27.2603 23.5118L27.2597 23.4946L27.259 23.4773C27.2587 23.4694 27.2593 23.4559 27.2598 23.4451L27.2603 23.4306C27.2603 22.4728 27.0592 21.5776 26.6623 20.7688C26.4697 20.3762 26.2391 20.011 25.9774 19.6844C24.7647 18.1733 23.0071 17.4812 21.6595 17.165C22.2751 16.8865 22.7892 16.54 23.1955 16.129C23.2336 16.0903 23.2721 16.0512 23.3085 16.0112C23.3823 15.9304 23.4523 15.8467 23.5198 15.7588C23.542 15.7293 23.5633 15.6997 23.5973 15.6514C23.6636 15.5585 23.7279 15.4636 23.78 15.3745C23.7845 15.3678 23.7968 15.349 23.8009 15.3425C23.8721 15.2204 23.9347 15.0967 24.0011 14.9506C24.0015 14.9495 24.0054 14.9412 24.0091 14.9329C24.0129 14.9246 24.0167 14.9162 24.0172 14.9152C24.0348 14.8748 24.0499 14.8335 24.0643 14.7927L24.0851 14.7365C24.2211 14.3754 24.301 14.0107 24.3235 13.6514L24.3239 13.588C24.3665 12.6236 24.0237 11.7549 23.304 11.0067C23.1287 10.8238 22.9318 10.651 22.7191 10.4923C22.5668 10.3787 22.3927 10.2662 22.172 10.1409C22.0245 10.068 21.8754 9.99555 21.7119 9.92976C21.182 9.71572 20.5504 9.53707 19.7804 9.38341L19.6686 9.35967L19.641 9.3538C19.5855 9.34196 19.5297 9.33006 19.4707 9.31969L19.4248 9.31179L19.412 9.30938C19.2398 9.27686 19.0682 9.24448 18.8903 9.21685C18.4152 9.1423 17.895 9.08317 17.3437 9.04112C16.9513 9.01155 16.5204 8.98822 16.0715 8.96907C16.0511 8.96907 16.0306 8.9699 16.0109 8.97365C15.3465 8.94492 14.7063 8.93076 14.056 8.93076H7.60903C7.48779 8.93076 7.38007 9.00988 7.34239 9.12731C7.30471 9.24474 7.34567 9.373 7.44356 9.44629C7.60207 9.56414 7.73846 9.70489 7.85519 9.86938C8.05712 10.1725 8.20171 10.5344 8.28526 10.9458C8.3725 11.3751 8.41633 12.0598 8.41633 12.98V15.7293C8.41633 15.7405 8.41715 15.7518 8.41838 15.7626V23.6279C8.41715 23.6392 8.41633 23.6501 8.41633 23.6617V26.4118C8.41633 27.33 8.3725 28.0142 8.28526 28.4456C8.20171 28.8574 8.05671 29.2193 7.85969 29.5158C7.73806 29.6874 7.60207 29.8277 7.44315 29.9455C7.34526 30.0185 7.3043 30.1471 7.34198 30.2641C7.37966 30.3816 7.48698 30.4611 7.60862 30.4611H17.6501ZM14.3709 10.6839V16.8312L14.9844 16.8024C15.3626 16.7845 15.7054 16.7599 16.0039 16.7295C16.6949 16.6275 17.1881 16.453 17.5899 16.1649C17.6726 16.1054 17.7562 16.0366 17.8389 15.9612C18.2035 15.6298 18.8215 14.8906 18.867 13.6567C18.8632 13.4285 18.8477 13.2025 18.8195 12.9984C18.6237 11.9785 17.8962 11.4368 17.5928 11.2515C17.3978 11.1328 17.1819 11.037 16.9342 10.9596C16.7809 10.9209 16.5929 10.8826 16.3894 10.8496C15.972 10.783 15.4764 10.7355 14.9157 10.7093L14.3709 10.6839ZM14.348 26.7049C14.348 27.2571 14.5749 27.7876 14.9698 28.1603C15.3573 28.5255 15.8565 28.705 16.3767 28.6655L16.4783 28.6579C16.5303 28.6542 16.5819 28.6504 16.6298 28.6455C17.306 28.5789 17.9765 28.4464 18.6249 28.2511C19.2594 28.0599 19.7656 27.7834 20.1293 27.4286C20.502 27.0647 20.806 26.5775 21.0329 25.9804C21.087 25.8388 21.1349 25.6864 21.1791 25.5132L21.1897 25.4636L21.1988 25.4182C21.2987 24.9039 21.3511 24.3038 21.3519 23.6471C21.3519 23.1024 21.3102 22.5828 21.2274 22.1035C21.1111 21.4276 20.9116 20.8351 20.6343 20.342C20.3595 19.8889 19.931 19.5029 19.3659 19.2035C19.1414 19.0882 18.8887 18.9865 18.6184 18.9033C18.3738 18.8283 18.1186 18.77 17.861 18.7296C17.6821 18.7012 17.4764 18.6784 17.2499 18.6592C16.7449 18.6168 16.119 18.5951 15.3896 18.5951H14.3705V21.6791C14.3705 21.7178 14.3627 21.7561 14.348 21.7911V26.7049ZM45.9532 30.8546C47.5428 30.8546 49.0235 30.4786 50.3534 29.7365C51.6862 28.9944 52.7531 27.9629 53.5252 26.6712C54.2981 25.3778 54.6901 23.9458 54.6901 22.4153C54.6905 19.7511 53.7202 17.5648 51.8058 15.9171C50.104 14.4667 48.1351 13.7313 45.9532 13.7313C44.364 13.7313 42.8858 14.1103 41.5591 14.8573C40.2304 15.606 39.1704 16.6483 38.4089 17.9554C37.6472 19.263 37.2609 20.7226 37.2609 22.2929C37.2609 23.8637 37.6472 25.3233 38.4089 26.6304C39.1704 27.938 40.2304 28.9803 41.5591 29.7286C42.8858 30.4756 44.364 30.8546 45.9532 30.8546ZM43.9683 23.3944C45.4253 26.2202 46.5897 27.878 47.4294 28.3215C47.9851 28.6196 48.5254 28.6159 49.0824 28.3103C49.7091 27.9667 50.0163 27.4216 50.0212 26.6433L50.0202 26.5614C49.9897 25.5835 49.3078 23.7949 47.9921 21.2427C46.5143 18.3756 45.3458 16.6987 44.5184 16.259C44.2464 16.1132 43.9769 16.0404 43.7061 16.0404C43.4248 16.0404 43.1418 16.1195 42.853 16.2777C42.2259 16.6213 41.9192 17.1668 41.9143 17.9446C41.9069 18.9028 42.5982 20.7363 43.9683 23.3944ZM64.4312 30.8546C66.0208 30.8546 67.5015 30.4786 68.8314 29.7365C70.1642 28.9944 71.2311 27.9629 72.0032 26.6712C72.7761 25.3778 73.1681 23.9458 73.1681 22.4153C73.1685 19.7511 72.1982 17.5648 70.2838 15.9171C68.582 14.4667 66.6131 13.7313 64.4312 13.7313C62.842 13.7313 61.3638 14.1103 60.0371 14.8573C58.7084 15.606 57.6484 16.6483 56.8869 17.9554C56.1252 19.263 55.7389 20.7226 55.7389 22.2929C55.7389 23.8637 56.1252 25.3233 56.8869 26.6304C57.6484 27.938 58.7084 28.9803 60.0371 29.7286C61.3638 30.4756 62.842 30.8546 64.4312 30.8546ZM62.4463 23.3944C63.9033 26.2202 65.0677 27.878 65.9074 28.3215C66.4631 28.6196 67.0034 28.6159 67.5604 28.3103C68.1871 27.9667 68.4943 27.4216 68.4992 26.6433L68.4982 26.5614C68.4677 25.5835 67.7858 23.7949 66.4701 21.2427C64.9923 18.3756 63.8238 16.6987 62.9963 16.259C62.7244 16.1132 62.4549 16.0404 62.1841 16.0404C61.9028 16.0404 61.6198 16.1195 61.331 16.2777C60.7039 16.6213 60.3972 17.1668 60.3923 17.9446C60.3849 18.9028 61.0762 20.7363 62.4463 23.3944ZM82.1119 30.4623C82.2332 30.4623 82.3408 30.3828 82.3786 30.2657C82.4163 30.1483 82.3757 30.0197 82.2774 29.9468C82.1189 29.829 81.9829 29.6886 81.8657 29.5241C81.6638 29.221 81.5188 28.8587 81.4357 28.4472C81.3485 28.0175 81.3046 27.3333 81.3046 26.4138V19.2851C81.3046 18.5168 81.7416 17.813 82.4163 17.4933C83.0052 17.2176 83.543 17.1609 84.0312 17.4104C84.2356 17.5149 84.3925 17.6498 84.5137 17.8256C84.6542 18.0241 84.7439 18.2382 84.7878 18.481C84.8357 18.7454 84.8599 19.1568 84.8599 19.7032V26.4126C84.8599 27.3308 84.8156 28.015 84.7288 28.4464C84.6452 28.8582 84.5002 29.2205 84.3033 29.5166C84.1815 29.6878 84.0452 29.8286 83.8867 29.9464C83.7887 30.0193 83.7478 30.1479 83.7855 30.2653C83.8232 30.3824 83.9309 30.4619 84.0521 30.4619H91.5668C91.6881 30.4619 91.7958 30.3824 91.8335 30.2649C91.8712 30.1475 91.8302 30.0189 91.7319 29.946C91.5734 29.8286 91.4374 29.6878 91.3203 29.5233C91.1184 29.2205 90.9733 28.8582 90.8902 28.4468C90.803 28.0171 90.7587 27.3329 90.7587 26.413L90.7579 22.7714L90.7578 22.7593C90.7577 22.7546 90.7574 22.7498 90.7567 22.7452V19.2677C90.7636 18.5064 91.1999 17.8101 91.867 17.4941C92.459 17.2167 92.9906 17.1601 93.4816 17.4112C93.6861 17.5157 93.8429 17.6506 93.9642 17.8264C94.1046 18.0251 94.1943 18.2391 94.2382 18.4814C94.2861 18.7467 94.3103 19.1581 94.3103 19.7036V23.6405L94.3097 23.6515L94.3095 26.4126C94.3095 27.3308 94.2652 28.015 94.1784 28.4464C94.0948 28.8578 93.9502 29.2201 93.7529 29.5166C93.6312 29.6878 93.4948 29.8286 93.3363 29.9464C93.2383 30.0193 93.1974 30.1479 93.2351 30.2653C93.2728 30.3824 93.3805 30.4619 93.5017 30.4619H101.017C101.139 30.4619 101.246 30.3824 101.284 30.2645C101.321 30.1467 101.281 30.0171 101.182 29.9447C101.024 29.8286 100.888 29.6882 100.77 29.5225C100.569 29.2193 100.423 28.857 100.34 28.446C100.253 28.0163 100.209 27.332 100.209 26.4122V22.7705C100.209 22.7652 100.209 22.76 100.209 22.7549C100.209 22.7516 100.209 22.7484 100.208 22.7452V18.6813C100.208 17.771 100.146 17.0764 100.016 16.5571C99.8851 16.0286 99.6618 15.5644 99.3521 15.1767C98.8259 14.5199 97.922 13.7366 96.604 13.7366C93.3543 13.7366 91.2633 15.4661 90.5052 16.3389C90.37 15.9 90.1677 15.5102 89.9015 15.1767C89.3752 14.5199 88.4716 13.7366 87.1531 13.7366C84.207 13.7366 82.2131 15.1579 81.3018 16.0732L81.2961 14.0219C81.2961 13.9295 81.2518 13.8425 81.1773 13.7892C81.1027 13.7358 81.0072 13.7225 80.9217 13.7533C80.5187 13.8982 80.1709 14.0174 79.8792 14.1103C79.5864 14.2039 79.2988 14.2918 79.0163 14.3746L78.1156 14.6416C77.8195 14.7304 77.4745 14.8322 77.0799 14.9485L77.0789 14.9489L77.0039 14.971C76.5804 15.0951 76.2065 15.1984 75.885 15.2816C75.6724 15.3362 75.4692 15.3845 75.2406 15.4382L74.9625 15.5361L74.9383 15.5446C74.7851 15.5988 74.6321 15.6528 74.4776 15.7052C74.3781 15.7388 74.3052 15.8263 74.2892 15.9316C74.2732 16.037 74.3162 16.1427 74.401 16.2057C74.5149 16.2902 74.6263 16.4009 74.741 16.5442L74.7835 16.5942L74.7894 16.6008C74.7985 16.611 74.8073 16.6209 74.813 16.6287C75.0149 16.9319 75.16 17.2942 75.2431 17.7056C75.3299 18.1354 75.3742 18.8196 75.3742 19.7411L75.3816 20.9358L75.3779 26.1045C75.3779 26.1182 75.3787 26.1319 75.3808 26.1457V26.4134C75.3808 27.3316 75.3365 28.0163 75.2497 28.4472C75.1661 28.8591 75.0211 29.221 74.8242 29.517C74.7025 29.6886 74.5661 29.8294 74.4076 29.9468C74.3096 30.0197 74.2687 30.1483 74.3064 30.2657C74.3441 30.3828 74.4518 30.4623 74.573 30.4623H82.1119Z" clip-rule="evenodd" fill-rule="evenodd"></path>
</svg>
