<svg xmlns="http://www.w3.org/2000/svg" fill="none" viewBox="0 0 508 107" height="107" width="508">
<g clip-path="url(#clip0_25302_30448)">
<path fill="white" d="M63.0915 86.3163C59.1309 93.1967 57.3376 98.378 57.3376 98.5651L56.207 101.955L59.5986 106.762L63.5594 101.012C66.6702 96.4848 70.8181 91.9655 73.8353 88.9501C68.3699 88.1007 64.1207 86.6904 63.0837 86.3086L63.0915 86.3163Z"></path>
<path fill="white" d="M113.909 15.0771C105.239 1.97911 90.1527 0.187002 89.5836 0.187002H89.49C88.0788 0.0935009 86.7534 0 85.4358 0C72.4233 0 64.1276 5.75032 59.5977 10.2695C55.0756 5.75032 46.7722 0 33.7594 0C32.4418 0 31.0229 0.0935009 29.7052 0.187002H29.6118C28.9489 0.280504 13.8625 2.07261 5.19263 15.0771C4.15567 16.4874 -1.5047 24.8791 0.382094 37.2212L4.8106 41.2729C7.16517 43.439 10.4709 45.8934 14.5252 47.3971C14.151 46.8284 13.9561 46.4544 13.9561 46.3608L13.8625 46.2675L13.6754 45.987C5.4733 31.5723 12.4513 21.6767 12.9191 20.9209L13.0127 20.8273L13.1062 20.6403C19.0473 11.5941 29.8925 9.98902 30.4538 9.89552C31.4908 9.80202 32.5277 9.70852 33.5647 9.70852C48.4641 9.70852 54.7793 19.6975 55.2549 20.3598L59.4027 27.9958L63.6442 20.3598C64.0182 19.6975 70.3414 9.70852 85.3344 9.70852C86.3714 9.70852 87.4083 9.80202 88.4453 9.89552C89.108 9.98902 99.7582 11.5006 105.793 20.6403L105.886 20.8273L105.98 21.0144C106.074 21.1079 108.904 24.8791 109.184 31.2838C109.652 31.1903 110.221 31.0034 110.697 30.8165C112.303 30.1542 114.564 27.8944 115.695 26.3908L117.769 23.5623C116.544 18.8483 114.564 15.9263 113.901 15.0848L113.909 15.0771Z"></path>
<path fill="white" d="M118.25 43.1604C118.819 39.8643 119.474 32.0415 118.912 28.5508C118.912 28.5508 115.614 32.9765 112.215 34.301C105.518 36.9425 99.9586 33.3583 89.8699 36.849C79.8746 40.3319 70.16 44.7654 63.8446 58.8996C63.8446 58.8996 60.7337 65.3044 60.8274 78.6907C60.8274 78.6907 52.7187 92.5445 51.7754 96.1208L53.288 98.0065C53.288 98.0065 64.133 66.1538 91.1016 53.0558C91.1016 53.0558 71.2983 68.6082 64.2266 82.5475C64.2266 82.5475 80.6309 88.8589 91.6632 83.0151C105.993 75.5739 115.427 59.6477 118.258 43.1524L118.25 43.1604Z"></path>
<path fill="white" d="M50.08 89.5198C50.08 89.5198 48.4738 71.4275 37.6365 65.5837C26.7913 59.7399 27.0722 63.4175 15.1978 59.2723C15.1978 59.2723 21.1388 60.4022 27.3606 60.4022C33.5823 60.4022 47.5382 64.9292 50.1814 79.7179C50.1814 79.7179 54.8983 61.4385 39.9988 55.4075C39.9988 55.4075 34.814 51.8235 25.2866 52.6727C15.8605 53.5221 7.93909 49.5638 1.99805 44.1953C1.99805 44.1953 7.46351 63.2306 17.7473 73.7883C27.9296 84.3463 40.4745 84.5332 40.4745 84.5332C40.4745 84.5332 45.8463 84.0658 47.1719 82.0865L48.5831 90.5641"></path>
<path fill="white" d="M50.08 89.5198C50.08 89.5198 48.4738 71.4275 37.6365 65.5837C26.7913 59.7399 27.0722 63.4175 15.1978 59.2723C15.1978 59.2723 21.1388 60.4022 27.3606 60.4022C33.5823 60.4022 47.5382 64.9292 50.1814 79.7179C50.1814 79.7179 54.8983 61.4385 39.9988 55.4075C39.9988 55.4075 34.814 51.8235 25.2866 52.6727C15.8605 53.5221 7.93909 49.5638 1.99805 44.1953C1.99805 44.1953 7.46351 63.2306 17.7473 73.7883C27.9296 84.3463 40.4745 84.5332 40.4745 84.5332C40.4745 84.5332 45.8463 84.0658 47.1719 82.0865L48.5831 90.5641"></path>
<path fill="white" d="M140.215 22.8312C140.215 19.6911 140.706 16.7614 141.751 14.0421C142.795 11.3228 144.261 9.0164 146.148 6.99834C148.035 4.98027 150.405 3.43751 153.126 2.25316C155.917 1.06882 158.989 0.507812 162.412 0.507812C165.554 0.507812 168.345 1.06882 170.856 2.11291C173.296 3.15701 175.393 4.62187 177.07 6.43734C178.746 8.25281 180.001 10.4111 180.905 12.9279C181.74 15.4368 182.161 18.086 182.161 20.9456C182.161 22.0598 181.74 23.1116 180.835 24.1557C179.931 25.2 178.808 25.6908 177.342 25.6908H154.873C155.434 28.3398 156.619 30.2256 158.498 31.4098C160.377 32.5944 162.474 33.2254 164.782 33.2254C166.248 33.2254 167.573 33.0151 168.899 32.6645C170.224 32.2435 171.409 31.8306 172.524 31.2696C173.92 30.6385 175.105 30.506 176.087 30.7086C177.062 30.919 177.974 31.6826 178.668 33.0071L179.853 35.1733C180.484 36.4277 180.757 37.6122 180.484 38.7341C180.274 39.8483 179.51 40.76 178.255 41.4535C176.719 42.3573 174.692 43.1987 172.251 44.0324C169.811 44.8663 166.879 45.2871 163.597 45.2871C159.761 45.2871 156.408 44.656 153.477 43.4013C150.545 42.1469 148.105 40.4716 146.148 38.3758C144.191 36.2797 142.725 33.9111 141.681 31.1917C140.706 28.4022 140.215 25.6831 140.215 22.8234V22.8312ZM167.994 17.4627C167.994 15.7173 167.433 14.1823 166.388 12.9279C165.343 11.6734 163.878 11.0423 162.061 11.0423C159.964 11.0423 158.365 11.6734 157.313 12.9279C156.268 14.1823 155.566 15.7173 155.145 17.3925H167.986V17.4627H167.994Z"></path>
<path fill="white" d="M185.654 22.8315C185.654 19.9718 186.216 17.1824 187.26 14.5331C188.305 11.884 189.841 9.50747 191.868 7.41929C193.895 5.32329 196.406 3.72599 199.337 2.46373C202.269 1.20926 205.692 0.578125 209.458 0.578125C212.74 0.578125 215.461 0.998879 217.761 1.76247C219.991 2.59618 221.878 3.4377 223.203 4.41168C224.388 5.17527 225.02 6.15703 225.16 7.20112C225.3 8.31533 224.949 9.42957 224.185 10.6918L222.79 12.8579C222.026 14.1124 221.114 14.8136 220.139 14.9539C219.164 15.0942 217.971 14.8136 216.646 14.1903C215.812 13.7696 214.9 13.3566 213.855 13.0761C212.81 12.7956 211.625 12.5852 210.362 12.5852C208.616 12.5852 207.15 12.8657 205.894 13.4189C204.639 13.9799 203.594 14.7435 202.682 15.7175C201.848 16.6915 201.217 17.7434 200.795 18.9978C200.374 20.1822 200.164 21.4367 200.164 22.6911C200.164 23.9456 200.374 25.2 200.795 26.4544C201.217 27.7091 201.91 28.8232 202.752 29.8049C203.657 30.779 204.709 31.6205 206.035 32.2438C207.36 32.8749 208.966 33.2177 210.783 33.2177C212.249 33.2177 213.574 32.9373 214.9 32.4542C216.225 31.9711 217.41 31.4101 218.463 30.779C219.858 30.0153 221.043 29.7348 222.088 29.9451C223.133 30.1557 223.975 30.9894 224.669 32.3139L225.714 34.41C226.345 35.6644 226.548 36.8487 226.345 37.9007C226.205 38.9447 225.581 39.8563 224.458 40.6199C222.992 41.594 220.965 42.6458 218.385 43.6197C215.874 44.5937 212.802 45.1548 209.239 45.1548C205.403 45.1548 202.051 44.5235 199.119 43.3393C196.188 42.155 193.677 40.4796 191.65 38.3838C189.623 36.2877 188.087 33.9189 187.042 31.1998C186.138 28.6206 185.646 25.761 185.646 22.8315H185.654Z"></path>
<path fill="white" d="M228.787 23.034C228.787 19.6835 229.418 16.6135 230.673 13.8241C231.929 11.0346 233.676 8.73606 235.835 6.71021C238.002 4.75448 240.583 3.2195 243.515 2.17541C246.446 1.13132 249.588 0.570312 252.87 0.570312C256.153 0.570312 259.427 1.13132 262.358 2.17541C265.29 3.2195 267.871 4.75448 270.038 6.71021C272.206 8.66594 273.944 11.0346 275.2 13.8241C276.455 16.6135 277.086 19.6835 277.086 23.034C277.086 26.3843 276.455 29.3841 275.2 32.1035C273.944 34.8229 272.197 37.1915 270.038 39.1473C267.871 41.1029 265.29 42.638 262.358 43.6821C259.427 44.7261 256.285 45.2871 252.941 45.2871C249.595 45.2871 246.446 44.7261 243.521 43.6821C240.599 42.638 238.011 41.1029 235.842 39.1473C233.676 37.1915 231.935 34.8229 230.68 32.1035C229.425 29.3841 228.794 26.3142 228.794 23.034H228.787ZM243.303 23.034C243.303 24.639 243.585 26.0337 244.068 27.2883C244.629 28.5427 245.323 29.5868 246.164 30.4985C247.071 31.4023 248.052 32.0334 249.237 32.5243C250.422 33.0151 251.606 33.2254 252.932 33.2254C254.258 33.2254 255.513 33.0151 256.629 32.5243C257.814 32.0334 258.796 31.4101 259.7 30.4985C260.604 29.5868 261.306 28.5427 261.798 27.2883C262.358 26.0337 262.561 24.639 262.561 23.034C262.561 21.4288 262.281 20.0341 261.798 18.7095C261.235 17.455 260.543 16.3408 259.7 15.4292C258.796 14.5253 257.814 13.8241 256.629 13.3332C255.442 12.8423 254.258 12.5696 252.932 12.5696C251.606 12.5696 250.351 12.8501 249.237 13.3332C248.052 13.8241 247.071 14.5175 246.164 15.4292C245.26 16.3408 244.558 17.455 244.068 18.7095C243.576 19.964 243.303 21.4288 243.303 23.034Z"></path>
<path fill="white" d="M283.154 6.15331C283.154 3.08334 284.689 1.6185 287.692 1.6185H292.3C295.3 1.6185 296.767 3.15349 296.767 6.15331V6.91688C296.767 7.05714 296.767 7.12726 296.697 7.26752C296.697 7.40776 296.626 7.4779 296.626 7.61814V8.0389H296.767C297.257 7.20519 297.881 6.36367 298.654 5.45984C299.417 4.55598 300.401 3.7846 301.444 3.09113C302.56 2.38989 303.816 1.83667 305.28 1.34579C306.747 0.854907 308.422 0.644531 310.31 0.644531C312.477 0.644531 314.497 0.925033 316.383 1.47825C318.27 2.03925 319.876 2.9431 321.202 4.19758C322.527 5.45205 323.641 7.05714 324.414 9.15313C325.177 11.179 325.598 13.6879 325.598 16.6878V39.6346C325.598 42.7043 324.063 44.1693 321.06 44.1693H315.83C312.757 44.1693 311.292 42.6342 311.292 39.6346V19.1967C311.292 17.1708 310.871 15.7761 310.108 14.8723C309.342 13.9684 308.151 13.5477 306.545 13.5477C304.939 13.5477 303.542 13.8282 302.428 14.4515C301.241 15.0826 300.33 15.9164 299.496 16.9605C298.731 18.0046 298.171 19.1889 297.82 20.5836C297.469 21.9784 297.257 23.3731 297.257 24.9079V39.6266C297.257 42.6966 295.722 44.1616 292.719 44.1616H287.489C284.416 44.1616 282.951 42.6265 282.951 39.6266V6.15331H283.161H283.154Z"></path>
<path fill="white" d="M331.314 22.8312C331.314 19.6911 331.807 16.7614 332.852 14.0421C333.895 11.3228 335.363 9.0164 337.249 6.99834C339.135 4.97248 341.506 3.43751 344.226 2.25316C347.017 1.06882 350.09 0.507812 353.512 0.507812C356.655 0.507812 359.446 1.06882 361.956 2.11291C364.396 3.15701 366.494 4.62187 368.171 6.43734C369.847 8.25281 371.102 10.4111 372.007 12.9279C372.841 15.4368 373.262 18.086 373.262 20.9456C373.262 22.0598 372.841 23.1116 371.936 24.1557C371.032 25.2 369.909 25.6908 368.444 25.6908H345.974C346.534 28.3398 347.719 30.2256 349.598 31.4098C351.477 32.5944 353.575 33.2254 355.883 33.2254C357.348 33.2254 358.674 33.0151 359.999 32.6645C361.325 32.2435 362.51 31.8306 363.624 31.2696C365.02 30.6385 366.205 30.506 367.189 30.7086C368.162 30.919 369.075 31.6826 369.768 33.0071L370.954 35.1733C371.585 36.4277 371.859 37.6122 371.585 38.7341C371.374 39.8483 370.61 40.76 369.355 41.4535C367.82 42.3573 365.792 43.1987 363.353 44.0324C360.911 44.8663 357.981 45.2871 354.698 45.2871C350.862 45.2871 347.509 44.656 344.577 43.4013C341.645 42.1469 339.206 40.4716 337.249 38.3758C335.292 36.2797 333.827 33.9111 332.781 31.1917C331.807 28.4022 331.314 25.6831 331.314 22.8234V22.8312ZM359.095 17.4627C359.095 15.7173 358.535 14.1823 357.489 12.9279C356.443 11.6734 354.979 11.0423 353.161 11.0423C351.065 11.0423 349.466 11.6734 348.413 12.9279C347.368 14.1823 346.666 15.7173 346.247 17.3925H359.088V17.4627H359.095Z"></path>
<path fill="white" d="M376.259 32.2438C376.259 29.3842 377.024 27.0156 378.56 25.1299C380.095 23.2445 382.052 21.7795 384.423 20.6653C386.792 19.5511 389.383 18.7797 392.244 18.3667C395.105 17.9538 397.825 17.6655 400.476 17.6655H401.732V16.9019C401.732 15.1565 401.101 13.902 399.914 13.2086C398.729 12.5073 397.264 12.1645 395.658 12.1645C394.262 12.1645 392.936 12.3749 391.61 12.7255C390.287 13.1463 389.1 13.5592 387.986 14.0501C385.195 15.2344 383.097 14.6111 381.842 12.0242L380.867 9.92824C380.236 8.67377 380.104 7.48944 380.377 6.43753C380.658 5.39344 381.421 4.4818 382.676 3.85847C384.282 3.09488 386.303 2.3235 388.749 1.63003C391.198 0.936565 393.911 0.585938 397.053 0.585938C402.987 0.585938 407.595 2.12091 411.01 5.19087C414.425 8.26081 416.101 12.5151 416.101 17.9538V39.646C416.101 42.7159 414.564 44.1807 411.564 44.1807H407.586C404.515 44.1807 403.048 42.6458 403.048 39.5758V38.672C403.048 38.5318 403.048 38.4617 403.119 38.3916H402.98C402.144 39.646 401.092 40.7601 399.907 41.8121C398.861 42.7159 397.538 43.4873 395.932 44.1807C394.324 44.8742 392.508 45.225 390.348 45.225C388.321 45.225 386.442 44.8742 384.697 44.2508C382.949 43.6275 381.485 42.6458 380.298 41.5317C379.113 40.3472 378.131 39.0226 377.437 37.4176C376.532 35.7423 376.252 34.0672 376.252 32.2593L376.259 32.2438ZM390.426 30.9193C390.426 31.8932 390.777 32.8048 391.471 33.4982C392.164 34.1917 393.148 34.5423 394.474 34.5423C395.517 34.5423 396.499 34.3319 397.403 33.8411C398.308 33.3503 399.08 32.7971 399.704 32.0257C400.335 31.3243 400.889 30.4906 401.24 29.6569C401.59 28.7531 401.802 27.9117 401.802 27.0077V25.8234H400.476C399.36 25.8234 398.246 25.8935 397.053 26.1039C395.868 26.2441 394.825 26.5246 393.841 26.9376C392.866 27.3585 392.096 27.8416 391.471 28.4727C390.706 29.1037 390.426 29.8673 390.426 30.9113V30.9193Z"></path>
<path fill="white" d="M422.457 36.8457C422.457 34.407 423.712 33.1523 426.154 33.1523H429.779C432.218 33.1523 433.474 34.407 433.474 36.8457V40.4689C433.474 42.9078 432.218 44.1622 429.779 44.1622H426.154C423.712 44.1622 422.457 42.9078 422.457 40.4689V36.8457Z"></path>
<path fill="white" d="M437.951 26.8032C437.951 24.4346 438.373 22.1984 439.206 20.0401C440.04 17.8739 441.304 15.926 442.972 14.2508C444.649 12.5756 446.667 11.1808 449.045 10.2068C451.417 9.16276 454.207 8.67188 457.28 8.67188C459.93 8.67188 462.167 9.02252 464.046 9.64585C465.864 10.277 467.399 11.0406 468.513 11.812C469.488 12.4431 469.98 13.2067 470.119 14.1105C470.26 15.0144 469.98 15.926 469.356 16.9L468.242 18.6453C467.609 19.6894 466.916 20.2504 466.073 20.3907C465.24 20.5309 464.326 20.3206 463.212 19.7595C462.511 19.4089 461.747 19.0583 460.911 18.8557C460.078 18.5752 459.096 18.5051 458.05 18.5051C456.656 18.5051 455.469 18.7154 454.426 19.2063C453.38 19.6972 452.54 20.3206 451.845 21.0919C451.15 21.8633 450.66 22.7672 450.309 23.7412C449.959 24.7151 449.817 25.6968 449.817 26.741C449.817 27.7851 450.029 28.7667 450.38 29.8108C450.731 30.8551 451.284 31.7666 451.986 32.5302C452.688 33.3639 453.592 33.9952 454.706 34.486C455.752 34.9768 457.077 35.2496 458.542 35.2496C459.727 35.2496 460.843 35.0392 461.896 34.6185C462.948 34.1976 463.923 33.7846 464.827 33.2938C465.941 32.6627 466.923 32.4601 467.757 32.5926C468.593 32.8029 469.295 33.4263 469.855 34.5484L470.759 36.2235C471.251 37.2676 471.461 38.2495 471.322 39.0831C471.181 39.9168 470.689 40.6881 469.784 41.3115C468.6 42.1452 466.923 42.9167 464.827 43.7504C462.729 44.5841 460.29 45.0048 457.428 45.0048C454.355 45.0048 451.565 44.514 449.193 43.54C446.753 42.5661 444.726 41.2414 443.12 39.4961C441.443 37.8208 440.259 35.8729 439.354 33.6366C438.379 31.4704 437.958 29.172 437.958 26.8032H437.951Z"></path>
<path fill="white" d="M473.824 40.472C473.824 39.5681 473.965 38.8667 474.175 38.3058C474.455 37.7448 474.877 37.1215 475.43 36.3499L486.595 22.4729C487.016 21.9119 487.429 21.499 487.779 21.0782C488.13 20.7276 488.481 20.3769 488.754 20.1042C489.105 19.7536 489.385 19.5432 489.659 19.2705V19.1303C489.449 19.2004 489.169 19.2004 488.896 19.2004C488.684 19.2705 488.333 19.2705 487.991 19.2705H478.082C475.642 19.2705 474.385 18.016 474.385 15.5071V13.1384C474.385 10.6295 475.642 9.375 478.082 9.375H501.744C504.183 9.375 505.439 10.349 505.439 12.3047V13.2085C505.439 14.1124 505.3 14.8136 505.088 15.3746C504.808 15.9356 504.386 16.559 503.833 17.3304L492.739 31.2777C492.317 31.8386 491.905 32.2516 491.554 32.6723C491.203 33.0229 490.852 33.3735 490.579 33.6463C490.228 33.9969 489.948 34.2072 489.604 34.48V34.6202C489.816 34.6202 490.096 34.6202 490.37 34.5501C490.579 34.48 490.93 34.48 491.274 34.48H502.024C504.466 34.48 505.721 35.7346 505.721 38.1733V40.5421C505.721 42.9808 504.466 44.2354 502.024 44.2354H477.528C475.086 44.2354 473.831 43.2612 473.831 41.3758V40.472H473.824Z"></path>
<path fill="white" d="M495.43 90.7877C494.796 90.2199 494.311 89.6357 493.976 89.0347C493.676 88.4337 493.443 87.4821 493.275 86.1799C493.209 85.5788 493.275 84.7941 493.475 83.8259C493.676 82.8242 493.96 81.7724 494.327 80.6705C494.696 79.5686 495.113 78.5669 495.58 77.6654C496.049 76.7304 496.516 76.0292 496.983 75.5618C497.384 75.061 497.703 74.7937 497.936 74.7605C498.204 74.6935 498.671 74.8105 499.339 75.1111C499.708 75.545 499.89 76.0126 499.89 76.5134C499.89 77.0143 499.69 77.5818 499.289 78.2163C498.621 79.1179 498.036 80.253 497.535 81.6221C497.068 82.9576 496.751 84.1596 496.582 85.2282C496.25 86.3634 496.099 87.1315 496.131 87.5322C496.166 87.9328 496.466 88.1999 497.034 88.3335C497.669 88.4669 498.421 88.2333 499.289 87.6323C500.159 86.9978 501.011 86.1298 501.845 85.0279C502.681 83.8926 503.348 82.6571 503.849 81.3216C504.05 80.854 504.2 80.3031 504.3 79.6688C504.435 79.0343 504.569 78.5669 504.701 78.2664C504.87 77.5985 505.102 77.1145 505.403 76.8139C505.704 76.48 506.023 76.2962 506.355 76.263C506.69 76.1961 506.975 76.263 507.207 76.4634C507.508 76.5968 507.692 76.7639 507.758 76.9642C507.827 77.1311 507.827 77.5985 507.758 78.3666C507.758 79.6019 507.492 80.6537 506.957 81.5219C506.424 82.39 505.972 83.3082 505.603 84.2766C505.303 84.9778 504.852 85.7623 504.25 86.6306C503.683 87.4987 503.047 88.2834 502.346 88.9846C501.678 89.6858 501.027 90.1698 500.391 90.4371C499.457 91.0381 498.621 91.3386 497.885 91.3386C497.184 91.3052 496.366 91.1214 495.43 90.7877Z"></path>
<path fill="white" d="M484.957 93.3416C484.322 93.5085 483.805 93.3748 483.404 92.9409C483.037 92.5068 482.818 91.839 482.752 90.9375C482.686 90.036 482.786 88.9673 483.053 87.7321C483.219 87.3314 483.354 86.9473 483.454 86.5801C483.554 86.1794 483.604 85.8621 483.604 85.6285C483.67 85.2945 483.805 84.8103 484.005 84.176C484.205 83.5081 484.422 82.8237 484.657 82.1225C484.891 81.4213 485.108 80.8035 485.308 80.2694C485.543 79.7016 485.693 79.351 485.759 79.2176C485.893 79.2176 486.01 79.1006 486.11 78.867C486.21 78.6332 486.26 78.3994 486.26 78.1658C486.26 77.8985 486.31 77.598 486.411 77.2643C486.545 76.9303 486.677 76.6965 486.812 76.5631C486.812 76.396 486.846 76.2125 486.912 76.0121C487.012 75.7783 487.062 75.5946 487.062 75.4612C487.062 75.3276 487.096 75.1939 487.162 75.0605C487.263 74.9269 487.313 74.7933 487.313 74.6599C487.547 74.2257 487.848 73.5411 488.215 72.6064C488.616 71.6379 489.033 70.5695 489.468 69.4009C489.935 68.2321 490.37 67.0802 490.771 65.945C491.172 64.8097 491.488 63.8581 491.723 63.0902C491.989 62.2888 492.124 61.8046 492.124 61.6377C492.124 61.3705 492.19 61.1701 492.324 61.0367C492.459 60.9031 492.659 60.8364 492.926 60.8364C493.026 60.7362 493.142 60.6693 493.277 60.636C493.443 60.6026 493.593 60.5859 493.728 60.5859C493.728 60.5859 493.794 60.6526 493.928 60.7863C494.062 60.9197 494.263 61.12 494.53 61.3873C494.796 61.6209 494.946 61.8881 494.981 62.1887C495.047 62.4892 495.081 62.8398 495.081 63.2404C495.081 63.6744 495.031 64.0584 494.93 64.3924C494.83 64.7262 494.63 65.2104 494.329 65.8449C494.028 66.4791 493.561 67.4642 492.926 68.7999C492.659 69.4676 492.374 70.1021 492.074 70.7031C491.773 71.2707 491.623 71.6213 491.623 71.7549C491.623 71.8883 491.557 72.0887 491.422 72.3559C491.322 72.623 491.206 72.957 491.071 73.3576C490.937 73.6247 490.755 74.0254 490.52 74.5597C490.286 75.0605 490.035 75.6115 489.768 76.2125C489.534 76.78 489.333 77.2809 489.167 77.715C489.001 78.1157 488.916 78.3493 488.916 78.4162C488.916 78.5496 488.9 78.6833 488.866 78.8169C488.866 78.9503 488.8 79.084 488.666 79.2176C488.531 79.2176 488.449 79.3178 488.415 79.5181C488.415 79.685 488.415 79.7685 488.415 79.7685C488.415 80.1023 488.149 80.9872 487.613 82.423C487.078 84.2593 486.577 85.9456 486.11 87.4816C485.675 89.0174 485.458 90.2529 485.458 91.1879C485.458 91.9893 485.442 92.5234 485.408 92.7907C485.374 93.0242 485.224 93.208 484.957 93.3416Z"></path>
<path fill="white" d="M476.611 91.787C476.11 91.7203 475.675 91.3697 475.308 90.7352C474.974 90.0675 474.773 89.4665 474.707 88.9321C474.739 88.6651 474.773 88.281 474.807 87.7802C474.873 87.2793 474.939 86.7619 475.008 86.2275C475.14 85.5931 475.324 84.8252 475.559 83.9236C475.791 82.9886 476.026 82.0539 476.261 81.1189C476.527 80.1839 476.762 79.3825 476.962 78.7148C477.163 78.047 477.295 77.6464 477.363 77.5127C477.53 77.2457 477.796 77.1788 478.165 77.3124C478.532 77.446 478.833 77.6464 479.067 77.9134C479.268 78.1805 479.384 78.4978 479.418 78.865C479.484 79.2322 479.434 79.7666 479.268 80.4678C479.133 81.1689 478.867 82.2041 478.466 83.573C478.097 84.9087 477.814 85.9937 477.614 86.8286C477.445 87.6299 477.379 88.4814 477.413 89.3829C477.279 90.5182 477.179 91.2194 477.113 91.4865C477.044 91.7203 476.878 91.8205 476.611 91.787ZM482.375 71.803C482.24 71.9032 482.106 71.9533 481.974 71.9533C481.874 71.9198 481.689 71.8196 481.423 71.6528C481.188 71.6193 480.887 71.4691 480.521 71.202C480.186 70.9015 479.885 70.601 479.618 70.3005C479.384 69.9665 479.268 69.7662 479.268 69.6995C479.233 69.3655 479.249 68.9482 479.318 68.4473C479.418 67.913 479.6 67.4456 479.869 67.0449C480.136 66.6108 480.521 66.3772 481.022 66.3438C481.154 66.3438 481.272 66.3604 481.373 66.3938C481.473 66.4273 481.773 66.5441 482.275 66.7444C482.541 67.2453 482.808 67.8128 483.077 68.4473C483.343 69.0483 483.459 69.6494 483.427 70.2504C483.393 70.8179 483.042 71.3356 482.375 71.803Z"></path>
<path fill="white" d="M452.58 91.5359C452.446 91.2689 452.279 91.0685 452.079 90.9349C451.878 90.768 451.778 90.6178 451.778 90.4841C451.778 90.3507 451.762 90.2171 451.728 90.0834C451.728 89.9166 451.662 89.7663 451.528 89.6327C451.361 89.4323 451.377 88.9816 451.578 88.2804C451.778 87.5459 452.113 86.661 452.58 85.6259C453.047 84.5575 453.598 83.439 454.234 82.2702C454.5 82.0031 454.769 81.6525 455.036 81.2184C455.302 80.7845 455.503 80.5006 455.637 80.3669C455.637 80.2335 455.687 80.1165 455.788 80.0163C455.888 79.8829 456.004 79.816 456.138 79.816V79.5155C456.138 79.3486 456.289 79.0647 456.589 78.664C456.924 78.2634 457.325 77.8294 457.792 77.3618C458.259 76.861 458.744 76.3936 459.246 75.9594C459.747 75.492 460.164 75.1581 460.499 74.9577C461.2 74.4903 461.918 74.2065 462.654 74.1063C463.421 74.0061 464.073 74.1732 464.608 74.6071C464.708 74.7073 464.875 74.8744 465.109 75.108C465.344 75.3418 465.61 75.6088 465.911 75.9093C466.246 76.1766 466.579 76.4603 466.913 76.7608L468.768 78.4136L467.866 80.9179C467.431 82.2535 467.314 83.4221 467.515 84.4238C467.749 85.4255 468.082 86.2938 468.517 87.0282C468.683 87.3957 469.018 87.7463 469.52 88.08C470.055 88.414 470.556 88.6143 471.023 88.6811C471.29 88.7145 471.54 88.8147 471.775 88.9816C472.009 89.1487 472.126 89.4157 472.126 89.7829C472.126 90.1169 472.06 90.384 471.925 90.5843C471.791 90.7846 471.558 90.9183 471.223 90.985C470.121 91.1186 469.084 90.8516 468.116 90.1836C467.18 89.5159 466.312 88.414 465.51 86.878C465.376 86.6776 465.194 86.3104 464.959 85.7761C464.758 85.2086 464.642 84.8413 464.608 84.6742C464.474 84.8413 464.223 85.1585 463.856 85.6259C463.49 86.06 463.205 86.3771 463.004 86.5775C460.633 88.9816 458.578 90.6011 456.84 91.4357C455.136 92.2371 453.717 92.2706 452.58 91.5359ZM454.384 88.7311C454.384 88.9649 454.735 88.9649 455.437 88.7311C456.173 88.4641 456.956 87.9967 457.792 87.3288C458.929 86.3605 460.063 85.2921 461.2 84.1233C462.369 82.9547 463.305 81.8695 464.007 80.8678L465.109 79.0647C464.774 78.2968 464.408 77.7793 464.007 77.5121C463.64 77.2116 463.321 77.0613 463.054 77.0613C462.619 77.0613 461.968 77.462 461.1 78.2633C460.264 79.0647 459.362 80.1333 458.394 81.4688C457.425 82.8045 456.505 84.2736 455.637 85.8763C455.302 86.5442 455.002 87.1953 454.735 87.8296C454.5 88.4306 454.384 88.7311 454.384 88.7311Z"></path>
<path fill="white" d="M440.147 95.8438C439.044 95.677 438.293 95.2597 437.892 94.5917C437.525 93.9574 437.441 92.9724 437.641 91.6367C437.842 91.0024 437.96 90.4346 437.992 89.9338C438.06 89.3997 438.211 89.0657 438.443 88.9321C438.443 88.9321 438.461 88.882 438.493 88.7818C438.561 88.6817 438.543 88.5815 438.443 88.4813C438.443 88.0474 438.593 87.4464 438.894 86.6783C438.962 86.4779 439.044 86.2443 439.145 85.9771C439.279 85.6766 439.345 85.5263 439.345 85.5263C439.179 85.2593 439.179 85.0423 439.345 84.8752C439.514 84.7083 439.68 84.5581 439.846 84.4244C440.047 84.2576 440.065 84.0738 439.896 83.8735C439.83 83.7401 439.915 83.4396 440.147 82.972C440.382 82.4711 440.648 81.9536 440.949 81.4193C441.25 80.8852 441.45 80.4677 441.55 80.1672C441.55 80.1005 441.635 79.8667 441.801 79.466C441.969 79.0653 442.17 78.5979 442.402 78.0636C442.637 77.5295 442.853 77.0453 443.054 76.6112C443.288 76.1772 443.439 75.8933 443.505 75.7597C443.84 75.5928 443.705 75.476 443.104 75.4091C442.502 75.3424 441.869 75.3258 441.199 75.359C440.165 75.3258 439.329 75.2757 438.694 75.2088C438.092 75.1421 437.591 74.9918 437.19 74.758C436.789 74.2906 436.639 73.9567 436.739 73.7563C436.873 73.5227 437.274 73.3891 437.942 73.3556C438.377 73.3224 438.712 73.3055 438.944 73.3055C439.213 73.3055 439.546 73.2889 439.947 73.2555C440.382 73.1888 441.049 73.1052 441.951 73.005L444.507 72.8047L444.657 71.9532C444.926 71.5193 445.143 71.1353 445.309 70.8013C445.509 70.4341 445.678 70.0669 445.81 69.6994C445.945 69.3322 446.045 68.9481 446.111 68.5475C446.111 68.5475 446.261 68.2804 446.562 67.7461C446.863 67.1785 447.047 66.5941 447.113 65.9931C447.514 65.3254 447.865 64.7244 448.166 64.1901C448.466 63.6225 448.651 63.2719 448.717 63.1383C449.086 62.8378 449.337 62.6875 449.469 62.6875C449.637 62.6875 449.97 62.8546 450.471 63.1883C450.772 63.3555 451.041 63.5558 451.273 63.7894C451.508 64.0232 451.658 64.2736 451.724 64.5406C451.792 64.7745 451.692 65.0083 451.423 65.2418C451.357 65.3755 451.257 65.6259 451.123 65.9931C450.99 66.3271 450.89 66.611 450.822 66.8446C450.621 67.0784 450.371 67.4624 450.07 67.9965C449.804 68.4974 449.619 69.0151 449.519 69.5492C449.252 70.1169 449.002 70.6344 448.767 71.1018C448.535 71.5359 448.35 71.7529 448.216 71.7529C448.284 72.0869 448.485 72.2538 448.817 72.2538C449.152 72.2205 449.703 72.187 450.471 72.1536C451.107 72.0869 451.542 72.0202 451.774 71.9532C452.043 71.8531 452.344 71.8865 452.676 72.0534C452.845 72.2872 452.977 72.5543 453.077 72.8548C453.177 73.1553 453.196 73.4392 453.127 73.7062C453.095 73.94 452.961 74.1069 452.726 74.2071C452.56 74.2071 452.209 74.3072 451.674 74.5076C451.173 74.6747 450.539 74.7749 449.769 74.8081L447.113 75.0585L446.261 76.7614C446.029 77.1956 445.828 77.5962 445.66 77.9635C445.494 78.2974 445.377 78.4978 445.309 78.5645C445.309 78.7648 445.193 79.0653 444.958 79.466C444.758 79.8667 444.541 80.3008 444.307 80.7682C444.106 81.336 443.874 81.8535 443.605 82.3209C443.373 82.7885 443.254 83.0221 443.254 83.0221C443.122 83.0221 443.054 83.1222 443.054 83.3226C443.222 83.7232 443.172 84.0238 442.903 84.2241C442.737 84.3243 442.587 84.4745 442.452 84.6749C442.352 84.842 442.302 84.9253 442.302 84.9253C442.436 85.0589 442.452 85.2258 442.352 85.4261C442.286 85.6265 442.186 85.8437 442.051 86.0772C442.051 86.3445 441.969 86.7284 441.801 87.2292C441.669 87.7301 441.518 88.1977 441.35 88.6316C441.384 89.2326 441.418 89.6167 441.45 89.7835C441.484 89.9506 441.568 90.0173 441.701 89.9839C441.869 90.0173 442.02 90.0173 442.152 89.9839C442.286 89.9506 442.42 89.9338 442.553 89.9338C443.022 89.7335 442.771 90.9023 441.801 93.4398C441.268 94.2746 440.899 94.8756 440.698 95.2428C440.498 95.6435 440.316 95.8438 440.147 95.8438Z"></path>
<path fill="white" d="M422.845 92.1382C421.542 91.6039 420.69 90.8692 420.289 89.9345C419.922 88.966 419.856 87.4803 420.088 85.4769C420.157 84.4417 420.189 83.7572 420.189 83.4234C420.189 83.0894 420.006 82.7555 419.637 82.4217C419.537 82.2881 419.355 82.1043 419.086 81.8708C418.854 81.637 418.754 81.4366 418.785 81.2697C418.754 81.0359 418.769 80.7855 418.835 80.5185C418.904 80.218 419.004 80.0677 419.136 80.0677C419.271 80.0677 419.405 80.0342 419.537 79.9675C419.706 79.9006 419.856 79.9006 419.988 79.9675C420.123 79.9675 420.273 79.9842 420.439 80.0176C420.608 80.0509 420.69 80.1344 420.69 80.268C420.824 80.5016 421.041 80.5351 421.341 80.3682C421.642 80.1679 421.961 79.7337 422.294 79.066C422.628 78.5317 423.064 77.9974 423.597 77.4633C424.166 76.929 424.717 76.4447 425.25 76.0108C425.82 75.5432 426.287 75.2094 426.654 75.0091C426.822 74.9422 427.073 74.8588 427.405 74.7587C427.74 74.6585 428.091 74.575 428.458 74.5083C428.859 74.4413 429.194 74.4247 429.46 74.4582C430.062 74.4914 430.563 74.6585 430.964 74.959C431.399 75.2595 431.8 75.6101 432.167 76.0108C432.602 76.3113 432.868 76.712 432.968 77.2128C433.103 77.7137 433.137 78.2478 433.069 78.8156C433.003 79.3831 432.852 79.9006 432.618 80.3682C432.517 80.702 432.235 81.1026 431.766 81.5703C431.299 82.0376 430.763 82.4884 430.162 82.9225C429.56 83.3565 429.009 83.6738 428.508 83.8742C428.075 83.9743 427.506 84.0577 426.804 84.1246C426.137 84.1913 425.501 84.2248 424.9 84.2248C424.332 84.1913 423.947 84.1246 423.747 84.0244C423.515 83.8908 423.33 84.0745 423.196 84.5754C423.064 85.0762 422.963 85.794 422.895 86.729C422.829 87.4635 422.829 87.9978 422.895 88.3317C422.963 88.6655 423.029 88.8993 423.095 89.0329C423.33 89.2665 423.647 89.567 424.048 89.9345C424.483 90.2682 425.084 90.3183 425.852 90.0847C426.487 89.9176 427.105 89.4837 427.706 88.7825C428.342 88.0813 428.927 87.5135 429.46 87.0796C429.595 86.8458 429.811 86.7122 430.112 86.6789C430.447 86.612 430.797 86.6289 431.164 86.729C431.533 86.9626 431.684 87.2465 431.615 87.5805C431.583 87.881 431.415 88.3484 431.114 88.9829C431.014 89.2164 430.781 89.5169 430.412 89.8844C430.08 90.2181 429.695 90.5687 429.26 90.9362C428.859 91.2699 428.492 91.5372 428.157 91.7375C427.155 92.2716 426.221 92.5555 425.351 92.589C424.483 92.589 423.647 92.4387 422.845 92.1382ZM425.802 81.9709C426.538 81.8038 427.123 81.687 427.556 81.6203C427.991 81.5534 428.408 81.3699 428.809 81.0694C429.21 80.7354 429.711 80.1178 430.312 79.2163C430.447 78.8488 430.481 78.4816 430.412 78.1144C430.381 77.7469 430.296 77.4965 430.162 77.3631C429.861 77.0291 429.494 76.929 429.059 77.0626C428.658 77.1628 428.276 77.3463 427.907 77.6135C427.674 77.7137 427.323 77.9641 426.854 78.3648C426.421 78.732 425.986 79.1662 425.551 79.667C425.118 80.1344 424.767 80.5686 424.499 80.9692C424.232 81.3699 424.166 81.6035 424.298 81.6704C424.232 81.8038 424.417 81.8874 424.849 81.9209C425.319 81.9541 425.635 81.9709 425.802 81.9709Z"></path>
<path fill="white" d="M412.496 92.8392C412.362 92.8392 412.161 92.8226 411.895 92.7891C411.66 92.7224 411.46 92.5721 411.293 92.3383C410.792 91.7373 410.473 91.2365 410.341 90.8358C410.207 90.4351 410.191 89.8507 410.291 89.0828C410.357 88.582 410.391 88.1478 410.391 87.7806C410.423 87.3799 410.457 87.0459 410.491 86.7789C410.357 86.6452 410.106 86.7454 409.74 87.0794C409.405 87.3799 408.938 87.764 408.336 88.2314C407.2 89.5336 406.181 90.5353 405.279 91.2365C404.409 91.9042 403.625 92.3549 402.924 92.5888C402.222 92.7891 401.553 92.8558 400.919 92.7891C400.35 92.7224 399.899 92.4886 399.566 92.0879C399.231 91.6538 399.015 91.1028 398.915 90.4351C398.846 89.7674 398.846 89.0493 398.915 88.2814C399.047 87.1796 399.281 86.1278 399.616 85.1261C399.983 84.1244 400.568 83.0059 401.37 81.7704C401.737 81.1026 402.222 80.4515 402.824 79.8171C403.457 79.1493 404.143 78.5649 404.878 78.0641C405.646 77.5298 406.382 77.1459 407.084 76.9121C407.851 76.6116 408.637 76.4447 409.439 76.4113C410.241 76.3446 410.958 76.4113 411.594 76.6116C411.995 76.812 412.312 76.9121 412.546 76.9121C412.813 76.9121 413.013 76.7452 413.148 76.4113C413.314 76.1442 413.48 75.7435 413.649 75.2092C413.815 74.6417 414.016 74.1574 414.25 73.7568L415.353 70.5012C415.72 69.5997 416.12 68.6481 416.556 67.6464C416.988 66.6447 417.508 65.426 418.109 63.9902C418.676 62.9218 419.143 62.3039 419.512 62.137C419.879 61.9367 420.296 62.0703 420.765 62.5377C421.132 62.9718 421.267 63.4727 421.166 64.0402C421.066 64.5746 420.765 65.4426 420.264 66.6447C420.03 67.0119 419.829 67.3625 419.663 67.6965C419.494 67.997 419.262 68.4812 418.961 69.1489C418.526 70.1841 418.125 71.1189 417.758 71.9537C417.389 72.7551 417.007 73.6732 416.606 74.7084C416.471 75.2427 416.287 75.8603 416.054 76.5615C415.854 77.2627 415.685 77.8972 415.553 78.4648C415.453 78.9991 415.335 79.4999 415.202 79.9673C415.102 80.4015 414.984 80.6184 414.852 80.6184C414.583 80.9189 414.332 81.4532 414.1 82.2211C413.865 82.9558 413.665 83.7237 413.498 84.5251C413.364 85.3264 413.248 85.9941 413.148 86.5285C413.079 86.9291 413.029 87.4466 412.997 88.0811C412.963 88.7156 412.947 89.3332 412.947 89.9343C412.947 90.5018 412.947 90.9025 412.947 91.1363C412.947 91.871 412.929 92.3383 412.897 92.5387C412.863 92.739 412.729 92.8392 412.496 92.8392ZM401.821 89.6838C402.523 89.6838 403.256 89.3833 404.026 88.7823C404.828 88.1813 405.63 87.5135 406.432 86.7789C406.933 86.3115 407.466 85.6936 408.036 84.9257C408.637 84.1578 409.204 83.3897 409.74 82.6218C410.307 81.8539 410.758 81.186 411.093 80.6184C411.425 80.0174 411.594 79.6502 411.594 79.5165C411.594 79.3497 411.444 79.2327 411.143 79.1659C410.842 79.0992 410.491 79.0658 410.091 79.0658C409.722 79.0323 409.421 79.0492 409.188 79.1159C408.453 79.2827 407.717 79.6167 406.983 80.1176C406.282 80.6184 405.512 81.3697 404.678 82.3714C403.808 83.4398 403.09 84.5417 402.523 85.677C401.988 86.8123 401.653 87.764 401.521 88.5319C401.386 89.2998 401.486 89.6838 401.821 89.6838Z"></path>
<path fill="white" d="M375.12 91.4366C374.418 91.5703 373.967 91.6203 373.767 91.5869C373.6 91.5202 373.332 91.3198 372.965 90.9858C372.43 90.7188 371.978 90.3848 371.612 89.9842C371.277 89.5835 371.026 89.1662 370.86 88.732C370.726 88.2646 370.675 87.8806 370.71 87.5801C370.81 86.4115 371.095 85.1594 371.562 83.8237C372.029 82.4882 372.598 81.2026 373.266 79.9671C373.933 78.7318 374.653 77.6801 375.421 76.8118C376.222 75.9102 376.99 75.3261 377.726 75.0588C378.393 74.7917 379.029 74.6916 379.63 74.7583C380.232 74.8252 380.667 75.1423 380.933 75.7099C381.435 76.6784 381.318 77.296 380.583 77.563C380.482 77.563 380.366 77.6131 380.232 77.7133C380.097 77.7802 380.031 77.8804 380.031 78.0138C380.166 78.0807 380.532 78.0974 381.134 78.0639C381.735 77.9972 382.337 77.897 382.938 77.7634C383.574 77.5965 383.991 77.4296 384.191 77.2625C384.391 77.1624 384.542 77.1123 384.642 77.1123C384.742 77.1123 384.993 77.1457 385.394 77.2124C385.961 77.3795 386.246 77.5799 386.246 77.8135C386.246 77.9471 386.296 78.0807 386.396 78.2141C386.496 78.3143 386.612 78.3644 386.747 78.3644C386.982 78.3979 386.947 78.5481 386.647 78.8152C386.38 79.0824 385.911 79.4497 385.243 79.917C384.608 80.3177 384.207 80.585 384.041 80.7184C383.906 80.8186 383.89 81.0524 383.991 81.4196C384.257 82.0541 384.275 82.7887 384.041 83.6233C383.806 84.4582 383.389 85.3096 382.788 86.1777C382.186 87.046 381.451 87.864 380.583 88.6318C379.747 89.3665 378.844 90.001 377.876 90.5351C376.94 91.0359 376.022 91.3364 375.12 91.4366ZM374.268 89.2329C374.402 89.2329 374.635 89.1662 374.97 89.0325C375.304 88.8657 375.571 88.732 375.771 88.6318C375.906 88.4984 376.072 88.3482 376.273 88.1811C376.507 87.9807 376.689 87.864 376.824 87.8305C376.958 87.8305 377.125 87.7804 377.325 87.6802C377.525 87.5468 377.81 87.2964 378.177 86.929C378.544 86.5283 379.029 85.9441 379.63 85.176C380.298 84.4416 380.817 83.7736 381.184 83.1726C381.551 82.5383 381.651 81.9539 381.485 81.4196C381.45 81.2862 381.35 81.2026 381.184 81.1692C381.05 81.1359 380.867 81.0524 380.633 80.9188C380.298 80.9188 379.981 80.8354 379.68 80.6683C379.414 80.468 379.095 80.2176 378.728 79.917L377.926 78.9153L377.074 79.7668C376.539 80.3011 375.972 81.1025 375.37 82.1709C374.803 83.206 374.318 84.2745 373.917 85.3763C373.516 86.445 373.281 87.2964 373.215 87.9307C373.181 88.4315 373.266 88.7655 373.466 88.9324C373.666 89.0995 373.933 89.1996 374.268 89.2329Z"></path>
<path fill="white" d="M363.316 94.2905C362.881 94.3907 362.514 94.324 362.214 94.0902C361.947 93.8899 361.746 93.5894 361.612 93.1887C361.346 92.4208 361.145 91.5859 361.011 90.6844C360.91 89.7496 360.895 88.9314 360.961 88.2302L361.061 87.1785L359.106 88.7311C357.97 89.7328 356.867 90.4508 355.799 90.8848C354.762 91.3189 353.844 91.5359 353.042 91.5359C352.675 91.4692 352.306 91.3355 351.94 91.1352C351.573 90.9348 351.238 90.6844 350.937 90.3839C350.671 90.0834 350.452 89.7663 350.286 89.4323C350.085 88.9649 350.019 88.3304 350.085 87.5291C350.186 86.7277 350.386 85.8596 350.687 84.9246C351.022 83.9564 351.422 83.0214 351.889 82.1199C352.391 81.1851 352.958 80.3669 353.593 79.6657C354.696 77.9963 355.883 76.9779 357.152 76.6105C358.421 76.2433 359.673 76.427 360.91 77.1614C361.778 77.5289 362.314 77.6958 362.514 77.6623C362.749 77.629 362.949 77.245 363.116 76.5103C363.25 75.9762 363.382 75.4419 363.517 74.9076C363.651 74.34 363.867 73.5888 364.168 72.6538C365.004 70.1163 365.722 68.1295 366.323 66.6936C366.959 65.258 367.526 64.0059 368.027 62.9373C368.394 62.1694 368.694 61.702 368.929 61.5349C369.196 61.3345 369.464 61.2512 369.731 61.2845C370.098 61.2845 370.433 61.4181 370.733 61.6851C371.034 61.9524 371.269 62.3196 371.435 62.787C371.569 63.0875 371.619 63.3548 371.585 63.5884C371.585 63.7887 371.485 64.0726 371.285 64.4398C370.849 65.2412 370.332 66.3098 369.731 67.6453C369.164 68.9475 368.578 70.3833 367.977 71.9526C367.41 73.5221 366.874 75.0747 366.373 76.6105C365.872 78.1465 365.455 79.4988 365.12 80.6674C364.92 81.4021 364.735 82.337 364.569 83.4722C364.435 84.6075 364.318 85.7761 364.218 86.9781C364.118 88.1469 364.052 89.1987 364.018 90.1335C364.018 91.035 364.052 91.6194 364.118 91.8865C364.318 92.5544 364.403 93.0553 364.369 93.389C364.369 93.723 364.284 93.9399 364.118 94.0401C363.952 94.1738 363.683 94.2573 363.316 94.2905ZM354.846 88.7311C355.313 88.6309 355.764 88.4474 356.2 88.1802C356.667 87.9131 357.152 87.596 357.653 87.2285C358.655 86.4606 359.523 85.7595 360.259 85.125C360.995 84.4907 361.478 83.5222 361.712 82.22C361.778 81.5858 361.712 81.0849 361.512 80.7175C361.346 80.3168 361.061 79.9496 360.66 79.6156C360.259 79.3486 359.708 79.2484 359.006 79.3151C358.339 79.3486 357.637 79.6992 356.901 80.3669C356.099 81.1015 355.313 82.0866 354.546 83.3219C353.81 84.5574 353.259 86.0766 352.892 87.8796C352.826 88.2136 352.926 88.4807 353.193 88.681C353.459 88.8814 354.01 88.8982 354.846 88.7311Z"></path>
<path fill="white" d="M323.838 92.5878C323.403 92.5878 323.052 92.5043 322.785 92.3374C322.551 92.1703 322.25 91.9367 321.883 91.6362C321.248 90.9683 320.797 90.334 320.53 89.733C320.264 89.0985 320.179 88.4975 320.279 87.9299C320.38 87.6626 320.414 87.4122 320.38 87.1787C320.38 86.9114 320.38 86.778 320.38 86.778C320.213 86.6109 320.163 86.5107 320.229 86.4775C320.295 86.4105 320.364 86.3104 320.43 86.1769C320.63 86.1769 320.696 85.9932 320.63 85.626C320.564 85.3587 320.696 84.7746 321.031 83.873C321.366 82.9715 321.783 82.1201 322.284 81.3187C322.485 80.9847 322.785 80.5506 323.186 80.0165C323.587 79.4487 324.022 78.8978 324.489 78.3637C324.99 77.7959 325.441 77.3451 325.842 77.0114C326.678 76.3102 327.412 75.7925 328.048 75.4587C328.683 75.1248 329.367 74.8743 330.102 74.7075C330.838 74.5404 331.339 74.457 331.606 74.457C331.907 74.457 332.307 74.7241 332.809 75.2584C333.576 75.5921 334.128 75.9928 334.462 76.4604C334.829 76.9278 335.064 77.6124 335.164 78.5139C335.264 79.5156 335.18 80.6676 334.914 81.9698C334.679 83.2385 333.895 84.8246 332.558 86.7279C331.722 87.9299 330.954 88.8315 330.253 89.4325C329.551 90 328.715 90.5676 327.747 91.1354C327.045 91.6028 326.41 91.9533 325.842 92.1872C325.275 92.3875 324.605 92.5209 323.838 92.5878ZM328.649 87.2788C329.451 86.3773 330.086 85.5258 330.553 84.7245C331.055 83.9231 331.522 82.9046 331.957 81.6693C332.091 81.3018 332.173 80.8511 332.207 80.317C332.241 79.7492 332.223 79.2317 332.157 78.7643C332.123 78.2635 332.007 77.9796 331.806 77.9129C331.405 77.6791 330.92 77.6124 330.353 77.7126C329.786 77.7793 329.166 78.0964 328.499 78.6642C327.462 79.5322 326.56 80.6175 325.792 81.9197C325.025 83.1885 324.273 84.6409 323.537 86.2771C323.036 87.4792 322.92 88.4474 323.186 89.182C323.487 89.8832 324.104 90.1337 325.041 89.9333C326.009 89.6995 327.211 88.8146 328.649 87.2788Z"></path>
<path fill="white" d="M308.297 95.8438C307.195 95.677 306.443 95.2597 306.042 94.5917C305.675 93.9574 305.591 92.9724 305.792 91.6367C305.992 91.0024 306.11 90.4346 306.142 89.9338C306.211 89.3997 306.361 89.0657 306.593 88.9321C306.593 88.9321 306.612 88.882 306.644 88.7818C306.712 88.6817 306.694 88.5815 306.593 88.4813C306.593 88.0474 306.744 87.4464 307.044 86.6783C307.113 86.4779 307.195 86.2443 307.295 85.9771C307.429 85.6766 307.496 85.5263 307.496 85.5263C307.329 85.2593 307.329 85.0423 307.496 84.8752C307.664 84.7083 307.83 84.5581 307.997 84.4244C308.197 84.2576 308.215 84.0738 308.047 83.8735C307.981 83.7401 308.065 83.4396 308.297 82.972C308.532 82.4711 308.799 81.9536 309.099 81.4193C309.4 80.8852 309.6 80.4677 309.701 80.1672C309.701 80.1005 309.785 79.8667 309.951 79.466C310.12 79.0653 310.32 78.5979 310.553 78.0636C310.787 77.5295 311.004 77.0453 311.204 76.6112C311.439 76.1772 311.589 75.8933 311.655 75.7597C311.99 75.5928 311.856 75.476 311.254 75.4091C310.653 75.3424 310.02 75.3258 309.35 75.359C308.316 75.3258 307.48 75.2757 306.844 75.2088C306.243 75.1421 305.741 74.9918 305.34 74.758C304.94 74.2906 304.789 73.9567 304.889 73.7563C305.024 73.5227 305.425 73.3891 306.092 73.3556C306.527 73.3224 306.862 73.3055 307.095 73.3055C307.363 73.3055 307.696 73.2889 308.097 73.2555C308.532 73.1888 309.199 73.1052 310.102 73.005L312.657 72.8047L312.808 71.9532C313.077 71.5193 313.293 71.1353 313.459 70.8013C313.66 70.4341 313.828 70.0669 313.961 69.6994C314.095 69.3322 314.195 68.9481 314.261 68.5475C314.261 68.5475 314.412 68.2804 314.712 67.7461C315.013 67.1785 315.198 66.5941 315.264 65.9931C315.665 65.3254 316.015 64.7244 316.316 64.1901C316.617 63.6225 316.801 63.2719 316.867 63.1383C317.236 62.8378 317.487 62.6875 317.619 62.6875C317.788 62.6875 318.12 62.8546 318.621 63.1883C318.922 63.3555 319.191 63.5558 319.423 63.7894C319.658 64.0232 319.808 64.2736 319.874 64.5406C319.943 64.7745 319.842 65.0083 319.574 65.2418C319.508 65.3755 319.407 65.6259 319.273 65.9931C319.141 66.3271 319.041 66.611 318.972 66.8446C318.772 67.0784 318.521 67.4624 318.22 67.9965C317.954 68.4974 317.769 69.0151 317.669 69.5492C317.403 70.1169 317.152 70.6344 316.917 71.1018C316.685 71.5359 316.501 71.7529 316.366 71.7529C316.434 72.0869 316.635 72.2538 316.968 72.2538C317.302 72.2205 317.854 72.187 318.621 72.1536C319.257 72.0869 319.692 72.0202 319.924 71.9532C320.193 71.8531 320.494 71.8865 320.827 72.0534C320.995 72.2872 321.127 72.5543 321.227 72.8548C321.328 73.1553 321.346 73.4392 321.278 73.7062C321.246 73.94 321.111 74.1069 320.877 74.2071C320.71 74.2071 320.36 74.3072 319.824 74.5076C319.323 74.6747 318.69 74.7749 317.92 74.8081L315.264 75.0585L314.412 76.7614C314.179 77.1956 313.979 77.5962 313.81 77.9635C313.644 78.2974 313.528 78.4978 313.459 78.5645C313.459 78.7648 313.343 79.0653 313.109 79.466C312.908 79.8667 312.692 80.3008 312.457 80.7682C312.257 81.336 312.024 81.8535 311.755 82.3209C311.523 82.7885 311.405 83.0221 311.405 83.0221C311.272 83.0221 311.204 83.1222 311.204 83.3226C311.373 83.7232 311.323 84.0238 311.054 84.2241C310.887 84.3243 310.737 84.4745 310.603 84.6749C310.502 84.842 310.452 84.9253 310.452 84.9253C310.587 85.0589 310.603 85.2258 310.502 85.4261C310.436 85.6265 310.336 85.8437 310.202 86.0772C310.202 86.3445 310.12 86.7284 309.951 87.2292C309.819 87.7301 309.669 88.1977 309.5 88.6316C309.534 89.2326 309.568 89.6167 309.6 89.7835C309.635 89.9506 309.719 90.0173 309.851 89.9839C310.02 90.0173 310.17 90.0173 310.302 89.9839C310.436 89.9506 310.571 89.9338 310.703 89.9338C311.172 89.7335 310.922 90.9023 309.951 93.4398C309.418 94.2746 309.049 94.8756 308.849 95.2428C308.648 95.6435 308.466 95.8438 308.297 95.8438Z"></path>
<path fill="white" d="M288.748 90.7877C288.113 90.2199 287.63 89.6357 287.295 89.0347C286.994 88.4337 286.759 87.4821 286.593 86.1799C286.527 85.5788 286.593 84.7941 286.794 83.8259C286.994 82.8242 287.279 81.7724 287.646 80.6705C288.012 79.5686 288.431 78.5669 288.898 77.6654C289.365 76.7304 289.835 76.0292 290.302 75.5618C290.703 75.061 291.019 74.7937 291.254 74.7605C291.52 74.6935 291.99 74.8105 292.657 75.1111C293.024 75.545 293.209 76.0126 293.209 76.5134C293.209 77.0143 293.008 77.5818 292.607 78.2163C291.94 79.1179 291.354 80.253 290.853 81.6221C290.386 82.9576 290.067 84.1596 289.901 85.2282C289.566 86.3634 289.416 87.1315 289.45 87.5322C289.484 87.9328 289.785 88.1999 290.352 88.3335C290.987 88.4669 291.739 88.2333 292.607 87.6323C293.475 86.9978 294.327 86.1298 295.163 85.0279C295.999 83.8926 296.667 82.6571 297.168 81.3216C297.368 80.854 297.519 80.3031 297.619 79.6688C297.753 79.0343 297.885 78.5669 298.02 78.2664C298.186 77.5985 298.421 77.1145 298.721 76.8139C299.022 76.48 299.339 76.2962 299.674 76.263C300.008 76.1961 300.291 76.263 300.526 76.4634C300.826 76.5968 301.011 76.7639 301.077 76.9642C301.143 77.1311 301.143 77.5985 301.077 78.3666C301.077 79.6019 300.81 80.6537 300.275 81.5219C299.74 82.39 299.289 83.3082 298.922 84.2766C298.621 84.9778 298.17 85.7623 297.569 86.6306C297.001 87.4987 296.366 88.2834 295.664 88.9846C294.997 89.6858 294.345 90.1698 293.71 90.4371C292.773 91.0381 291.94 91.3386 291.204 91.3386C290.502 91.3052 289.684 91.1214 288.748 90.7877Z"></path>
<path fill="white" d="M278.212 92.7378C277.877 92.7378 277.527 92.5543 277.16 92.1869C276.825 91.8196 276.524 91.3689 276.258 90.8346C276.023 90.267 275.907 89.7327 275.907 89.2318C275.907 88.731 276.023 87.7962 276.258 86.4271C276.524 85.0582 276.841 83.6724 277.21 82.27C277.477 81.4019 277.561 80.9011 277.461 80.7675C277.36 80.6341 276.909 80.8175 276.107 81.3184C275.638 81.5522 275.221 81.8026 274.855 82.0697C274.485 82.3035 274.169 82.5705 273.902 82.871C273.734 83.0047 273.483 83.2216 273.151 83.5221C272.816 83.8227 272.465 84.1065 272.098 84.3736C271.663 84.7076 271.112 85.175 270.444 85.776C269.775 86.377 269.107 86.978 268.44 87.579C267.804 88.1801 267.319 88.6477 266.986 88.9814C266.918 89.1151 266.818 89.2318 266.686 89.332C266.551 89.4322 266.401 89.4991 266.234 89.5324C266.066 89.5324 265.884 89.4991 265.683 89.4322C265.314 89.332 264.963 89.1151 264.631 88.7811C264.33 88.4473 264.18 88.0633 264.18 87.6291C264.18 87.2954 264.312 86.7276 264.581 85.9262C264.847 85.0916 265.198 84.0899 265.633 82.9211C266.1 81.7525 266.635 80.517 267.237 79.2148C267.337 79.048 267.419 78.8476 267.487 78.6138C267.553 78.3468 267.604 78.0629 267.638 77.7624C267.704 77.4618 267.738 77.1782 267.738 76.9109C267.738 76.744 267.754 76.5772 267.788 76.4101C267.854 76.2097 267.92 76.0262 267.989 75.8591C268.089 75.6588 268.171 75.5254 268.239 75.4584C268.371 75.1914 268.606 75.1247 268.941 75.2581C269.273 75.3583 269.558 75.5921 269.793 75.9593C270.294 76.4269 270.544 77.0111 270.544 77.7123C270.576 78.4135 270.41 79.2818 270.043 80.3167C269.909 80.5505 269.793 80.7843 269.693 81.0179C269.624 81.2182 269.558 81.402 269.492 81.5688C269.424 81.7025 269.374 81.8192 269.342 81.9194C269.308 81.9864 269.292 82.0196 269.292 82.0196C269.424 82.0196 269.724 81.8693 270.194 81.5688C270.661 81.2683 271.212 80.9346 271.848 80.5671C272.349 80.1999 272.782 79.8659 273.151 79.5654C273.551 79.2317 273.884 78.9812 274.153 78.8141C274.419 78.6138 274.586 78.5136 274.654 78.5136C274.786 78.5136 274.955 78.4635 275.155 78.3634C275.356 78.2632 275.522 78.1464 275.656 78.0128C275.789 77.8794 275.889 77.8124 275.957 77.8124C276.057 77.7792 276.107 77.7624 276.107 77.7624C276.107 77.7624 276.173 77.7624 276.308 77.7624C276.44 77.7291 276.574 77.6456 276.709 77.5119C276.975 77.3116 277.326 77.2615 277.761 77.3617C278.194 77.4286 278.595 77.5955 278.964 77.8625C279.331 78.1298 279.515 78.4303 279.515 78.7641C279.515 78.8977 279.547 79.0145 279.616 79.1147C279.716 79.1816 279.766 79.2148 279.766 79.2148C280.032 79.2148 280.199 79.6324 280.267 80.467C280.367 81.3018 280.283 82.1031 280.017 82.871C280.017 83.3719 279.916 83.9729 279.716 84.6741C279.547 85.3753 279.397 86.0432 279.265 86.6775C278.996 87.5123 278.814 88.247 278.713 88.8812C278.613 89.5157 278.595 90.0501 278.663 90.484C278.729 90.9181 278.846 91.2687 279.014 91.5358C279.146 91.7696 279.146 92.0366 279.014 92.3371C278.88 92.6044 278.613 92.7378 278.212 92.7378Z"></path>
<path fill="white" d="M241.782 104.56C241.649 104.56 241.481 104.56 241.28 104.56C241.08 104.593 240.898 104.46 240.729 104.159C240.597 103.992 240.513 103.742 240.479 103.408C240.479 103.074 240.563 102.473 240.729 101.605C240.898 101.037 241.03 100.47 241.13 99.9021C241.23 99.3678 241.28 98.9671 241.28 98.7C241.28 98.5664 241.315 98.2994 241.381 97.8987C241.481 97.5315 241.531 97.2642 241.531 97.0973C241.7 96.8303 241.832 96.4628 241.932 95.9955C242.032 95.5281 242.082 95.1105 242.082 94.7433C242.082 94.3426 242.283 93.9754 242.684 93.6415C242.684 93.3744 242.734 93.0404 242.834 92.6398C242.968 92.2391 243.034 91.972 243.034 91.8384C243.135 91.371 243.353 90.5528 243.686 89.3842C244.055 88.1822 244.488 86.8299 244.989 85.3273C245.524 83.8248 246.041 82.3557 246.543 80.9198C247.044 79.484 247.495 78.2653 247.896 77.2636C248.297 76.3286 248.565 75.5273 248.698 74.8595C248.866 74.1583 248.948 73.6409 248.948 73.3069C248.948 73.1733 248.982 73.0731 249.048 73.0064C249.117 72.9062 249.267 72.7225 249.499 72.4555C249.834 72.1215 250.119 72.0213 250.351 72.1549C250.62 72.2886 250.937 72.4889 251.304 72.756C251.573 73.1901 251.755 73.5573 251.855 73.8578C251.989 74.1583 251.989 74.6758 251.855 75.4105C251.855 75.9113 251.773 76.3455 251.604 76.7127C251.438 77.0799 251.288 77.3638 251.153 77.5641C251.021 77.731 250.987 77.7979 251.053 77.7645C252.424 77.13 253.627 76.7962 254.662 76.7628C255.732 76.6961 256.616 76.8796 257.318 77.3137C258.053 77.7144 258.605 78.2819 258.972 79.0166C259.341 79.7513 259.523 80.6027 259.523 81.5709C259.523 81.9716 259.441 82.4559 259.272 83.0234C259.106 83.5577 258.89 84.0586 258.621 84.526C258.388 84.9601 258.17 85.2772 257.969 85.4776C257.837 85.4776 257.703 85.5944 257.568 85.8282C257.436 86.0285 257.302 86.2623 257.167 86.5294C256.901 86.8633 256.466 87.2472 255.864 87.6813C255.297 88.082 254.73 88.416 254.16 88.683C253.593 88.9168 253.176 88.9835 252.907 88.8834C252.907 88.8834 252.857 88.9 252.757 88.9334C252.691 88.9334 252.657 89.017 252.657 89.1839C252.657 89.2506 252.39 89.4008 251.855 89.6346C251.322 89.835 250.702 90.0353 250.001 90.2357C249.299 90.4025 248.682 90.4861 248.146 90.4861C247.445 90.4861 246.944 90.3525 246.643 90.0854C246.577 90.1521 246.493 90.2523 246.392 90.3859C246.326 90.5196 246.292 90.6363 246.292 90.7365C246.292 90.9369 246.21 91.3209 246.041 91.8885C245.909 92.4228 245.741 92.9403 245.54 93.4411C245.34 93.942 245.158 94.1924 244.989 94.1924C244.989 94.1924 244.957 94.2425 244.889 94.3426C244.823 94.4428 244.857 94.5765 244.989 94.7433C244.989 94.7433 244.973 94.927 244.939 95.2943C244.939 95.6949 244.857 96.0289 244.688 96.296C244.688 96.563 244.638 96.9637 244.538 97.498C244.438 98.0323 244.322 98.433 244.187 98.7C244.187 99.1007 244.121 99.4848 243.987 99.852C243.886 100.253 243.77 100.453 243.636 100.453C243.504 100.486 243.419 100.687 243.385 101.054C243.353 101.455 243.335 101.739 243.335 101.905C243.303 102.74 243.135 103.391 242.834 103.859C242.533 104.326 242.182 104.56 241.782 104.56ZM247.846 87.8316C248.114 87.8316 248.666 87.7148 249.499 87.481C250.336 87.2472 251.188 86.9635 252.055 86.6295C252.958 86.2623 253.627 85.8949 254.06 85.5277C254.93 84.7598 255.598 83.8915 256.065 82.9232C256.566 81.9215 256.534 80.9699 255.965 80.0684C255.698 79.601 255.213 79.4173 254.511 79.5175C253.81 79.5842 253.042 79.8514 252.206 80.3188C251.372 80.7862 250.586 81.3706 249.85 82.0718C249.449 82.5059 249.083 83.04 248.748 83.6745C248.415 84.309 248.13 84.9433 247.896 85.5778C247.695 86.2122 247.579 86.7463 247.545 87.1805C247.513 87.6146 247.613 87.8316 247.846 87.8316Z"></path>
<path fill="white" d="M232.25 93.4916C230.781 93.4916 229.578 92.9406 228.642 91.8388C227.706 90.7034 227.255 89.301 227.289 87.6316C227.356 86.4296 227.59 85.144 227.99 83.7751C228.425 82.3727 228.992 81.037 229.694 79.7683C230.396 78.466 231.166 77.3307 231.999 76.3625C232.835 75.394 233.703 74.7094 234.605 74.3088C234.94 74.1419 235.291 74.0085 235.658 73.9083C236.059 73.8079 236.46 73.7578 236.861 73.7578C237.23 73.7578 237.612 73.8247 238.013 73.9582C238.414 74.0583 238.749 74.1753 239.016 74.3088C239.585 74.5426 240.018 74.8264 240.319 75.1604C240.619 75.4942 240.888 76.0116 241.121 76.7128C241.221 77.3473 241.271 77.7981 241.271 78.0654C241.271 78.3324 241.189 78.7331 241.02 79.2674C240.619 80.4694 240.102 81.5044 239.467 82.3725C238.833 83.2407 237.981 83.9754 236.911 84.5764C236.644 84.7433 236.328 84.8769 235.959 84.9771C235.626 85.0438 235.275 85.077 234.906 85.077C234.239 85.077 233.587 84.9603 232.952 84.7267C232.35 84.4594 231.867 84.0753 231.498 83.5745L231.147 83.174L230.997 83.5745C230.664 84.476 230.396 85.3109 230.195 86.0787C230.029 86.8469 229.945 87.5481 229.945 88.1823C229.945 88.583 229.979 88.9671 230.045 89.3345C230.145 89.7017 230.279 90.0189 230.446 90.2859C230.58 90.4862 230.797 90.6367 231.097 90.7369C231.432 90.8036 231.783 90.8371 232.15 90.8371C232.384 90.8371 232.619 90.8371 232.851 90.8371C233.12 90.8036 233.371 90.7369 233.603 90.6367C234.173 90.4364 234.624 90.2192 234.956 89.9854C235.325 89.7518 235.692 89.5014 236.059 89.2341L236.259 89.1342H236.209C236.61 88.9338 236.961 88.7335 237.262 88.5332C237.596 88.3328 237.763 88.2326 237.763 88.2326C237.897 88.2326 238.032 88.1491 238.164 87.9822C238.432 87.8486 238.765 87.8987 239.166 88.1325C239.601 88.3661 239.818 88.6666 239.818 89.034C239.786 89.2009 239.635 89.4679 239.366 89.8351C239.1 90.1691 238.799 90.4865 238.464 90.787C238.164 91.0875 237.913 91.2544 237.713 91.2876C237.681 91.3211 237.562 91.388 237.362 91.4882C237.161 91.5549 237.029 91.6216 236.961 91.6885H237.011C236.71 92.0892 236.41 92.2895 236.109 92.2895H235.708C235.576 92.5231 235.141 92.7902 234.405 93.0907C233.671 93.3579 232.952 93.4916 232.25 93.4916ZM234.505 82.4729C235.107 82.4729 235.626 82.3057 236.059 81.972C236.528 81.6046 236.929 81.2039 237.262 80.7697C237.931 79.8682 238.314 79.0001 238.414 78.1655C238.549 77.2972 238.448 76.6962 238.114 76.3625C237.913 76.2623 237.731 76.2122 237.562 76.2122C237.43 76.1787 237.145 76.2288 236.71 76.3625C236.41 76.4292 235.993 76.6796 235.457 77.1137C234.924 77.5477 234.389 78.0319 233.854 78.566C233.352 79.1003 232.97 79.5511 232.701 79.9185L232.049 80.9703C232.318 80.8701 232.569 80.82 232.801 80.82C233.07 80.7866 233.22 80.8032 233.252 80.8699C233.252 81.1704 233.302 81.4543 233.403 81.7216C233.537 81.9552 233.687 82.1389 233.854 82.2725C234.054 82.4059 234.273 82.4729 234.505 82.4729Z"></path>
<path fill="white" d="M219.02 93.7905C218.585 93.6234 218.268 93.3729 218.068 93.0392C217.867 92.6717 217.75 92.1543 217.717 91.4865C217.717 91.0859 217.784 90.5516 217.917 89.8838C218.051 89.2159 218.201 88.448 218.368 87.5799C218.368 87.513 218.368 87.4463 218.368 87.3796C218.402 87.2794 218.418 87.2125 218.418 87.1792C218.452 87.0456 218.485 86.8453 218.519 86.5782C218.585 86.3109 218.636 86.1106 218.669 85.9772C218.702 85.8101 218.719 85.8101 218.719 85.9772L219.07 84.6249C219.237 84.0239 219.404 83.4228 219.571 82.8218C219.738 82.2208 219.888 81.7031 220.022 81.2692C220.156 80.8016 220.239 80.5345 220.273 80.4678C220.273 80.4678 220.339 80.2841 220.473 79.9169C220.607 79.5162 220.74 79.1322 220.874 78.7649C221.442 77.1955 221.96 75.8766 222.428 74.8082C222.895 73.7063 223.313 72.905 223.681 72.4041C223.714 72.304 223.764 72.1869 223.831 72.0535C223.898 71.8864 223.948 71.753 223.981 71.6528C224.015 71.3856 224.048 71.1852 224.082 71.0518C224.148 70.8847 224.232 70.7345 224.332 70.6011C224.399 70.4674 224.499 70.3006 224.633 70.1002C224.766 69.8664 224.917 69.5825 225.084 69.2488L225.284 68.6978C225.485 68.2637 225.735 67.7794 226.036 67.2454C226.337 66.711 226.554 66.327 226.688 66.0934C226.821 65.7929 227.022 65.4423 227.289 65.0416C227.556 64.6075 227.757 64.3236 227.89 64.1902L227.84 64.1401C228.008 63.8396 228.209 63.6725 228.441 63.6392C228.71 63.5723 228.992 63.5391 229.293 63.5391C229.762 63.5391 230.029 63.6058 230.095 63.7394C230.163 63.8728 230.195 64.1733 230.195 64.6409C230.195 65.1418 230.179 65.509 230.145 65.7428C230.145 65.9431 230.013 66.1767 229.744 66.444H229.794C229.863 66.3771 229.844 66.4606 229.744 66.6944C229.644 66.8948 229.562 67.045 229.493 67.1452C229.427 67.3121 229.343 67.4958 229.243 67.6961C229.177 67.8965 229.093 68.0467 228.992 68.1469C228.892 68.2803 228.642 68.7311 228.241 69.4992C227.874 70.2336 227.439 71.1019 226.938 72.1036C226.47 73.1053 226.019 74.0736 225.585 75.0086C225.151 75.9433 224.833 76.6614 224.633 77.1622L224.382 77.9135C224.315 78.0469 224.282 78.1471 224.282 78.214C224.182 78.4476 224.082 78.6814 223.981 78.9152C223.881 79.1488 223.781 79.3491 223.681 79.5162L222.829 82.4211L222.578 83.4729L222.127 84.5748L221.826 85.5264C221.759 85.7268 221.709 85.9103 221.676 86.0774C221.643 86.2442 221.576 86.3779 221.476 86.478C221.476 86.5113 221.459 86.5614 221.425 86.6283C221.425 86.6615 221.425 86.695 221.425 86.7285C221.292 87.2625 221.141 88.0138 220.974 88.9823C220.807 89.9505 220.69 90.9688 220.624 92.0375C220.624 92.0707 220.607 92.1042 220.573 92.1376C220.573 92.1709 220.573 92.2044 220.573 92.2378C220.473 92.939 220.306 93.4064 220.072 93.6402C219.838 93.8738 219.488 93.9239 219.02 93.7905Z"></path>
<path fill="white" d="M201.017 92.2396C200.683 92.0058 200.432 91.7889 200.266 91.5885C200.098 91.3882 200.032 91.1043 200.065 90.7371C200.132 90.2362 200.232 89.7185 200.366 89.1845C200.499 88.6167 200.666 88.0657 200.867 87.5317C200.967 86.9306 201.084 86.3296 201.218 85.7286C201.385 85.1276 201.652 84.5598 202.02 84.0257C202.454 82.7902 202.905 81.5715 203.373 80.3695C203.84 79.134 204.241 77.8484 204.576 76.5129C205.077 75.3109 205.528 74.2423 205.929 73.3075C206.363 72.3725 206.881 71.1704 207.482 69.7014C207.816 68.9332 208.1 68.0818 208.334 67.147C208.601 66.1785 209.002 65.3271 209.537 64.5927C209.771 64.2922 209.938 64.0417 210.038 63.8414C210.172 63.6076 210.305 63.3906 210.439 63.1903C210.506 62.99 210.723 62.923 211.091 62.9899C211.492 63.0567 211.775 63.2069 211.943 63.4407C212.11 63.4072 212.31 63.6242 212.544 64.0918C212.778 64.5592 212.861 64.9264 212.795 65.1937C212.795 65.5609 212.661 65.9616 212.394 66.3957C212.26 66.5291 212.126 66.7295 211.993 66.9968C211.859 67.2303 211.659 67.5477 211.391 67.9484C211.258 68.3823 211.124 68.8164 210.99 69.2506C210.857 69.6845 210.706 70.0852 210.539 70.4526C210.372 70.8198 210.189 71.1871 209.988 71.5545C209.788 71.9217 209.654 72.2222 209.587 72.456C209.286 73.2239 208.952 73.9752 208.585 74.7099C208.251 75.4111 207.95 76.1623 207.683 76.9637C207.415 77.7316 207.131 78.5496 206.831 79.4179C206.563 80.2525 206.196 81.0538 205.728 81.8219C205.494 82.1557 205.31 82.6065 205.177 83.1742C205.043 83.7418 204.909 84.2927 204.776 84.8271C204.542 85.4281 204.325 85.979 204.124 86.4799C203.957 86.9807 203.874 87.2978 203.874 87.4315C203.64 88.1659 203.456 88.9006 203.323 89.6352C203.189 90.3364 202.972 90.9541 202.671 91.4884C202.638 91.9892 202.487 92.323 202.22 92.4901C201.986 92.6569 201.585 92.5736 201.017 92.2396ZM212.995 93.041C212.46 92.9741 212.06 92.8739 211.792 92.7405C211.525 92.5734 211.024 92.2228 210.289 91.6887C209.888 91.288 209.337 90.6702 208.635 89.8356C207.933 89.0007 207.232 88.1158 206.53 87.1811C205.828 86.2128 205.244 85.3946 204.776 84.7269L206.831 81.9722C207.265 82.5065 207.616 83.0071 207.883 83.4748C208.15 83.9421 208.368 84.2593 208.535 84.4264C209.303 85.5615 209.905 86.4799 210.339 87.1811C210.807 87.8822 211.224 88.4498 211.592 88.8839C211.959 89.3179 212.344 89.7019 212.745 90.0359C213.179 90.3697 213.713 90.7202 214.348 91.0877C214.449 91.1544 214.549 91.2546 214.649 91.3882C214.749 91.5216 214.782 91.7219 214.749 91.9892C214.615 92.3564 214.465 92.5902 214.298 92.6904C214.164 92.7571 213.73 92.8739 212.995 93.041ZM204.626 84.1759C204.425 83.6082 204.492 83.0406 204.826 82.4731C205.194 81.872 205.594 81.4547 206.029 81.2209C206.162 80.9871 206.296 80.8369 206.43 80.7702C206.597 80.67 206.697 80.553 206.731 80.4196C206.797 80.2859 206.964 80.1022 207.232 79.8686C207.532 79.6348 207.8 79.4179 208.034 79.2175C208.568 78.8835 209.169 78.4829 209.838 78.0155C210.539 77.5146 211.208 77.0138 211.842 76.5129C212.477 76.0121 213.012 75.5779 213.446 75.2107C213.914 74.8433 214.198 74.6097 214.298 74.5095C214.398 74.3759 214.532 74.2923 214.699 74.2591C214.9 74.1922 215.15 74.2256 215.451 74.3593C215.852 74.4594 216.119 74.6263 216.253 74.8601C216.386 75.0605 216.453 75.4611 216.453 76.0622C216.553 76.4294 216.403 76.8301 216.002 77.2642C215.634 77.6649 215.067 78.1157 214.298 78.6165C214.031 78.7834 213.663 79.0338 213.196 79.3678C212.761 79.7015 212.377 80.0189 212.043 80.3194C211.809 80.4528 211.458 80.6866 210.99 81.0206C210.556 81.3211 210.172 81.6216 209.838 81.9221C209.57 82.089 209.22 82.3895 208.785 82.8237C208.351 83.2243 207.916 83.5248 207.482 83.7252C206.413 84.7269 205.711 85.261 205.377 85.3279C205.043 85.3946 204.793 85.0105 204.626 84.1759Z"></path>
<path fill="white" d="M186.457 92.5878C186.023 92.5878 185.672 92.5043 185.405 92.3374C185.171 92.1703 184.87 91.9367 184.503 91.6362C183.868 90.9683 183.417 90.334 183.15 89.733C182.882 89.0985 182.799 88.4975 182.899 87.9299C182.999 87.6626 183.033 87.4122 182.999 87.1787C182.999 86.9114 182.999 86.778 182.999 86.778C182.832 86.6109 182.782 86.5107 182.849 86.4775C182.916 86.4105 182.983 86.3104 183.05 86.1769C183.25 86.1769 183.317 85.9932 183.25 85.626C183.183 85.3587 183.317 84.7746 183.651 83.873C183.985 82.9715 184.403 82.1201 184.904 81.3187C185.104 80.9847 185.405 80.5506 185.806 80.0165C186.207 79.4487 186.641 78.8978 187.109 78.3637C187.61 77.7959 188.061 77.3451 188.462 77.0114C189.297 76.3102 190.032 75.7925 190.667 75.4587C191.302 75.1248 191.987 74.8743 192.722 74.7075C193.457 74.5404 193.958 74.457 194.226 74.457C194.526 74.457 194.927 74.7241 195.428 75.2584C196.197 75.5921 196.748 75.9928 197.082 76.4604C197.45 76.9278 197.684 77.6124 197.784 78.5139C197.884 79.5156 197.8 80.6676 197.533 81.9698C197.299 83.2385 196.514 84.8246 195.178 86.7279C194.342 87.9299 193.574 88.8315 192.872 89.4325C192.171 90 191.335 90.5676 190.367 91.1354C189.665 91.6028 189.03 91.9533 188.462 92.1872C187.894 92.3875 187.226 92.5209 186.457 92.5878ZM191.269 87.2788C192.07 86.3773 192.705 85.5258 193.173 84.7245C193.674 83.9231 194.142 82.9046 194.576 81.6693C194.71 81.3018 194.793 80.8511 194.827 80.317C194.86 79.7492 194.844 79.2317 194.777 78.7643C194.743 78.2635 194.626 77.9796 194.426 77.9129C194.025 77.6791 193.541 77.6124 192.973 77.7126C192.404 77.7793 191.786 78.0964 191.118 78.6642C190.082 79.5322 189.18 80.6175 188.412 81.9197C187.643 83.1885 186.892 84.6409 186.157 86.2771C185.656 87.4792 185.538 88.4474 185.806 89.182C186.107 89.8832 186.725 90.1337 187.66 89.9333C188.629 89.6995 189.832 88.8146 191.269 87.2788Z"></path>
<path fill="white" d="M165.893 91.5893C165.592 91.3555 165.375 91.1219 165.241 90.8881C165.141 90.6543 165.141 90.2035 165.241 89.5358C165.341 88.6008 165.475 87.7828 165.642 87.0816C165.809 86.347 166.01 85.5124 166.244 84.5774C166.31 84.1767 166.494 83.4921 166.795 82.5239C167.129 81.5557 167.53 80.5039 167.998 79.3685C168.465 78.2332 168.933 77.1648 169.401 76.1631C169.869 75.1279 170.269 74.36 170.604 73.8592C170.871 73.6588 171.188 73.5753 171.556 73.6087C171.957 73.6422 172.291 73.7925 172.558 74.0595C172.926 74.36 172.976 74.8943 172.709 75.6622C172.475 76.3969 171.973 77.5655 171.205 79.1682C170.804 80.0697 170.503 80.7543 170.303 81.2217C170.103 81.6558 170.019 81.9229 170.052 82.023C170.086 82.0897 170.236 82.0397 170.503 81.8728C170.704 81.5056 171.071 81.088 171.606 80.6207C172.141 80.1198 172.709 79.6356 173.31 79.1682C173.911 78.7008 174.479 78.2833 175.014 77.9161C175.549 77.5488 175.916 77.315 176.116 77.2149C176.384 77.048 176.684 76.9144 177.019 76.8142C177.386 76.6806 177.637 76.5804 177.77 76.5137C178.539 76.1465 179.324 76.0128 180.126 76.113C180.928 76.2132 181.429 76.5137 181.629 77.0145C181.663 77.2816 181.763 77.4819 181.93 77.6155C182.13 77.7492 182.231 77.8159 182.231 77.8159C182.364 77.8159 182.431 77.866 182.431 77.9661C182.465 78.0663 182.481 78.1164 182.481 78.1164C182.481 78.3502 182.297 78.5005 181.93 78.5672C181.596 78.6006 181.162 78.6339 180.627 78.6673C180.193 78.7008 179.808 78.7841 179.474 78.9178C179.14 79.0514 178.739 79.2183 178.271 79.4186C177.002 80.1533 175.782 80.8711 174.613 81.5723C173.477 82.2735 172.374 83.2085 171.305 84.377C171.071 84.6441 170.838 84.9614 170.604 85.3287C170.37 85.6959 170.119 86.0965 169.852 86.5307C169.685 86.6976 169.518 87.065 169.351 87.6326C169.184 88.2001 169.033 88.7511 168.9 89.2854C168.799 89.7862 168.749 90.0867 168.749 90.1869C168.749 90.1869 168.699 90.3538 168.599 90.6878C168.499 90.9883 168.332 91.2888 168.098 91.5893C167.697 92.1236 167.363 92.3907 167.095 92.3907C166.828 92.3907 166.427 92.1236 165.893 91.5893Z"></path>
<path fill="white" d="M142.192 95.7433C141.791 95.7433 141.457 95.5261 141.19 95.0922C140.989 94.8919 140.856 94.608 140.789 94.2408C140.755 93.9068 140.872 93.2892 141.14 92.3876C141.407 91.4526 141.858 90.0336 142.493 88.1304C142.827 86.8614 143.094 85.9433 143.295 85.3757C143.495 84.7747 143.595 84.3405 143.595 84.0735C143.595 83.7061 143.629 83.4055 143.695 83.172C143.796 82.9047 143.846 82.6543 143.846 82.4207C144.046 82.4207 144.247 82.237 144.447 81.8698C144.648 81.5023 144.815 81.0015 144.948 80.3672C145.082 79.7994 145.199 79.3486 145.299 79.0149C145.433 78.6475 145.5 78.397 145.5 78.2636C145.667 77.9964 145.834 77.579 146.001 77.0115C146.201 76.4437 146.502 75.7594 146.903 74.958C147.17 73.9563 147.471 72.9211 147.805 71.8527C148.139 70.7509 148.473 69.7323 148.807 68.7975C149.175 67.8291 149.476 67.0778 149.709 66.5437C150.077 65.5085 150.361 64.7907 150.561 64.39C150.762 63.9559 150.762 63.672 150.561 63.5386C150.328 63.3715 150.278 63.0878 150.411 62.6872C150.545 62.2865 150.912 61.8357 151.514 61.3349C151.881 60.9007 152.199 60.6002 152.466 60.4333C152.733 60.233 153.067 60.1328 153.468 60.1328C153.903 60.1328 154.521 60.166 155.323 60.233C155.924 60.2662 156.559 60.2831 157.227 60.2831C157.929 60.2831 158.363 60.2831 158.53 60.2831C158.831 60.4165 159.198 60.5667 159.633 60.7338C160.067 60.8672 160.451 61.0009 160.785 61.1345C161.153 61.2679 161.337 61.3849 161.337 61.4851C161.337 61.6855 161.404 61.8189 161.537 61.8858C161.704 61.919 161.871 61.9525 162.038 61.986C162.272 61.986 162.589 62.1695 162.99 62.5369C163.391 62.8706 163.809 63.3048 164.243 63.8391C164.678 64.34 165.012 64.874 165.246 65.4418C165.513 66.0094 165.714 66.5437 165.847 67.0446C166.014 67.5454 166.014 68.2632 165.847 69.1982C165.814 69.6991 165.73 70.1999 165.596 70.7008C165.496 71.2016 165.379 71.5354 165.246 71.7025C165.045 71.8359 164.862 72.003 164.694 72.2033C164.527 72.4037 164.444 72.5872 164.444 72.7543C164.444 72.8877 164.327 73.1549 164.093 73.5556C163.859 73.9228 163.559 74.357 163.191 74.8578C162.823 75.3587 162.422 75.8595 161.988 76.3604C161.554 76.8612 161.136 77.2952 160.735 77.6626C160.301 78.1967 159.783 78.6975 159.182 79.1652C158.614 79.6325 158.096 80.0166 157.628 80.3171C156.759 80.7178 155.79 81.1185 154.721 81.5192C153.686 81.9198 152.683 82.2536 151.714 82.5209C150.779 82.7879 149.994 82.9047 149.359 82.8715C148.39 83.0049 147.755 83.1385 147.454 83.2721C147.187 83.3723 146.987 83.656 146.853 84.1236C146.686 84.5575 146.519 85.0083 146.352 85.4759C146.218 85.9098 146.151 86.2103 146.151 86.3774C146.084 86.5108 145.917 86.9283 145.65 87.6295C145.416 88.2973 145.149 89.082 144.848 89.9835C144.581 90.8851 144.314 91.7698 144.046 92.6381C143.779 93.5061 143.579 94.2239 143.445 94.7917C143.311 95.2591 143.144 95.5261 142.944 95.5931C142.743 95.6932 142.493 95.7433 142.192 95.7433ZM148.406 80.2169C148.54 80.3503 149.058 80.3672 149.96 80.267C150.862 80.1669 151.831 79.9164 152.867 79.5158C153.535 79.2819 154.203 78.9981 154.871 78.6643C155.573 78.3303 156.241 77.9631 156.876 77.5624C157.21 77.3286 157.712 76.9113 158.38 76.3103C159.048 75.7093 159.716 74.9912 160.384 74.1566C160.485 73.9895 160.652 73.6724 160.885 73.205C161.153 72.7042 161.387 72.2366 161.587 71.8026C161.888 71.335 162.189 70.6507 162.489 69.7492C162.79 68.8142 162.857 68.0463 162.69 67.4452C162.523 66.5769 162.088 65.7756 161.387 65.0412C160.685 64.273 159.85 63.7556 158.881 63.4885C158.146 63.3549 157.528 63.2882 157.027 63.2882C156.559 63.2882 156.041 63.3383 155.473 63.4384C154.938 63.6053 154.538 63.8391 154.27 64.1396C154.036 64.4401 153.719 65.0744 153.318 66.0429C153.084 66.5102 152.75 67.2281 152.316 68.1965C151.881 69.1313 151.514 70.0162 151.213 70.851C150.612 73.0548 150.01 74.8745 149.409 76.3103C148.841 77.7127 148.49 78.5974 148.356 78.9648C148.39 79.332 148.373 79.5991 148.306 79.7662C148.239 79.8996 148.273 80.0498 148.406 80.2169Z"></path>
</g>
<defs>
<clipPath id="clip0_25302_30448">
<rect fill="white" height="107" width="508"></rect>
</clipPath>
</defs>
</svg>
