<svg xmlns="http://www.w3.org/2000/svg" fill="none" viewBox="0 0 747 232" height="232" width="747">
<path fill="white" d="M523.369 202.906C512.736 202.906 507.158 197.596 507.158 188.209C507.158 169.208 542.88 136.53 571.763 136.53C577.327 136.53 581.632 139.32 581.632 145.139C581.632 161.619 557.066 202.906 523.369 202.906ZM236.844 121.607C241.162 121.607 243.187 124.397 243.187 128.191C243.187 139.844 224.681 154.54 180.11 175.056C180.096 143.893 222.161 121.607 236.844 121.607ZM737.687 188.223C713.872 197.851 671.566 205.44 635.844 205.44C614.309 205.44 604.936 200.131 604.936 186.694C604.936 177.321 618.118 154.526 633.069 144.898C633.579 143.624 633.834 142.109 633.834 139.829C633.834 133.501 628.51 128.942 618.883 128.942C612.809 128.942 605.46 131.221 600.392 135.016C596.342 121.834 584.435 116.015 567.218 116.015C546.943 116.015 524.134 123.873 500.078 142.619C482.352 156.551 477.793 165.159 466.141 174.787C445.625 191.508 425.86 201.391 412.947 201.391C393.946 201.391 384.064 187.968 384.064 166.943C384.064 161.11 386.088 148.707 388.623 143.128C412.975 123.363 434.213 103.853 452.293 85.5174C501.877 84.2148 545.796 82.6149 562.914 81.5672C571.027 81.0575 575.841 77.7727 575.841 71.4438C575.841 65.115 569.767 62.8213 564.684 62.5806C532.048 61.5895 503.434 60.5984 476.278 59.848C484.603 50.4043 491.966 41.4703 498.309 33.1875C504.142 25.5844 508.701 19.0007 508.701 11.6525C508.701 4.30419 501.098 0 493.75 0C473.984 0 444.11 21.3935 410.611 58.3897C369.395 57.4977 317.165 56.0252 306.036 53.1935C296.918 55.7279 291.34 64.3504 291.34 71.6845C291.34 84.6113 303.502 87.6412 316.924 87.6412C337.595 87.6412 361.622 87.3722 386.499 86.9474C371.986 105.339 358.366 125.628 350.112 143.128C309.576 183.154 258.393 203.67 217.616 203.67C202.92 203.67 193.292 200.371 190.007 197.341C250.549 174.277 280.197 152.501 280.197 132.226C280.197 112.461 264.24 103.357 238.387 103.357C193.802 103.357 139.589 140.339 139.589 183.154C139.589 185.179 139.829 188.988 140.084 190.758C125.643 195.571 97.5238 198.616 75.748 198.616C52.1883 198.616 25.5844 194.311 12.4029 187.459C5.0546 189.243 0 195.571 0 201.391C0 218.607 47.8699 223.69 68.6546 223.69C89.4251 223.69 126.676 221.156 149.981 213.298C159.609 225.205 177.845 231.279 205.454 231.279C250.804 231.279 303.742 211.514 348.087 175.296C349.106 204.944 368.603 231.279 400.275 231.279C423.07 231.279 446.12 219.117 470.19 198.092C471.209 216.583 484.886 231.279 512.495 231.279C531.255 231.279 551.262 222.161 565.958 208.98C573.816 224.186 591.302 231.279 622.196 231.279C663.496 231.279 697.179 226.21 724.802 217.602C739.499 213.043 746.337 205.695 746.337 198.092C746.295 193.292 742.246 188.733 737.687 188.223Z" clip-rule="evenodd" fill-rule="evenodd"></path>
</svg>
