<svg xmlns="http://www.w3.org/2000/svg" fill="none" viewBox="0 0 393 171" height="171" width="393">
<path fill="white" d="M0 0L29.7607 0L50.3134 53.8686L50.5655 53.8688L71.2455 0L100.887 0V82.3002H81.2091V16.8323H80.944L57.5011 82.3002H42.495L19.9245 16.8323H19.6725V82.3002H0L0 0ZM337.561 0L353.821 0L392.659 82.3002H370.466L362.778 65.84H328.102L320.663 82.3002H298.975L337.561 0ZM345.128 21.9528L334.284 49.3878H356.098L345.128 21.9528ZM207.809 0L234.542 0L272.497 57.61H272.763V0L292.433 0V82.3002H266.716L227.741 21.6958H227.476V82.3002H207.806L207.809 0ZM146.084 0L162.349 0L201.188 82.3002H178.994L171.305 65.84H136.627L129.187 82.3002H107.497L146.084 0ZM207.809 169.886H234.542L242.353 158.031H207.808L207.809 169.886ZM245.834 152.745L253.956 140.42H232.738L227.741 148.19H227.476V140.42H207.808L207.808 152.745H245.834ZM257.437 135.134L265.558 122.809H244.065L236.137 135.134H257.437ZM269.042 117.523L272.497 112.276H272.763V117.523H292.433V105.197H255.39L247.463 117.523H269.042ZM272.763 122.809V135.134H292.433V122.809H272.763ZM272.763 140.42V152.745H292.433V140.42H272.763ZM272.763 158.031V169.886H292.433V158.031H272.763ZM292.433 99.9113V87.5862H266.716L258.788 99.9113H292.433ZM227.476 135.134V122.809H207.807L207.807 135.134H227.476ZM227.476 117.523V105.197H207.806L207.807 117.523H227.476ZM227.476 99.9113V87.5862H207.806L207.806 99.9113H227.476ZM146.084 169.886H162.349L167.944 158.031H140.525L146.084 169.886ZM170.438 152.745L176.255 140.42H156.655L153.65 147.934L150.679 140.42H132.268L138.047 152.745H170.438ZM178.75 135.134L184.566 122.809H163.698L158.769 135.134H178.75ZM187.061 117.523L192.877 105.197H115.754L121.533 117.523H187.061ZM195.372 99.9113L201.188 87.5862H178.994L173.237 99.9113H195.372ZM134.758 99.9113L129.187 87.5862H107.497L113.275 99.9113H134.758ZM124.011 122.809L129.79 135.134H148.589L143.714 122.809H124.011ZM0 169.886H29.7607L34.2838 158.031H0L0 169.886ZM36.3006 152.745L41.0032 140.42H24.2799L20.031 152.745H36.3006ZM43.02 135.134L47.7225 122.809H30.3517L26.1025 135.134H43.02ZM68.2209 117.523L63.8074 105.197H36.4232L32.174 117.523H68.2209ZM53.1725 122.809L57.9043 135.134H74.5272L70.1137 122.809H53.1725ZM59.9334 140.42L64.6651 152.745H80.8335L76.42 140.42H59.9334ZM66.6945 158.031L71.2455 169.886H100.887V158.031H66.6945ZM100.887 152.745V140.42H81.2091V152.745H100.887ZM100.887 135.134V122.809H81.2091V135.134H100.887ZM100.887 117.523V105.197H81.2091V117.523H100.887ZM100.887 99.9113V87.5862H81.2091V99.9113H100.887ZM61.9146 99.9113L57.5011 87.5862H42.495L38.2456 99.9113H61.9146ZM19.6725 152.745V140.42H0L0 152.745H19.6725ZM19.6725 135.134V122.809H0L0 135.134H19.6725ZM19.6725 117.523V105.197H0L0 117.523H19.6725ZM19.6725 99.9113V87.5862H0L0 99.9113H19.6725ZM337.561 169.886H353.821L359.415 158.031H332.003L337.561 169.886ZM361.91 152.745L367.727 140.42H348.132L345.128 147.934L342.157 140.42H323.746L329.525 152.745H361.91ZM370.221 135.134L376.038 122.809H355.175L350.245 135.134H370.221ZM378.533 117.523L384.35 105.197H307.232L313.011 117.523H378.533ZM386.844 99.9113L392.659 87.5862H370.466L364.708 99.9113H386.844ZM326.233 99.9113L320.663 87.5862H298.975L304.754 99.9113H326.233ZM315.489 122.809L321.268 135.134H340.068L335.197 122.809H315.489ZM153.65 21.9528L142.804 49.3801H164.619L153.65 21.9528Z" clip-rule="evenodd" fill-rule="evenodd"></path>
</svg>
