<svg xmlns="http://www.w3.org/2000/svg" fill="none" viewBox="0 0 579 143" height="143" width="579">
<path fill="white" d="M568.859 9.81314C569.296 9.81314 569.691 9.6707 570.046 9.3888C570.401 9.10702 570.583 8.7334 570.583 8.26469C570.583 7.76445 570.379 7.40341 569.977 7.18495C569.575 6.96648 569.202 6.85557 568.859 6.85557H566.674V9.81314H568.859ZM570.906 16.5263L568.348 11.8778H566.674V16.5263H563.83V4.50915H568.954C569.512 4.50915 570.056 4.57246 570.583 4.69596C571.111 4.8227 571.591 5.0221 572.027 5.304C572.457 5.58901 572.809 5.96899 573.073 6.45664C573.337 6.94106 573.468 7.54586 573.468 8.26469C573.468 9.07849 573.242 9.74983 572.793 10.2819C572.341 10.8139 571.776 11.2064 571.095 11.4598L574.263 16.5263H570.906ZM559.409 10.6586C559.409 11.8778 559.641 13.0368 560.109 14.1324C560.574 15.2312 561.208 16.1938 562.015 17.0172C562.822 17.8499 563.77 18.4991 564.859 18.9709C565.943 19.4364 567.104 19.6739 568.348 19.6739C569.588 19.6739 570.753 19.4364 571.839 18.9709C572.925 18.4991 573.873 17.8499 574.68 17.0172C575.484 16.1938 576.121 15.2312 576.589 14.1324C577.051 13.0368 577.289 11.8778 577.289 10.6586C577.289 9.40786 577.051 8.23304 576.589 7.13746C576.121 6.04177 575.484 5.08865 574.68 4.27173C573.873 3.46106 572.925 2.81825 571.839 2.34954C570.753 1.87771 569.588 1.64342 568.348 1.64342C567.104 1.64342 565.943 1.87771 564.859 2.34954C563.77 2.81825 562.822 3.46106 562.015 4.27173C561.208 5.08865 560.574 6.04177 560.109 7.13746C559.641 8.23304 559.409 9.40786 559.409 10.6586ZM557.732 10.6586C557.732 9.1894 558.015 7.80246 558.574 6.50413C559.13 5.2058 559.892 4.07857 560.853 3.12544C561.814 2.16908 562.941 1.41224 564.228 0.845452C565.516 0.281779 566.888 0 568.348 0C569.808 0 571.18 0.281779 572.467 0.845452C573.754 1.41224 574.881 2.16908 575.845 3.12544C576.803 4.07857 577.566 5.2058 578.121 6.50413C578.683 7.80246 578.963 9.1894 578.963 10.6586C578.963 12.1279 578.683 13.5086 578.121 14.7879C577.566 16.0735 576.803 17.1945 575.845 18.1476C574.881 19.1039 573.754 19.8543 572.467 20.3991C571.18 20.95 569.808 21.2255 568.348 21.2255C566.888 21.2255 565.516 20.95 564.228 20.3991C562.941 19.8543 561.814 19.1039 560.853 18.1476C559.892 17.1945 559.13 16.0735 558.574 14.7879C558.015 13.5086 557.732 12.1279 557.732 10.6586Z"></path>
<path fill="white" d="M231.969 45.2149C231.969 44.0591 231.739 43.1123 231.278 42.3713C230.823 41.6335 230.204 41.0572 229.422 40.6392C228.644 40.2213 227.761 39.9457 226.779 39.8096C225.793 39.6703 224.772 39.6006 223.721 39.6006H218.562V51.1776H223.514C224.612 51.1776 225.667 51.0857 226.672 50.8989C227.683 50.7121 228.587 50.3922 229.391 49.9267C230.191 49.4676 230.823 48.8533 231.278 48.0901C231.739 47.3302 231.969 46.3676 231.969 45.2149ZM243.72 45.1484C243.72 48.011 243.193 50.4271 242.138 52.3904C241.086 54.3536 239.664 55.937 237.88 57.1402C236.091 58.3435 234.028 59.2174 231.692 59.7748C229.356 60.3257 226.929 60.6044 224.408 60.6044H218.562V79.113H206.811V30.0312H224.681C227.338 30.0312 229.824 30.2972 232.141 30.8292C234.452 31.3611 236.471 32.2162 238.188 33.3941C239.906 34.5721 241.259 36.1237 242.241 38.0395C243.227 39.9584 243.72 42.327 243.72 45.1484Z"></path>
<path fill="white" d="M269.36 43.1346L263.172 59.9806H275.41L269.36 43.1346ZM282.418 79.113L278.641 69.4772H259.806L256.23 79.113H243.445L263.863 30.0312H275.272L295.479 79.113H282.418Z"></path>
<path fill="white" d="M324.346 79.1131H312.594L294.174 30.0312H307.373L318.644 64.8319H318.917L330.123 30.0312H343.115L324.346 79.1131Z"></path>
<path fill="white" d="M349.848 79.1131V30.0312H361.675V68.7838H380.506V79.1131H349.848Z"></path>
<path fill="white" d="M388.752 30.0305H400.576V79.1123H388.752V30.0305ZM397.276 26.1514H388.752L395.901 16.1641H407.31L397.276 26.1514Z"></path>
<path fill="white" d="M444.29 79.1131L424.702 47.0167H424.495L424.768 79.1131H413.355V30.0312H426.762L446.284 62.0611H446.491L446.215 30.0312H457.625V79.1131H444.29Z"></path>
<path fill="white" d="M470.41 79.1131V30.0312H503.128V40.0124H481.751V49.3062H501.961V58.8027H481.751V68.9928H504.362V79.1131H470.41Z"></path>
<path fill="white" d="M544.576 79.1131L526.498 56.5133H526.359V79.1131H514.881V30.0312H526.359V49.9996H526.57L543.957 30.0312H558.666L537.703 52.6311L559.903 79.1131H544.576Z"></path>
<path fill="white" d="M216.062 116.084H216.15L222.319 99.1367H225.418L217.365 119.824H214.699L206.709 99.1367H209.893L216.062 116.084Z"></path>
<path fill="white" d="M239.5 97.5021H237.299L240.165 93.2969H243.468L239.5 97.5021ZM234.373 112.201H242.049L238.225 102.496L234.373 112.201ZM231.302 119.823H228.115L237.007 99.1391H239.616L248.422 119.823H245.179L243.094 114.738H233.358L231.302 119.823Z"></path>
<path fill="white" d="M268.062 101.679L256.474 117.253H268.238V119.821H252.998V117.284L264.558 101.679H253.227V99.1367H268.062V101.679Z"></path>
<path fill="white" d="M279.07 112.203H286.746L282.925 102.5L279.07 112.203ZM275.999 119.825H272.812L281.707 99.1406H284.313L293.123 119.825H289.873L287.789 114.742H278.056L275.999 119.825Z"></path>
<path fill="white" d="M316.299 116.612C315.485 117.724 314.434 118.626 313.137 119.316C311.847 120.007 310.293 120.355 308.475 120.355C306.911 120.355 305.467 120.086 304.142 119.551C302.82 119.015 301.68 118.262 300.723 117.299C299.768 116.333 299.021 115.184 298.481 113.851C297.938 112.518 297.668 111.052 297.668 109.452C297.668 107.837 297.944 106.362 298.494 105.029C299.046 103.692 299.809 102.556 300.786 101.612C301.759 100.665 302.911 99.9273 304.249 99.4018C305.58 98.8761 307.024 98.6133 308.594 98.6133C309.288 98.6133 309.988 98.6829 310.707 98.819C311.42 98.9553 312.107 99.1579 312.763 99.4302C313.417 99.7057 314.019 100.045 314.556 100.444C315.096 100.839 315.561 101.302 315.95 101.827L313.687 103.582C313.187 102.882 312.478 102.299 311.561 101.843C310.644 101.384 309.655 101.156 308.594 101.156C307.392 101.156 306.318 101.374 305.363 101.815C304.406 102.255 303.589 102.85 302.911 103.613C302.236 104.373 301.715 105.25 301.348 106.254C300.98 107.258 300.798 108.325 300.798 109.452C300.798 110.621 300.977 111.713 301.335 112.727C301.693 113.74 302.205 114.62 302.87 115.368C303.536 116.121 304.346 116.71 305.304 117.138C306.261 117.568 307.329 117.78 308.506 117.78C309.661 117.78 310.716 117.546 311.661 117.081C312.61 116.612 313.391 115.931 314.007 115.035L316.299 116.612Z"></path>
<path fill="white" d="M325.566 119.823H322.696V99.1391H325.566V119.823ZM324.869 97.5021H322.668L325.534 93.2969H328.837L324.869 97.5021Z"></path>
<path fill="white" d="M347.612 108.285H350.654C351.348 108.285 351.992 108.218 352.579 108.092C353.169 107.965 353.675 107.772 354.098 107.509C354.525 107.246 354.855 106.901 355.084 106.474C355.317 106.043 355.433 105.517 355.433 104.894C355.433 104.27 355.31 103.747 355.072 103.332C354.83 102.911 354.5 102.572 354.086 102.307C353.671 102.044 353.172 101.863 352.594 101.752C352.014 101.645 351.386 101.594 350.711 101.594H347.612V108.285ZM344.742 99.1367H351C352.105 99.1367 353.106 99.2476 354.014 99.4756C354.921 99.6973 355.693 100.042 356.331 100.511C356.968 100.977 357.461 101.572 357.809 102.294C358.155 103.016 358.331 103.88 358.331 104.894C358.331 105.926 358.142 106.813 357.766 107.553C357.389 108.291 356.864 108.896 356.199 109.365C355.533 109.83 354.742 110.179 353.825 110.403C352.908 110.625 351.916 110.736 350.855 110.736H347.612V119.824H344.742V99.1367Z"></path>
<path fill="white" d="M368.323 108.197H371.626C372.305 108.197 372.932 108.137 373.507 108.02C374.088 107.903 374.596 107.716 375.033 107.453C375.463 107.19 375.808 106.848 376.06 106.427C376.311 106.012 376.436 105.49 376.436 104.866C376.436 104.242 376.311 103.723 376.06 103.302C375.808 102.884 375.472 102.551 375.061 102.298C374.647 102.044 374.154 101.864 373.598 101.756C373.036 101.649 372.446 101.595 371.827 101.595H368.323V108.197ZM368.323 119.825H365.457V99.1406H372.031C373.014 99.1406 373.953 99.2421 374.841 99.4447C375.73 99.6537 376.505 99.9766 377.174 100.426C377.84 100.873 378.367 101.462 378.753 102.193C379.14 102.925 379.331 103.815 379.331 104.866C379.331 106.386 378.866 107.611 377.94 108.545C377.017 109.483 375.818 110.078 374.352 110.331L380.085 119.825H376.612L371.394 110.623H368.323V119.825Z"></path>
<path fill="white" d="M404.306 109.452C404.306 108.325 404.118 107.258 403.751 106.251C403.387 105.25 402.865 104.373 402.19 103.61C401.512 102.85 400.699 102.255 399.741 101.815C398.787 101.375 397.707 101.156 396.514 101.156C395.333 101.156 394.269 101.375 393.311 101.815C392.354 102.255 391.544 102.85 390.878 103.61C390.212 104.373 389.694 105.25 389.327 106.251C388.96 107.258 388.778 108.325 388.778 109.452C388.778 110.602 388.96 111.682 389.327 112.695C389.694 113.708 390.216 114.592 390.894 115.339C391.566 116.093 392.379 116.679 393.327 117.109C394.272 117.54 395.333 117.752 396.514 117.752C397.691 117.752 398.762 117.54 399.726 117.109C400.693 116.679 401.512 116.093 402.19 115.339C402.865 114.592 403.387 113.708 403.751 112.695C404.118 111.682 404.306 110.602 404.306 109.452ZM407.402 109.452C407.402 111.051 407.126 112.518 406.58 113.851C406.027 115.184 405.27 116.333 404.306 117.299C403.336 118.262 402.19 119.015 400.856 119.547C399.525 120.083 398.077 120.352 396.514 120.352C394.95 120.352 393.503 120.083 392.181 119.547C390.856 119.015 389.713 118.262 388.749 117.299C387.782 116.333 387.029 115.184 386.489 113.851C385.946 112.518 385.676 111.051 385.676 109.452C385.676 107.834 385.946 106.359 386.489 105.029C387.029 103.692 387.782 102.553 388.749 101.609C389.713 100.665 390.856 99.9274 392.181 99.4018C393.503 98.8761 394.95 98.6133 396.514 98.6133C398.077 98.6133 399.525 98.8761 400.856 99.4018C402.19 99.9274 403.336 100.665 404.306 101.609C405.27 102.553 406.027 103.692 406.58 105.029C407.126 106.359 407.402 107.834 407.402 109.452Z"></path>
<path fill="white" d="M424.99 102.967C424.582 102.4 424.032 101.938 423.338 101.58C422.641 101.219 421.859 101.039 420.993 101.039C420.525 101.039 420.06 101.102 419.583 101.226C419.112 101.356 418.682 101.561 418.296 101.843C417.91 102.122 417.599 102.473 417.354 102.898C417.112 103.312 416.993 103.816 416.993 104.399C416.993 104.965 417.103 105.434 417.326 105.814C417.549 106.197 417.847 106.517 418.227 106.78C418.601 107.043 419.043 107.267 419.558 107.451C420.07 107.638 420.613 107.825 421.194 108.021C421.888 108.237 422.591 108.477 423.307 108.753C424.02 109.025 424.669 109.386 425.247 109.832C425.831 110.282 426.302 110.839 426.666 111.511C427.034 112.185 427.219 113.037 427.219 114.069C427.219 115.143 427.018 116.07 426.625 116.859C426.23 117.647 425.702 118.303 425.046 118.816C424.39 119.335 423.63 119.718 422.773 119.969C421.913 120.222 421.027 120.352 420.12 120.352C418.827 120.352 417.577 120.098 416.368 119.592C415.163 119.085 414.164 118.335 413.373 117.34L415.602 115.44C416.086 116.162 416.732 116.748 417.542 117.195C418.356 117.644 419.235 117.866 420.18 117.866C420.66 117.866 421.144 117.8 421.63 117.663C422.111 117.527 422.55 117.312 422.946 117.017C423.345 116.729 423.665 116.362 423.916 115.925C424.167 115.488 424.29 114.956 424.29 114.332C424.29 113.708 424.161 113.189 423.9 112.771C423.64 112.35 423.288 111.995 422.842 111.704C422.4 111.409 421.885 111.162 421.294 110.957C420.707 110.754 420.086 110.545 419.426 110.33C418.77 110.136 418.12 109.896 417.483 109.614C416.845 109.332 416.277 108.971 415.775 108.531C415.272 108.094 414.867 107.552 414.56 106.91C414.249 106.267 414.095 105.472 414.095 104.516C414.095 103.483 414.305 102.597 414.72 101.853C415.131 101.115 415.674 100.504 416.34 100.016C417.006 99.5284 417.759 99.1737 418.601 98.9489C419.439 98.7272 420.286 98.6133 421.134 98.6133C422.33 98.6133 423.454 98.8254 424.497 99.2561C425.539 99.6836 426.377 100.26 427.018 100.979L424.99 102.967Z"></path>
<path fill="white" d="M441.473 119.825H438.603V101.683H432.025V99.1406H448.047V101.683H441.473V119.825Z"></path>
<path fill="white" d="M457.113 108.196H460.416C461.094 108.196 461.722 108.135 462.299 108.018C462.877 107.901 463.386 107.714 463.822 107.451C464.255 107.189 464.597 106.847 464.849 106.426C465.1 106.011 465.225 105.488 465.225 104.864C465.225 104.24 465.1 103.721 464.849 103.3C464.597 102.882 464.262 102.55 463.85 102.296C463.436 102.043 462.943 101.862 462.387 101.755C461.825 101.647 461.235 101.593 460.616 101.593H457.113V108.196ZM461.806 97.5021H458.707L455.489 93.2969H458.098L460.299 96.1879L462.503 93.2969H465.05L461.806 97.5021ZM457.113 119.823H454.246V99.1391H460.82C461.806 99.1391 462.742 99.2406 463.63 99.4432C464.519 99.6522 465.294 99.9751 465.963 100.425C466.629 100.871 467.156 101.46 467.542 102.192C467.929 102.923 468.123 103.813 468.123 104.864C468.123 106.384 467.659 107.61 466.729 108.544C465.806 109.481 464.607 110.076 463.141 110.33L468.874 119.823H465.401L460.186 110.621H457.113V119.823Z"></path>
<path fill="white" d="M478.375 117.253H489.094V119.824H475.506V99.1367H488.658V101.68H478.375V107.873H488.052V110.356H478.375V117.253Z"></path>
<path fill="white" d="M499.261 117.285H502.856C504.09 117.285 505.233 117.108 506.288 116.759C507.339 116.408 508.244 115.901 509.01 115.24C509.773 114.578 510.366 113.761 510.793 112.782C511.217 111.81 511.43 110.711 511.43 109.483C511.43 108.197 511.217 107.067 510.793 106.094C510.366 105.119 509.773 104.305 509.01 103.653C508.244 103.001 507.339 102.504 506.288 102.165C505.233 101.823 504.09 101.652 502.856 101.652H499.261V117.285ZM496.395 99.1406H503.434C504.746 99.1406 506.058 99.3338 507.374 99.7232C508.686 100.113 509.876 100.727 510.937 101.563C511.999 102.402 512.856 103.476 513.515 104.777C514.171 106.085 514.501 107.652 514.501 109.483C514.501 111.256 514.171 112.789 513.515 114.084C512.856 115.379 511.999 116.449 510.937 117.298C509.876 118.143 508.686 118.78 507.374 119.198C506.058 119.616 504.746 119.825 503.434 119.825H496.395V99.1406Z"></path>
<path fill="white" d="M524.784 108.253H524.844L533.996 99.1367H537.965L527.999 108.605L538.574 119.821H534.461L524.844 109.13H524.784V119.821H521.918V99.1367H524.784V108.253Z"></path>
<path fill="white" d="M552.305 119.825H549.407V110.889L541.73 99.1406H545.266L550.942 108.491L556.65 99.1406H559.981L552.305 110.889V119.825Z"></path>
<path fill="white" d="M38.3037 69.8959L2.4928 9.43667H42.2251L67.0063 51.2828C67.5244 51.2258 68.0456 51.1751 68.5667 51.1403L43.0289 8.01172H0L37.4905 71.3019L38.3037 69.8959Z"></path>
<path fill="white" d="M125.579 79.9586C120.433 88.8598 109.41 94.6071 97.4948 94.6071H78.5125L165.022 11.7761L125.579 79.9586ZM126.816 9.436H165.415L78.8987 92.2702L126.816 9.436ZM126.003 8.00781L75.084 96.0353H97.4948C109.906 96.0353 121.406 90.0061 126.803 80.6774L168.84 8.00781H126.003Z"></path>
<path fill="white" d="M42.5014 139.825L66.5637 55.7909C68.1335 55.5851 69.7316 55.471 71.3485 55.471H91.2947L42.5014 139.825ZM43.2612 70.1196C47.4809 62.8271 55.6503 57.6528 65.0221 56.0221L40.7935 140.645H2.46462L43.2612 70.1196ZM71.3485 54.043C58.9344 54.043 47.4338 60.0721 42.0431 69.404L0 142.07H42.8374L93.7593 54.043H71.3485Z"></path>
<path fill="white" d="M131.35 78.7773L130.537 80.1832L165.821 139.743L121.062 91.8267L120.032 92.8084L164.712 140.643H126.616L101.838 98.7932C101.32 98.8502 100.799 98.9009 100.277 98.9389L125.812 142.068H168.841L131.35 78.7773Z"></path>
</svg>
