<svg xmlns="http://www.w3.org/2000/svg" fill="none" viewBox="0 0 115 55" height="55" width="115">
<g clip-path="url(#clip0_271_5937)">
<path fill="#37021C" d="M88.8339 54.1351H0.154297L12.2391 11.9711C13.9817 5.86864 20.2976 0.900879 26.3146 0.900879H115L114.458 2.78719C114.351 3.16157 103.657 40.3809 102.932 42.9728C101.189 49.1299 94.865 54.1351 88.8339 54.1351ZM4.00306 51.1919H88.8367C93.5905 51.1919 98.7758 47.0564 100.163 42.1607C100.795 39.9029 108.955 11.5017 111.154 3.84698H26.3146C21.5692 3.84698 16.3924 7.9479 15.0052 12.8005L4.00306 51.1919Z"></path>
<path fill="#37021C" d="M23.8601 13.0283H46.0871L44.0316 20.5448H43.2816C43.2816 20.2395 43.2816 19.8795 43.2816 19.5714C43.2816 18.189 42.8304 17.063 42.0325 16.297C41.1838 15.5799 39.6273 15.073 37.6254 14.9693L31.6676 36.1911C31.3179 37.3718 31.1685 38.2905 31.1685 38.7973C31.1685 39.3099 31.4195 39.716 31.7183 39.9723C32.1159 40.3323 33.0661 40.4849 34.3208 40.4849L34.1206 41.2539H20.4512L20.6993 40.4849C22.1063 40.4849 23.1552 40.2315 23.7586 39.716C24.4099 39.2063 25.0105 38.0313 25.5124 36.1882L31.4646 14.9665C29.4655 15.0701 27.6609 15.5799 26.3075 16.3978C24.909 17.2675 23.6063 18.7017 22.4052 20.5419H21.7031L23.8601 13.0283Z" clip-rule="evenodd" fill-rule="evenodd"></path>
<path fill="#37021C" d="M44.4372 33.4325C44.3357 34.3022 44.285 35.172 44.285 35.6846C44.285 36.6551 44.5838 37.6285 45.0857 38.1382C45.6891 38.6998 46.4871 39.0569 47.4909 39.0569C48.4411 39.0569 49.3941 38.8006 50.3415 38.4435C51.3453 38.1382 52.4957 37.3722 53.7476 36.3469L54.2466 36.9085C52.7466 38.648 51.1423 39.9756 49.6422 40.6408C48.1929 41.4069 46.4871 41.8676 44.7869 41.8676C42.6327 41.8676 41.034 41.2542 40.1796 40.2319C39.3788 39.1577 38.877 37.7782 38.877 36.3959C38.877 34.1439 39.5283 31.742 40.783 29.5418C42.0349 27.3416 43.8366 25.5043 46.0416 24.1219C48.1929 22.7943 50.4937 22.0254 52.6507 22.0254C53.7983 22.0254 54.7485 22.3307 55.2532 22.8404C55.8031 23.353 56.1527 24.119 56.1527 24.9916C56.1527 26.014 55.8031 26.9845 55.2532 27.955C54.5032 29.2337 53.5051 30.3108 52.3519 31.0768C51.1479 31.8428 49.8452 32.5081 48.3424 32.8652C47.4401 33.1244 46.0895 33.3807 44.4372 33.4325ZM44.5867 32.3612C45.7878 32.2086 46.6929 31.9523 47.3442 31.696C47.9928 31.336 48.692 30.8234 49.2447 30.21C49.896 29.5447 50.4966 28.7268 50.8969 27.7045C51.3988 26.6821 51.6498 25.559 51.6498 24.7382C51.6498 24.3782 51.4975 23.9722 51.3481 23.7677C51.1479 23.6122 50.8462 23.4596 50.4966 23.4596C49.8452 23.4596 49.0924 23.9693 48.3424 24.8909C46.8395 26.4777 45.5904 29.0321 44.5867 32.3612Z" clip-rule="evenodd" fill-rule="evenodd"></path>
<path fill="#37021C" d="M67.1169 28.2667L64.9627 36.1921C64.6102 37.2663 64.4664 38.136 64.4664 38.5449C64.4664 39.1583 64.7146 39.622 65.0106 39.9762C65.4646 40.3362 66.4655 40.4888 67.8669 40.4888L67.5201 41.2578H54.0508L54.3017 40.4888C55.5057 40.4888 56.3065 40.388 56.7548 40.2354C57.2059 40.0828 57.6599 39.622 57.908 39.1612C58.1533 38.8012 58.5593 37.7818 58.9597 36.195L64.0125 18.2966C64.3621 17.0669 64.5144 16.2519 64.5144 15.7393C64.5144 15.2324 64.2606 14.8206 63.8602 14.4635C63.4626 14.1064 62.6055 13.7983 61.4551 13.7983L61.6045 13.0322H72.57C75.5729 13.0322 77.8286 13.444 79.1284 14.2072C81.1331 15.3851 82.23 17.329 82.23 19.7308C82.23 22.0808 81.1303 24.232 79.1284 25.9196C77.1236 27.708 74.3181 28.6296 70.9149 28.6296C69.9167 28.6296 68.6141 28.5259 67.114 28.3733V28.2667H67.1169ZM67.6159 26.7346C68.4195 26.7346 69.1695 26.8383 69.6714 26.8383C71.5183 26.8383 73.0747 25.9167 74.0728 24.2291C75.1753 22.5415 75.7308 20.6495 75.7308 18.8064C75.7308 17.5306 75.4262 16.4017 74.7242 15.7393C74.0757 15.0769 73.0211 14.6162 71.8228 14.6162C71.5662 14.6162 71.273 14.7198 70.9205 14.7198L67.6159 26.7346Z" clip-rule="evenodd" fill-rule="evenodd"></path>
<path fill="#37021C" d="M83.6414 33.686C83.5399 34.5557 83.4892 35.4254 83.4892 35.938C83.4892 36.9086 83.7881 37.882 84.2899 38.3917C84.8877 38.9533 85.6913 39.3104 86.6923 39.3104C87.6425 39.3104 88.5927 39.0541 89.5485 38.697C90.5523 38.3888 91.6999 37.6228 92.9546 36.6004L93.4537 37.162C91.9536 38.9014 90.3493 40.2319 88.8464 40.8972C87.3943 41.6632 85.6941 42.124 83.9882 42.124C81.8369 42.124 80.2382 41.5106 79.3866 40.4882C78.5802 39.414 78.084 38.0346 78.084 36.6551C78.084 34.4031 78.7353 32.0013 79.9844 29.8011C81.2391 27.6008 83.0352 25.7635 85.2458 24.3783C87.3943 23.0478 89.698 22.2817 91.8521 22.2817C92.9997 22.2817 93.9528 22.5899 94.4518 23.0996C95.0073 23.6094 95.3569 24.3783 95.3569 25.2509C95.3569 26.2703 95.0073 27.2409 94.4518 28.2143C93.7018 29.4929 92.7037 30.5671 91.5504 31.3331C90.3521 32.1021 89.0466 32.7616 87.5466 33.1215C86.6443 33.3807 85.2937 33.637 83.6414 33.686ZM83.7881 32.6147C84.9892 32.4621 85.8915 32.2057 86.5456 31.9494C87.197 31.5923 87.8962 31.0797 88.4461 30.4634C89.0974 29.7982 89.698 28.9803 90.0983 27.9579C90.5974 26.9385 90.8512 25.8124 90.8512 24.9946C90.8512 24.6346 90.6961 24.2285 90.5495 24.0241C90.3465 23.8685 90.0448 23.7159 89.6923 23.7159C89.041 23.7159 88.2938 24.2285 87.541 25.1472C86.0466 26.734 84.789 29.2913 83.7881 32.6147Z" clip-rule="evenodd" fill-rule="evenodd"></path>
</g>
<defs>
<clipPath id="clip0_271_5937">
<rect transform="translate(0.154297 0.900879)" fill="#37021C" height="53.2343" width="114.846"></rect>
</clipPath>
</defs>
</svg>
