<svg xmlns="http://www.w3.org/2000/svg" fill="none" viewBox="0 0 362 249" height="249" width="362">
<path fill="#37021C" d="M184.79 85.6033C185.786 85.6033 187.45 84.6591 188.273 84.3213L188.593 84.1914L189.944 85.534L189.667 85.8979C189.234 86.4609 188.402 88.7218 188.29 89.4408C188.143 90.4543 188.437 92.0308 188.654 93.0356L188.723 93.3735L187.476 94.2657L187.172 94.0231C186.782 93.7113 186.436 93.3648 186.055 93.0443C185.648 92.6978 185.223 92.36 184.79 92.0481V95.4264C185.223 95.591 185.656 95.7556 186.072 95.9722C188.524 97.2195 189.537 99.7576 189.537 102.382C189.537 105.917 187.709 107.961 185.171 109.113C185.457 110.074 185.561 110.638 186.41 111.582L186.765 111.98L186.349 112.327C185.561 112.985 184.669 113.132 183.776 112.587C183.439 112.387 183.109 112.015 182.841 111.781C181.879 112.509 180.831 113.375 179.523 112.768L178.969 112.509C179.072 112.699 179.211 112.864 179.376 112.994C180.19 113.643 181.117 113.496 182.087 113.306L182.772 113.176L182.702 113.869C182.572 115.211 181.975 116.467 180.597 116.883C180.034 117.056 178.994 117.082 178.449 116.701C178.206 116.632 178.033 116.476 177.868 116.32C177.66 117.108 177.288 117.975 176.508 118.035C175.737 118.096 175.503 117.593 175.269 117.16C173.589 118.529 170.505 119.196 168.807 117.836C167.421 116.727 166.858 114.735 168.201 113.332C169.509 111.98 171.978 113.219 171.631 115.055C171.796 114.943 171.986 114.795 172.263 114.579C172.463 114.414 173.026 113.435 173.104 113.176C173.19 112.881 173.268 112.587 173.329 112.275L172.376 112.318C170.843 112.387 170.228 112.11 169.309 111.357C168.512 112.491 167.092 112.872 165.766 112.101L165.177 111.764L165.662 111.287C165.775 111.175 165.896 111.088 165.991 110.967C166.407 110.464 166.936 108.957 167.152 107.909L167.109 107.883C166.477 108.022 166.035 108.394 165.68 108.948L165.498 109.226L162.665 108.827L162.743 108.307C163.28 104.583 163.228 103.318 162.925 99.6104L162.89 99.2119L165.134 98.4409L165.35 98.7874C165.81 99.5064 166.286 100.191 166.771 100.892C166.91 101.1 167.074 101.3 167.248 101.49V97.7739C164.623 96.5785 162.5 94.7075 162.544 91.3984C162.587 88.3666 164.623 86.4436 167.248 85.3348V84.8584C167.248 84.0354 165.576 83.6976 165.42 83.0999C165.524 81.4541 167.854 80.3366 169.11 81.6186C169.768 80.6744 171.042 80.3366 172.263 80.6138L172.87 80.7524L172.636 81.3241C172.185 82.4069 172.09 83.1519 172.082 84.2174L173.624 84.1047C173.624 83.2212 173.753 81.3155 173.589 80.5012C173.277 79.0979 172.159 79.1499 170.955 78.812L170.358 78.6475L170.626 78.0844C171.527 76.2307 173.554 75.6763 174.75 77.0536C175.131 76.4905 175.564 76.222 176.144 75.9102C176.699 76.248 177.106 76.5252 177.444 77.1142C178.709 75.6849 180.008 76.0747 181.429 77.8938L181.888 78.4829L181.178 78.7081C179.921 79.1066 178.917 79.0806 178.492 80.4579C178.492 80.6658 178.449 80.865 178.449 81.0643V84.0354C178.951 84.0701 179.445 84.1307 179.93 84.2174C179.843 83.1952 179.358 82.2423 178.899 81.3501L178.57 80.7178L179.272 80.5965C180.762 80.3366 182.035 80.9516 182.798 82.1211C183.759 81.0729 185.232 80.9343 186.133 82.4156L186.401 82.8574L185.968 83.1259C185.163 83.6283 184.781 83.8795 184.781 84.8497V85.612L184.79 85.6033ZM177.435 110.473V99.775C176.517 99.723 175.599 99.6623 174.689 99.5844V105.354C174.689 106.791 174.793 108.29 174.689 109.711C174.585 111.062 174.498 112.145 174.117 113.461C173.979 113.938 173.303 115.081 172.93 115.385C171.822 116.259 171.692 116.277 170.21 116.554L169.171 116.745C169.266 116.84 169.361 116.935 169.465 117.022C170.895 118.165 173.857 117.264 174.984 116.017L175.347 115.618L175.737 116C175.893 116.155 176.3 117.013 176.439 117.004C176.708 116.909 176.976 115.644 177.028 115.341L177.08 115.09L177.305 114.977C177.955 114.657 178.362 115.549 178.769 115.714L178.934 115.731L179.064 115.861C179.332 116.043 180.069 115.982 180.389 115.87C181.056 115.636 181.394 115.081 181.567 114.458C180.554 114.588 179.627 114.518 178.743 113.817C177.799 113.063 177.539 111.72 177.47 110.482H177.444L177.435 110.473ZM179.973 89.4234C179.48 89.2415 178.977 89.0856 178.475 88.9557V94.335C178.977 94.3783 179.471 94.4216 179.973 94.4649V89.4234ZM173.649 88.4619C173.13 88.4706 172.619 88.5052 172.099 88.5745V93.9019C172.645 93.9625 173.173 94.0058 173.649 94.0318V88.4619ZM171.068 84.4166C171.077 83.3858 171.137 82.5369 171.466 81.5407C170.635 81.5407 169.855 81.9478 169.751 82.9093L169.431 85.9498L168.729 82.9786C168.426 81.7226 167.213 81.8699 166.615 82.8054C167.378 83.2991 168.322 83.6889 168.322 84.8497V92.8711C168.512 92.9923 168.729 93.0963 168.954 93.1916C169.621 93.4428 170.384 93.5987 171.068 93.7113V84.4253V84.4166ZM179.973 99.9742C179.471 99.9222 178.977 99.8789 178.475 99.8356V105.527C178.908 105.509 179.428 105.492 179.973 105.431V99.9655V99.9742ZM173.649 99.4718C173.13 99.4111 172.619 99.3418 172.099 99.2466V104.522C172.601 104.73 173.121 104.903 173.649 105.059V99.4718ZM169.344 98.5536C168.998 98.4409 168.66 98.3197 168.322 98.1897C168.348 101.36 168.512 104.99 168.14 108.385C167.923 109.312 167.481 110.646 166.953 111.434C167.698 111.556 168.374 111.131 168.712 110.334L168.998 109.676L169.535 110.144C170.271 110.785 170.617 111.114 171.336 111.227C171.189 110.941 171.12 110.612 171.12 110.074C171.12 109.693 171.103 109.304 171.085 108.922C170.877 105.587 171.068 102.374 171.068 99.0473C170.436 98.9 169.898 98.7441 169.361 98.5536H169.353H169.344ZM174.689 94.0838L175.122 94.1098C175.781 94.1531 176.448 94.1964 177.106 94.2397L177.435 94.257V81.0556C177.435 80.8131 177.47 80.4666 177.504 80.224C177.972 78.5955 178.873 78.301 180.138 77.9285C179.237 76.967 178.639 77.0363 177.747 78.4742L177.037 79.6176L176.794 78.2923C176.699 77.7899 176.508 77.4174 176.136 77.1142C175.746 77.3914 175.451 77.7899 175.373 78.2836L175.07 80.2067L174.377 78.3876C173.831 76.967 172.679 77.0709 171.943 77.9718C173.26 78.3096 174.256 78.5782 174.628 80.2587C174.81 81.0816 174.689 83.1086 174.689 84.0095V94.0838ZM173.624 110.1C173.13 110.014 172.636 109.91 172.151 109.789V110.083C172.151 110.837 172.333 110.897 172.783 111.469L173.364 112.205C173.511 111.512 173.597 110.802 173.632 110.1M178.977 112.509L179.324 112.006C179.618 111.582 179.627 110.958 179.679 110.386C179.28 110.421 178.891 110.438 178.501 110.456C178.544 111.175 178.657 111.954 178.977 112.517M168.816 116.277L169.82 115.601C170.063 115.445 170.297 115.281 170.54 115.125C171.016 114.059 169.569 113.409 168.963 114.042C168.313 114.718 168.391 115.575 168.816 116.277ZM183.759 104.323V100.927L183.707 100.892L183.759 95.7989V91.3551C182.875 90.7921 181.966 90.281 181.013 89.8565V105.284C181.914 105.137 182.988 104.877 183.759 104.314M184.227 109.537C183.248 109.884 181.68 110.17 180.71 110.282C180.606 110.811 180.684 111.339 180.502 111.92C181.256 111.868 182.001 111.097 182.538 110.716L182.78 110.542L183.057 110.664C183.811 111.001 184.305 112.205 185.258 111.798C184.651 111.001 184.504 110.421 184.236 109.529M183.759 85.2568V84.841C183.759 83.689 184.158 83.1259 184.946 82.5542C184.331 82.0344 183.603 82.5628 183.222 83.3598L182.694 84.4426L182.269 83.3078C181.897 82.3203 181.178 81.6706 180.216 81.5753C180.649 82.4676 180.996 83.3944 181.013 84.4166C181.94 84.6245 182.867 84.9277 183.759 85.2482" clip-rule="evenodd" fill-rule="evenodd"></path>
<path fill="#37021C" d="M182.926 68.429C182.97 68.3853 182.97 68.3415 183.013 68.2891C182.97 68.3328 182.97 68.3853 182.926 68.429Z" clip-rule="evenodd" fill-rule="evenodd"></path>
<path fill="#37021C" d="M218.135 64.7598C218.36 64.8811 218.508 65.0976 218.508 65.3315C218.508 65.7387 218.144 66.0592 217.737 66.0592C217.329 66.0592 217.018 65.7473 217.018 65.3315C217.018 65.2536 217.035 65.1843 217.061 65.1063C216.957 65.2103 216.87 65.3402 216.827 65.4874C216.732 65.7906 216.402 65.9552 216.108 65.8513C215.805 65.756 215.64 65.4355 215.744 65.1323C215.77 65.063 215.796 64.9937 215.831 64.9244L215.848 64.8811C216.099 64.3613 216.558 63.9802 217.078 63.7723C217.572 63.5817 218.135 63.5384 218.638 63.6857L218.698 63.703C218.776 63.729 218.863 63.7636 218.949 63.807C219.235 63.9455 219.348 64.2834 219.218 64.5692C219.079 64.8551 218.741 64.9677 218.456 64.8378C218.36 64.7945 218.256 64.7685 218.152 64.7511" clip-rule="evenodd" fill-rule="evenodd"></path>
<path fill="#37021C" d="M224.21 65.6101C223.933 65.4715 223.586 65.5841 223.448 65.8613C223.309 66.1385 223.422 66.485 223.699 66.6236C223.699 66.6236 224.609 67.0047 224.21 67.8623C223.794 68.7545 222.044 67.9403 222.044 67.9403C221.758 67.8017 221.421 67.9143 221.282 68.1915C221.143 68.4773 221.256 68.8152 221.533 68.9538C221.533 68.9538 224.357 70.2358 225.25 68.3387C226.159 66.3984 224.219 65.5928 224.21 65.5928" clip-rule="evenodd" fill-rule="evenodd"></path>
<path fill="#37021C" d="M193.276 38.0512C191.985 38.0512 190.807 38.4756 189.776 39.3159C188.797 40.1128 187.871 41.9839 187.871 43.2919C187.871 45.2409 189.109 47.6751 192.401 47.6751C193.891 47.6751 194.818 47.2073 195.329 46.7828L195.433 46.8261C194.913 50.3084 192.046 52.8898 189.828 53.6348C189.681 53.73 189.568 53.8773 189.568 54.0159C189.568 54.2931 189.776 54.3884 189.976 54.3884C190.132 54.3884 190.495 54.2931 190.755 54.2411C192.237 53.8253 193.268 53.3056 194.706 52.2315C197.634 49.9792 198.924 46.5663 198.924 43.4305C198.924 42.7288 198.691 41.0917 197.512 39.7577C196.43 38.5363 195.277 38.0512 193.268 38.0512M179.745 37.748C178.454 37.748 177.276 38.1724 176.245 39.0127C175.275 39.8096 174.348 41.6807 174.348 42.9974C174.348 44.9464 175.578 47.3719 178.87 47.3719C180.36 47.3719 181.287 46.9041 181.807 46.4796L181.91 46.523C181.391 50.0139 178.523 52.5866 176.306 53.3402C176.15 53.4355 176.046 53.5741 176.046 53.7127C176.046 53.9986 176.245 54.0852 176.461 54.0852C176.617 54.0852 176.981 53.9899 177.232 53.9466C178.723 53.5308 179.753 53.0111 181.191 51.9369C184.119 49.6847 185.41 46.2718 185.41 43.1273C185.41 42.4257 185.176 40.7885 183.99 39.4545C182.907 38.2331 181.746 37.748 179.753 37.748M179.892 46.1938C178.402 46.1938 177.215 44.5133 177.215 42.2611C177.215 39.8963 178.289 38.5882 179.84 38.5882C181.737 38.5882 182.257 40.5546 182.257 42.6595C182.257 43.6644 182.205 44.8425 181.841 45.3016C181.538 45.7693 180.914 46.1938 179.892 46.1938ZM173.551 38.441C173.655 38.441 173.811 38.4843 173.811 38.6749C173.811 38.8135 173.655 39.0993 173.447 39.3332C173.187 39.749 171.342 42.7981 170.311 45.137C169.436 47.1033 168.154 50.1525 167.331 52.8811C167.054 53.8253 166.404 54.4317 165.486 54.4317C164.715 54.4317 164.203 53.9206 164.203 53.2363C164.203 52.552 164.775 51.4518 165.182 50.7502C165.65 50.0052 170.216 42.7895 171.506 40.7278H165.494C163.952 40.7278 163.649 41.1956 162.93 42.1311C162.774 42.3217 162.618 42.2784 162.41 42.1831C162.237 42.0907 162.188 41.9666 162.263 41.8106L163.857 37.7307C163.909 37.5921 163.961 37.5488 164.273 37.5488C164.524 37.5488 164.637 37.644 164.585 37.9732C164.533 38.3024 164.741 38.441 166.066 38.441H173.577H173.551ZM155.255 41.8106C155.255 41.1003 155.081 40.5806 154.588 40.5806C154.302 40.5806 153.912 40.6326 153.409 40.7712L151.737 41.1956C151.625 41.2476 151.504 41.2476 151.452 41.1523L151.226 40.6759C151.174 40.5806 151.226 40.494 151.391 40.39L157.81 37.5488C157.975 37.4795 158.139 37.4102 158.321 37.4102C158.486 37.4102 158.538 37.5054 158.538 37.7826C158.538 37.9732 158.434 41.6634 158.434 44.7212V45.7174C158.434 46.523 158.486 51.0187 158.486 51.3219C158.486 52.552 158.599 52.6906 160.158 52.6906H161.163C161.388 52.6906 161.44 52.7599 161.44 52.8551V53.4442C161.44 53.5828 161.388 53.6348 161.163 53.6348C160.938 53.6348 157.143 53.5655 156.693 53.5655C156.138 53.5655 152.231 53.6348 152.058 53.6348C151.919 53.6348 151.833 53.5828 151.833 53.4702V52.8551C151.833 52.7165 151.945 52.6906 152.136 52.6906H153.228C154.899 52.6906 155.125 52.6386 155.177 51.3912C155.237 50.7242 155.237 47.138 155.237 46.471V41.8106H155.255ZM193.432 46.5056C191.942 46.5056 190.764 44.8251 190.764 42.5729C190.764 40.2081 191.838 38.9001 193.38 38.9001C195.286 38.9001 195.797 40.8664 195.797 42.9714C195.797 43.9762 195.745 45.1543 195.381 45.6221C195.078 46.0898 194.454 46.5056 193.432 46.5056Z" clip-rule="evenodd" fill-rule="evenodd"></path>
<path fill="#37021C" d="M156.823 73.2889C158.954 69.9885 153.93 65.8652 148.178 67.3638C142.478 68.8537 139.853 74.4236 143.699 76.6845C146.237 73.4708 153.289 71.3918 156.823 73.2889Z" clip-rule="evenodd" fill-rule="evenodd"></path>
<path fill="#37021C" d="M183.882 67.1717C184.376 66.4008 184.783 65.4999 184.783 64.6856C184.783 61.0648 180.53 58.2148 176.008 58.2148C171.486 58.2148 167.275 61.0648 167.275 64.6856C167.275 65.5432 167.726 66.4441 168.272 67.267C173.435 66.0456 178.632 66.2275 183.882 67.1804" clip-rule="evenodd" fill-rule="evenodd"></path>
<path fill="#37021C" d="M208.318 76.6806C212.208 74.4197 209.583 68.8498 203.84 67.3599C198.139 65.8613 193.115 69.9846 195.246 73.285C198.772 71.3879 205.832 73.4669 208.318 76.6806Z" clip-rule="evenodd" fill-rule="evenodd"></path>
<path fill="#37021C" d="M194.838 74.6C193.123 74.8252 191.304 74.3748 189.32 72.6077C186.738 70.3468 182.849 68.5364 182.849 68.5364C181.627 68.3545 180.449 68.1726 179.227 68.0859C178.682 69.8011 178.145 70.7539 177.01 72.2525V72.2092C180.717 76.4624 187.821 79.451 194.388 79.9014C194.881 78.3595 195.072 76.5058 194.847 74.6087" clip-rule="evenodd" fill-rule="evenodd"></path>
<path fill="#37021C" d="M124.869 74.2684C123.769 75.8016 122.4 77.3608 120.884 78.6948C119.281 80.1068 117.505 81.2849 115.686 81.9692C115.392 82.0818 115.062 81.9345 114.95 81.6314C114.915 81.5447 114.906 81.4495 114.915 81.3628C115.01 79.9076 115.435 78.6775 115.877 77.7593C115.634 77.8546 115.392 77.9585 115.132 78.0538C113.91 78.5129 112.593 78.8854 111.736 79.0413C111.597 79.076 111.459 79.0673 111.32 78.998C111.043 78.8507 110.93 78.5043 111.077 78.2271C112.108 76.2694 113.156 74.6582 114.413 73.1422C115.651 71.635 117.081 70.2404 118.874 68.7158L118.909 68.6811C120 67.7889 121.464 66.914 122.937 66.1691C124.895 65.1729 126.887 64.3846 127.987 64.0554C128.195 63.9775 128.585 63.6656 129.036 63.2931C129.356 63.0333 129.703 62.7474 130.075 62.4789L130.11 62.4529C130.508 62.1584 131.175 61.8812 131.938 61.6906H131.972V61.682C132.683 61.5087 133.48 61.3874 134.251 61.3874C135.273 61.3874 136.347 61.7426 137.369 62.2277C138.34 62.6868 139.275 63.2758 140.064 63.7782L140.341 63.9168C141.146 64.3066 142.238 64.835 142.411 66.195V66.2557C142.515 67.5637 141.839 68.8544 140.852 69.9891C139.786 71.2105 138.34 72.2847 137.153 73.0036C137.889 73.5927 138.599 74.5282 139.189 75.5677L139.215 75.611C140.046 77.075 140.67 78.7814 140.835 80.0028C141.259 79.9768 141.709 79.9162 142.143 79.8383C142.896 79.7083 143.624 79.5264 144.196 79.3445L144.23 79.3272C144.447 79.2579 144.672 79.1886 144.915 79.1193L145.019 77.1962C147.323 74.7968 152.668 73.0383 155.873 74.303C155.466 76.1134 155.605 78.331 156.194 79.9162L157.545 104.119H153.387C153.43 105.384 153.517 106.925 153.569 108.19C153.699 110.321 148.501 110.182 148.189 110.633C148.051 110.858 148.051 111.04 148.276 111.17C155.605 116.237 166.962 120.759 175.963 120.395C185.015 120.759 196.373 116.237 203.701 111.17C203.927 111.031 203.927 110.849 203.797 110.633C203.476 110.174 198.278 110.312 198.365 108.19C198.452 106.925 198.547 105.384 198.59 104.119H194.423L195.783 79.9162C196.329 78.331 196.468 76.1134 196.104 74.303C199.318 73.0383 204.654 74.7968 206.915 77.1962H206.959L207.019 78.8594C207.634 79.0153 208.137 79.3012 208.674 79.6044C209.462 80.0462 210.32 80.5312 211.637 80.5312C212.719 80.5312 213.594 80.3753 214.313 80.0808C214.911 79.8296 215.448 79.4138 215.925 78.9114C215.985 78.2011 216.003 77.4128 215.985 76.6592C215.959 75.7236 215.881 74.8314 215.777 74.1817C215.604 73.1076 215.24 72.354 214.686 71.7823C214.123 71.2019 213.352 70.8034 212.39 70.4656C212.2 70.3963 212.018 70.3097 211.844 70.197C211.212 69.7813 210.727 69.0969 210.493 68.3086C210.259 67.5377 210.242 66.6628 210.528 65.8659C210.614 65.6147 210.736 65.3721 210.883 65.1469C211.299 64.5059 211.801 63.9515 212.364 63.4837H212.373C214.123 62.0198 216.47 61.3701 218.714 61.3095C220.958 61.2488 223.115 61.7686 224.484 62.6608C224.874 62.912 225.203 63.1979 225.463 63.5097C226.918 65.2595 228.434 67.5724 229.872 70.0065C231.795 73.2722 233.571 76.7718 234.862 79.4571C235.884 81.5881 236.794 83.745 237.417 85.8932C238.05 88.0675 238.405 90.2331 238.31 92.3554C238.206 94.7462 237.755 96.7472 237.391 98.3844C237.192 99.2766 236.924 100.342 236.906 101.252C236.906 101.728 236.984 102.62 237.184 103.426C237.313 103.954 237.487 104.422 237.703 104.656C237.998 104.976 238.318 105.202 238.726 105.384L238.769 105.401C239.245 105.609 239.834 105.765 240.605 105.929C241.35 106.085 242.477 106.129 243.715 106.163C247.527 106.293 252.43 106.458 253.08 110.182C253.279 111.335 253.158 112.313 252.794 113.102C252.413 113.933 251.772 114.548 250.992 114.921C250.23 115.285 249.338 115.432 248.419 115.345C247.207 115.241 245.942 114.739 244.868 113.838C244.391 113.431 242.78 112.409 241.203 111.542C240.06 110.919 238.959 110.382 238.37 110.252C237.53 110.07 236.248 109.836 235.044 109.68C234.117 109.559 233.233 109.481 232.627 109.498C231.899 109.524 231.275 109.68 230.86 109.819C231.145 110.295 231.414 110.763 231.05 111.56C230.634 112.478 227.637 112.218 225.601 112.045C224.172 111.924 223.141 112.01 221.712 112.071C218.749 112.192 215.622 112.322 213.36 114.02C213.205 114.159 212.979 114.202 212.78 114.124C212.486 114.011 212.338 113.682 212.451 113.388L212.52 113.214C212.416 113.266 212.312 113.318 212.217 113.37C212.061 113.457 211.862 113.466 211.689 113.379C211.403 113.24 211.29 112.894 211.429 112.608L211.498 112.469L210.84 112.677C210.536 112.773 210.216 112.608 210.121 112.313C210.051 112.088 210.121 111.846 210.302 111.698C210.398 111.612 210.51 111.482 210.64 111.343C211.723 110.191 213.976 107.809 218.428 108.095C218.142 107.861 217.874 107.601 217.614 107.315L217.571 107.263C216.826 106.38 216.211 105.531 215.786 104.578C215.336 103.599 215.093 102.525 215.119 101.234V101.174C215.266 98.2284 216.003 96.5479 217.415 95.0234C216.895 94.1052 216.47 92.8664 216.15 91.4718C215.777 89.8433 215.544 87.9895 215.448 86.2224C213.984 86.1791 212.512 85.8499 211.221 85.3562L211.186 85.3388C210.562 85.0963 209.93 84.7411 209.315 84.3947C208.587 83.9875 207.877 83.5804 207.244 83.4245L208.518 106.354C208.561 107.437 206.525 107.705 204.94 107.844V110.875C204.94 111.421 205.027 111.69 204.126 112.279C200.921 114.453 189.243 121.738 175.937 121.643C162.682 121.738 150.961 114.453 147.8 112.279C146.89 111.69 146.942 111.421 146.985 110.875V107.844C145.4 107.705 143.364 107.437 143.407 106.354L144.681 83.0347C144.031 83.2945 143.381 83.5891 142.723 83.9096L142.654 83.9442C142.325 84.0828 141.961 84.2474 141.623 84.412C141.32 84.5506 141.008 84.7065 140.713 84.8538C140.575 86.9067 139.7 89.4015 138.504 91.8096C137.196 94.4516 135.489 96.9984 133.956 98.7309C134.831 99.4672 135.368 100.429 135.602 101.459C135.914 102.793 135.715 104.24 135.126 105.444L135.1 105.487C134.658 106.371 133.627 107.488 132.535 108.537C132.137 108.918 131.73 109.29 131.34 109.628C132.198 109.533 133.116 109.507 134.025 109.541C135.914 109.619 137.82 109.975 139.206 110.529L139.258 110.546C139.648 110.72 140.055 110.91 140.445 111.179C140.843 111.456 141.198 111.811 141.424 112.27L141.45 112.322C141.831 113.119 141.718 113.448 141.276 113.673L141.216 113.699C140.445 114.055 139.587 113.994 138.764 113.907C138.331 113.864 137.776 113.803 137.049 113.76C136.183 113.708 135.195 113.587 134.155 113.466C132.648 113.292 131.037 113.11 129.607 113.076H129.555C127.788 113.015 125.709 113.041 124.236 113.058C123.613 113.067 123.084 113.076 122.876 113.076C122.218 113.076 120.277 113.206 118.605 113.318C117.306 113.405 116.163 113.483 115.859 113.483C115.253 113.483 114.837 113.362 114.56 113.154L114.525 113.128C114.196 112.868 114.083 112.53 114.127 112.149C114.161 111.872 114.291 111.577 114.473 111.291C114.551 111.17 114.647 111.049 114.75 110.927C113.979 111.213 113.156 111.291 112.247 111.17C111.337 111.04 110.592 110.642 110.046 110.061L110.029 110.044C109.457 109.42 109.102 108.606 108.964 107.696V107.662C108.86 106.917 108.903 106.051 109.085 105.254C109.258 104.517 109.553 103.824 109.969 103.313C110.038 103.218 110.133 103.14 110.254 103.105C110.558 103.001 110.878 103.166 110.982 103.469C110.982 103.469 111.649 105.176 112.359 105.687L112.385 105.704C112.983 106.111 113.555 106.328 114.066 106.406C114.465 106.475 114.837 106.466 115.158 106.406L114.958 105.669V105.643C114.465 103.842 114.707 101.598 115.366 99.4152C116.119 96.9031 117.41 94.4603 118.718 92.8924C121.395 89.133 122.296 84.9317 123.24 80.5919C123.691 78.5216 124.141 76.408 124.799 74.277M203.277 80.9211L203.684 80.7911C203.987 80.6958 204.308 80.8691 204.403 81.1636C204.455 81.3368 204.42 81.5274 204.325 81.666L204.031 82.1684L204.533 81.9432C204.819 81.8133 205.157 81.9432 205.287 82.2291C205.356 82.3936 205.347 82.5669 205.287 82.7142L205.261 82.7748L205.365 82.6968C206.768 81.614 208.345 82.4976 209.947 83.4071C210.528 83.7363 211.108 84.0655 211.654 84.2734L211.706 84.2907C213.395 84.9317 215.414 85.2782 217.241 84.9837C218.697 84.7498 220.04 84.0915 221.001 82.8528C221.192 82.6015 221.556 82.5582 221.798 82.7488C222.049 82.9394 222.093 83.3032 221.902 83.5457C220.741 85.0443 219.147 85.8239 217.423 86.1098C217.172 86.1531 216.921 86.1791 216.661 86.2051C216.748 87.9029 216.973 89.6787 217.328 91.2293C217.588 92.3813 217.926 93.4122 218.324 94.2004C219.095 93.4988 220.022 92.7971 221.105 91.9656L221.382 91.749C221.634 91.5584 221.989 91.6017 222.179 91.8529C222.37 92.1042 222.327 92.4593 222.075 92.6499L221.798 92.8664C218.246 95.5864 216.54 96.8944 216.323 101.243V101.26V101.278C216.306 102.378 216.514 103.287 216.886 104.119C217.267 104.959 217.822 105.73 218.498 106.536L218.532 106.57C219.866 108.078 221.867 108.753 222.015 108.797C222.318 108.892 222.483 109.212 222.387 109.515C222.292 109.819 221.971 109.983 221.668 109.888C217.181 108.476 214.495 109.628 212.901 110.849H212.936C213.239 110.746 213.551 110.91 213.646 111.213C213.664 111.265 213.672 111.317 213.672 111.361C213.967 111.222 214.322 111.361 214.443 111.672C214.504 111.82 214.495 111.976 214.435 112.114C216.661 111.144 219.234 111.04 221.694 110.945C223.176 110.884 224.241 110.789 225.722 110.919C227.438 111.066 229.959 111.283 230.045 111.101C230.167 110.832 230.037 110.616 229.898 110.382C229.768 110.174 229.638 109.957 229.56 109.68C229.474 109.394 229.629 109.091 229.907 108.987C230.011 108.935 231.085 108.407 232.627 108.363C233.294 108.346 234.238 108.424 235.217 108.554C236.456 108.719 237.764 108.952 238.648 109.143C239.358 109.299 240.562 109.879 241.784 110.546C243.404 111.439 245.101 112.521 245.639 112.972C246.522 113.717 247.562 114.133 248.558 114.219C249.277 114.28 249.961 114.176 250.542 113.899C251.088 113.63 251.538 113.206 251.807 112.634C252.066 112.054 252.162 111.3 251.997 110.39C251.503 107.575 247.129 107.428 243.724 107.315C242.425 107.272 241.246 107.229 240.415 107.055H240.389C241.186 107.506 242.087 107.861 243.109 108.181L243.637 108.346C245.976 109.082 247.518 109.559 249.944 111.387C250.195 111.577 250.247 111.932 250.057 112.183C249.866 112.435 249.511 112.487 249.26 112.296C246.999 110.598 245.526 110.131 243.3 109.438L242.762 109.273C241.42 108.848 240.259 108.355 239.237 107.679C238.362 107.099 237.599 106.38 236.924 105.461L236.898 105.436C236.542 105.046 236.283 104.396 236.118 103.703C235.893 102.802 235.797 101.78 235.806 101.243C235.823 100.247 236.101 99.112 236.317 98.1418C236.672 96.5566 237.106 94.6076 237.21 92.312C237.296 90.3197 236.967 88.2754 236.361 86.2137C235.754 84.1348 234.871 82.0298 233.874 79.9509C232.601 77.2915 230.834 73.8179 228.928 70.5782C227.524 68.2047 226.052 65.9438 224.622 64.2287C224.44 64.0035 224.189 63.7956 223.903 63.6137C222.716 62.8427 220.802 62.3923 218.783 62.4442C216.765 62.4962 214.677 63.0679 213.135 64.3413H213.127C212.65 64.7484 212.226 65.2162 211.87 65.7533C211.775 65.9005 211.697 66.0651 211.637 66.2384C211.437 66.7927 211.455 67.4164 211.619 67.9708C211.784 68.5079 212.096 68.9757 212.503 69.2355C212.598 69.2962 212.702 69.3481 212.806 69.3828C213.924 69.7813 214.833 70.2664 215.535 70.9853C216.245 71.7216 216.722 72.6745 216.93 73.9998C217.042 74.7015 217.129 75.6457 217.155 76.6332C217.155 76.8844 217.164 77.1356 217.155 77.3868C217.501 76.8757 217.822 76.3733 218.108 75.9142L218.134 75.8709L218.402 75.4551C218.576 75.1866 218.931 75.1173 219.191 75.2905C219.459 75.4638 219.528 75.8189 219.364 76.0788L219.095 76.4946L219.069 76.5379C218.229 77.8372 217.605 78.7988 216.938 79.5177L216.912 79.5437C216.341 80.2367 215.639 80.7738 214.764 81.1289C213.898 81.4841 212.875 81.666 211.654 81.666C210.034 81.666 209.046 81.1116 208.128 80.5919C207.574 80.28 207.045 79.9855 206.456 79.8989H206.43C205.815 79.8296 205.157 79.8989 204.628 80.0808C204.039 80.28 203.693 80.5053 203.242 80.9037M152.27 104.171C152.33 105.271 152.391 105.955 152.452 107.064C152.14 106.934 151.559 106.934 151.031 106.96C150.355 106.96 144.274 107.09 144.681 105.973C144.716 104.327 151.239 104.223 152.27 104.162M199.881 104.171C199.82 105.271 199.76 105.955 199.699 107.064C200.011 106.934 200.583 106.934 201.12 106.96C201.795 106.96 207.886 107.09 207.478 105.973C207.444 104.327 200.912 104.223 199.89 104.162M115.521 107.514C115.062 107.601 114.534 107.627 113.953 107.532C113.295 107.419 112.567 107.151 111.822 106.648L111.779 106.614C111.268 106.241 110.8 105.496 110.471 104.872C110.393 105.072 110.332 105.28 110.289 105.505C110.133 106.172 110.098 106.882 110.185 107.497V107.532C110.289 108.225 110.549 108.822 110.956 109.264L110.973 109.282C111.346 109.68 111.857 109.949 112.489 110.035C113.208 110.139 113.85 110.079 114.439 109.862L114.473 109.845C114.967 109.654 115.426 109.342 115.868 108.918C115.764 108.511 115.643 108.034 115.513 107.514M119.532 75.4551C118.961 75.8969 118.389 76.33 117.808 76.7631C117.575 77.0836 116.544 78.4783 116.18 80.5139C117.549 79.8642 118.9 78.92 120.139 77.8286C121.88 76.2953 123.405 74.4762 124.54 72.7351L124.566 72.7005C124.981 72.0335 125.337 71.3232 125.631 70.6042C125.692 70.4656 125.744 70.3183 125.804 70.1711C125.12 70.7948 124.418 71.4184 123.708 72.0248L123.665 72.0595L123.613 72.1028L123.595 72.1201L122.885 72.7351C121.889 73.584 120.858 74.4243 119.714 75.3078L119.636 75.3685L119.558 75.4291L119.532 75.4551ZM139.578 85.4341C138.816 85.6767 137.958 85.8586 137.049 85.8326C136.416 85.8153 135.767 85.694 135.117 85.4341C134.822 85.3215 134.545 85.1829 134.268 85.0183L134.242 85.001L134.216 84.9837C133.826 84.7498 133.454 84.4553 133.073 84.1001C132.847 83.8836 132.83 83.5198 133.047 83.2945C133.263 83.0606 133.627 83.052 133.852 83.2685L134.017 83.4158C134.164 83.5457 134.311 83.667 134.459 83.771C134.814 84.0308 135.16 84.2214 135.515 84.36C135.827 84.4813 136.148 84.5592 136.486 84.6026C137.473 84.7238 138.617 84.4986 140.046 83.9355C140.358 83.7796 140.783 83.5717 141.224 83.3638C141.632 83.1733 142.013 83 142.281 82.8787H142.307C143.659 82.2117 144.967 81.666 146.309 81.2935C147.687 80.9124 149.116 80.7132 150.667 80.7565H150.71C150.797 80.7565 150.884 80.7565 150.961 80.7565H150.996C151.221 80.7391 151.421 80.6958 151.551 80.6092C151.62 80.5659 151.663 80.5053 151.672 80.4186V80.3926V80.358V80.3147C151.672 80.1501 151.611 80.0375 151.516 79.9682C151.343 79.8469 151.065 79.7689 150.719 79.717H150.702C149.861 79.5957 148.856 79.6217 147.851 79.7343H147.834C146.682 79.8729 145.538 80.1155 144.655 80.4186L144.603 80.4359C143.97 80.6352 143.191 80.8344 142.385 80.973C140.739 81.2589 138.955 81.3282 137.43 80.5226C136.65 80.1068 136.009 79.4831 135.567 78.5822L135.541 78.5389L135.498 78.4436L135.481 78.3916L135.455 78.3397L135.429 78.2877L136.486 77.8459L136.503 77.8806L136.52 77.9152L136.555 77.9845L136.59 78.0538C136.919 78.7295 137.404 79.1972 137.984 79.5004C138.496 79.7689 139.085 79.9162 139.726 79.9855C139.552 78.9287 138.998 77.4648 138.262 76.1741L138.244 76.1394C137.517 74.8661 136.65 73.8006 135.879 73.5407C135.576 73.4454 135.42 73.1163 135.515 72.8131C135.567 72.6485 135.689 72.5272 135.836 72.4666C137.014 71.8429 138.807 70.6475 140.046 69.2355C140.852 68.3087 141.406 67.2952 141.328 66.3423V66.3163C141.224 65.58 140.462 65.2075 139.899 64.9303C139.786 64.8784 139.682 64.8264 139.552 64.7571C139.552 64.7571 139.5 64.7224 139.474 64.7051C138.729 64.2287 137.846 63.6743 136.936 63.2412C136.053 62.8167 135.134 62.5135 134.303 62.5135C133.627 62.5135 132.917 62.6088 132.302 62.7647L132.267 62.7734C131.643 62.9293 131.123 63.1459 130.838 63.3538L130.803 63.3798C130.448 63.631 130.118 63.9082 129.815 64.1507C129.278 64.5925 128.828 64.9563 128.438 65.0949L128.377 65.1122C127.329 65.4241 125.415 66.1864 123.517 67.1479C122.114 67.8582 120.719 68.6898 119.697 69.5214L119.68 69.5387C117.93 71.02 116.544 72.3713 115.357 73.8179C114.404 74.97 113.572 76.1914 112.767 77.5947C113.39 77.4214 114.101 77.1962 114.785 76.945C115.729 76.5899 116.622 76.1914 117.15 75.8103L117.176 75.7929C117.808 75.3338 118.398 74.8834 118.969 74.4503L118.995 74.4329L119.047 74.3896L119.073 74.3723L119.134 74.329C120.121 73.558 121.092 72.7698 122.036 71.9728C122.331 71.7216 122.625 71.4704 122.92 71.2192L122.937 71.1932L122.989 71.1499L123.006 71.1326C124.202 70.0844 125.371 69.0016 126.636 67.8149C126.861 67.5983 127.225 67.607 127.442 67.8409C127.546 67.9535 127.606 68.1008 127.598 68.248C127.598 68.326 127.598 68.3866 127.572 68.4472L127.546 68.5512C127.502 68.8024 127.476 69.0016 127.459 69.1922C127.026 70.5955 124.929 78.2271 124.479 80.7911C123.769 84.8451 122.365 90.3717 119.714 93.5941C118.502 95.058 117.297 97.3449 116.587 99.7097C115.989 101.711 115.755 103.738 116.18 105.314V105.34C116.31 105.782 116.422 106.215 116.526 106.631H116.535L116.769 107.523C116.873 107.956 116.977 108.355 117.115 108.848C117.141 108.918 117.15 108.996 117.141 109.074C117.28 109.611 117.358 109.949 117.358 109.957C117.419 110.243 117.245 110.52 116.977 110.616C116.552 110.815 115.894 111.361 115.556 111.889C115.469 112.019 115.409 112.14 115.392 112.227C115.487 112.279 115.669 112.305 115.981 112.305C116.266 112.305 117.384 112.227 118.649 112.14C120.347 112.028 122.322 111.889 122.998 111.889C123.457 111.889 123.864 111.889 124.34 111.88C125.822 111.863 127.927 111.828 129.711 111.898H129.746C131.262 111.932 132.891 112.114 134.407 112.296C135.429 112.409 136.399 112.53 137.239 112.582C137.95 112.625 138.53 112.686 138.998 112.738C139.561 112.799 139.942 112.876 140.505 112.703C140.375 112.452 140.159 112.244 139.908 112.071C139.613 111.863 139.258 111.698 138.92 111.551H138.903C137.638 111.049 135.871 110.72 134.103 110.65C132.44 110.581 130.786 110.737 129.564 111.17C129.27 111.274 128.94 111.118 128.836 110.824C128.75 110.581 128.836 110.321 129.027 110.174C129.729 109.585 130.846 108.649 131.868 107.679C132.882 106.709 133.826 105.695 134.199 104.95L134.216 104.916C134.693 103.937 134.848 102.768 134.606 101.685C134.389 100.749 133.878 99.8483 132.96 99.2939C132.509 99.0254 131.678 98.9734 131.149 98.9734C130.673 98.9734 130.179 99.0254 129.711 99.1207C128.49 99.3459 127.424 99.779 127.156 100.221L127.138 100.255L126.116 99.7444L126.134 99.7097L126.151 99.6751L126.194 99.6057L126.22 99.5711C126.723 98.8695 128.022 98.2631 129.469 97.9946C129.997 97.8993 130.543 97.8386 131.089 97.8386H131.236C131.894 97.8386 132.535 97.9253 133.081 98.1158C134.589 96.4527 136.304 93.9146 137.612 91.2812C138.617 89.2542 139.379 87.1839 139.63 85.4255" clip-rule="evenodd" fill-rule="evenodd"></path>
<path fill="#37021C" d="M134.164 64.8179C133.957 65.0518 133.982 65.4156 134.216 65.6235C134.45 65.8314 134.814 65.8054 135.022 65.5715C135.048 65.5368 135.074 65.5109 135.1 65.4935C135.126 65.4675 135.161 65.4416 135.195 65.4242C135.126 65.5368 135.083 65.6754 135.083 65.8227C135.083 66.2298 135.395 66.5417 135.802 66.5417C136.166 66.5417 136.521 66.2212 136.521 65.8227C136.521 65.6321 136.443 65.4675 136.33 65.3376C136.46 65.3896 136.581 65.4589 136.677 65.5455C136.711 65.5715 136.737 65.6061 136.763 65.6235C136.971 65.866 137.326 65.892 137.569 65.6841C137.812 65.4849 137.837 65.121 137.63 64.8785C137.569 64.8005 137.5 64.7399 137.439 64.6793C137.032 64.3241 136.477 64.1162 135.932 64.0989C135.369 64.0816 134.797 64.2462 134.364 64.6273C134.294 64.6879 134.225 64.7572 134.173 64.8179" clip-rule="evenodd" fill-rule="evenodd"></path>
<path fill="#37021C" d="M154.297 134.897C149.134 132.593 144.118 130.696 138.548 127.794C133.575 127.612 130.404 129.873 129.408 135.122C128.369 137.019 126.783 138.059 124.834 138.422C123.569 138.552 122.209 138.604 120.945 138.83C117.237 139.557 112.715 144.313 112.169 143.992C111.632 143.672 113.434 140.96 114.075 139.471C111.407 140.285 106.469 142.858 105.88 142.45C105.291 142.043 112.983 135.304 117.956 133.944C122.98 132.593 127.554 133.493 127.554 133.493C127.009 130.28 128.091 127.525 129.677 125.845C131.444 123.904 138.227 122.18 138.366 122.18C138.504 122.18 135.516 121.184 134.112 121.141C126.783 120.959 123.162 122.042 120.269 124.58C118.458 126.165 112.983 128.833 111.268 128.92C111.268 128.92 107.69 127.473 105.022 127.655C102.354 127.88 98.1957 129.647 97.8752 129.379C97.6066 129.067 99.0534 126.849 100.682 125.94C97.5114 125.897 91.9064 126.711 91.5426 126.122C91.2307 125.533 98.7415 122.276 104.797 122.319C111.987 122.544 114.075 124.719 114.257 124.398C114.395 124.034 115.842 120.829 117.739 119.374C119.68 117.919 123.119 115.978 132.665 115.805C142.264 115.58 146.336 118.785 155.432 123.22C164.528 127.698 176.379 127.516 176.561 127.516C176.786 127.516 188.645 127.698 197.785 123.22C206.872 118.785 210.944 115.571 220.49 115.805C230.08 115.987 233.519 117.927 235.416 119.374C237.366 120.82 238.812 124.034 238.951 124.398C239.089 124.71 241.169 122.544 248.359 122.319C254.423 122.276 261.977 125.533 261.613 126.122C261.249 126.711 255.688 125.897 252.517 125.94C254.102 126.841 255.592 129.058 255.28 129.379C255.012 129.647 250.845 127.889 248.177 127.655C245.509 127.473 241.888 128.92 241.888 128.92C240.216 128.824 234.732 126.165 232.921 124.58C229.985 122.051 226.407 120.968 219.035 121.141C217.675 121.184 214.695 122.18 214.825 122.18C214.911 122.18 221.703 123.896 223.514 125.845C225.056 127.525 226.182 130.28 225.636 133.493C225.636 133.493 230.21 132.584 235.183 133.944C240.207 135.304 247.848 142.043 247.267 142.45C246.722 142.858 241.792 140.276 239.072 139.471C239.705 140.96 241.515 143.672 240.969 143.992C240.424 144.313 235.945 139.557 232.237 138.83C230.92 138.613 229.612 138.561 228.304 138.422C226.398 138.059 224.822 137.019 223.782 135.122C222.786 129.873 219.615 127.612 214.643 127.794C209.029 130.687 204.057 132.593 198.894 134.897C186.194 140.64 166.979 140.692 154.279 134.897M130.041 126.901C128.551 128.348 128.178 132.965 128.681 133.095C129.218 133.19 129.313 130.158 131.487 128.261C133.662 126.312 136.867 126.945 136.867 126.451C136.91 125.992 132.163 124.822 130.032 126.901M95.8741 124.684C95.9174 124.909 97.4161 124.597 98.9927 124.502C100.977 124.415 103.108 124.545 103.203 124.866C103.385 125.316 100.717 126.72 100.942 127.031C101.21 127.352 104.294 124.771 111.667 127.439C112.663 126.72 113.07 126.079 113.572 125.134C111.944 124.407 108.548 123.099 104.476 123.142C100.361 123.185 95.8394 124.493 95.8827 124.675M249.035 123.151C244.92 123.107 241.524 124.415 239.895 125.143C240.441 126.096 240.848 126.728 241.792 127.447C249.164 124.779 252.292 127.361 252.517 127.04C252.794 126.72 250.117 125.325 250.256 124.866C250.343 124.554 252.517 124.415 254.509 124.502C256.051 124.589 257.585 124.909 257.628 124.684C257.628 124.502 253.149 123.194 249.035 123.151ZM216.549 126.451C216.592 126.945 219.806 126.312 221.98 128.261C224.155 130.158 224.198 133.19 224.744 133.095C225.289 132.965 224.882 128.348 223.427 126.901C221.261 124.822 216.549 126.001 216.549 126.451Z" clip-rule="evenodd" fill-rule="evenodd"></path>
<path fill="#37021C" d="M169.179 68.5282C169.179 68.5282 165.333 70.3386 162.76 72.5995C160.768 74.3666 158.957 74.817 157.242 74.5918C157.017 76.4889 157.147 78.3426 157.692 79.8845C164.883 79.3821 172.714 75.8132 176.015 70.9276C176.604 69.8882 177.097 69.1172 177.505 67.9391C174.698 67.8005 171.943 67.9824 169.179 68.5195" clip-rule="evenodd" fill-rule="evenodd"></path>
<path fill="#37021C" d="M133.555 58.5504C128.097 58.5504 122.64 58.6283 117.338 59.0268C118.291 57.4503 120.898 56.0989 123.029 55.2327C122.631 48.1122 122.718 40.5933 121.765 33.3949C127.37 30.8655 130.462 31.0214 133.546 31.0214C136.63 31.0214 139.636 30.8655 145.328 33.3949C144.384 40.5933 144.384 48.1036 143.985 55.2327C146.194 56.0989 148.732 57.4503 149.755 59.0268C144.461 58.637 138.917 58.5504 133.538 58.5504M124.961 51.248C124.961 52.4348 125.204 53.5435 125.204 54.8082C128.444 53.6995 130.185 53.5435 133.113 53.5435C136.041 53.5435 138.259 53.864 141.178 54.8082C141.178 53.5435 141.412 52.3568 141.412 51.1701C138.25 50.3038 135.712 49.9054 133.182 49.9054C130.254 49.9054 128.193 50.1479 124.953 51.248" clip-rule="evenodd" fill-rule="evenodd"></path>
<path fill="#37021C" d="M217.474 57.5878C221.624 57.5878 235.008 58.4367 235.008 58.4367C235.008 58.4367 233.007 55.8207 229.005 54.6686C227.775 46.7512 226.466 40.0552 225.236 32.1378C222.542 31.3668 220.082 31.0636 217.474 31.2109C214.858 31.055 212.398 31.3668 209.712 32.1378C208.482 40.0552 207.174 46.7512 205.944 54.6686C201.942 55.8207 199.949 58.4367 199.949 58.4367C199.949 58.4367 213.325 57.5878 217.474 57.5878ZM221.936 49.7224V53.1873C223.859 53.3346 225.167 53.7244 226.934 54.1835L226.319 50.6492C224.63 50.1901 223.547 49.8783 221.936 49.731M214.867 48.7955V53.4125H220.48V47.7993H214.867V48.7955ZM208.482 54.1748C210.327 53.5598 211.635 53.2566 213.481 53.1786V49.6444C211.791 49.8003 210.709 50.1815 208.95 50.7185L208.482 54.1835V54.1748Z" clip-rule="evenodd" fill-rule="evenodd"></path>
<path fill="#37021C" d="M177.553 23.8561C171.463 24.1073 167.149 23.6049 162.159 25.8831C160.548 26.6454 157.256 28.0834 154.12 28.4212C149.719 28.9236 145.491 27.9967 145.569 26.221C145.994 24.6964 150.559 23.5183 154.709 21.4047C158.685 18.78 160.461 15.9041 162.237 12.6904C164.013 9.47662 165.364 6.43613 168.414 3.63819C170.865 1.35999 174.166 0.259871 177.544 0C181.009 0.251208 184.223 1.35133 186.77 3.63819C189.733 6.43613 191.171 9.47662 192.938 12.6904C194.628 15.9041 196.403 18.78 200.466 21.4047C204.529 23.5183 209.181 24.6964 209.519 26.221C209.597 27.9967 205.37 28.9236 201.055 28.4212C197.842 28.0834 194.628 26.6454 192.938 25.8831C187.948 23.6049 183.634 24.1073 177.544 23.8561M155.566 26.0217C156.58 24.7484 157.68 22.9812 158.269 21.6212C155.644 23.4837 152.517 24.9996 150.23 25.9351C151.07 26.3596 154.38 26.195 155.558 26.0217M205.387 25.9351C203.109 25.0082 199.973 23.4837 197.348 21.6212C197.945 22.9726 199.046 24.7484 200.051 26.0217C201.237 26.195 204.529 26.3596 205.378 25.9351" clip-rule="evenodd" fill-rule="evenodd"></path>
<path fill="#37021C" d="M347.547 241.933C347.547 239.932 348.24 238.26 349.626 236.9C351.012 235.54 352.701 234.855 354.694 234.855C356.686 234.855 358.384 235.54 359.762 236.9C361.148 238.26 361.841 239.932 361.841 241.933C361.841 243.934 361.148 245.605 359.762 246.965C358.376 248.325 356.686 249.001 354.694 249.001C352.701 249.001 351.012 248.317 349.626 246.965C348.24 245.614 347.547 243.925 347.547 241.933ZM354.694 247.477C356.037 247.477 357.189 247.035 358.176 246.143H358.038C357.154 246.169 356.409 245.813 355.82 245.06C355.352 244.315 354.893 243.57 354.425 242.842C354.347 242.816 354.252 242.799 354.139 242.799H354.044C354.027 243.362 354.053 244.038 354.122 244.809C354.356 244.86 354.59 244.912 354.815 244.956C355.049 245.008 355.162 245.19 355.162 245.484C355.162 245.865 354.988 246.065 354.659 246.065C354.486 246.065 354.235 246.056 353.905 246.039C353.576 246.021 353.316 246.021 353.152 246.021C353.013 246.021 352.805 246.021 352.537 246.039C352.268 246.056 352.06 246.065 351.922 246.065C351.385 246.065 351.107 245.865 351.107 245.467C351.107 245.224 351.229 245.06 351.471 244.982C351.662 244.93 351.861 244.878 352.069 244.826C352.121 244.67 352.147 244.445 352.147 244.15V240.088C352.147 239.542 352.13 239.204 352.086 239.091C351.878 239.039 351.662 238.987 351.445 238.927C351.229 238.866 351.125 238.702 351.125 238.416C351.125 238.095 351.281 237.905 351.592 237.853C351.627 237.853 351.878 237.844 352.329 237.818C352.987 237.792 353.724 237.783 354.529 237.783C356.556 237.783 357.561 238.563 357.561 240.122C357.561 240.997 357.119 241.681 356.227 242.167C357.414 244.107 358.211 245.086 358.627 245.086C358.774 245.086 358.878 245.146 358.956 245.259C359.64 244.297 359.978 243.18 359.978 241.915C359.978 240.382 359.476 239.074 358.479 238C357.483 236.926 356.218 236.389 354.702 236.389C353.186 236.389 351.922 236.926 350.925 238C349.929 239.074 349.427 240.373 349.427 241.915C349.427 243.457 349.912 244.748 350.899 245.813C351.922 246.922 353.186 247.477 354.702 247.477M354.035 239.091V241.508H354.399C355.17 241.508 355.56 241.084 355.56 240.252C355.56 239.906 355.447 239.62 355.214 239.403C354.98 239.187 354.694 239.074 354.339 239.074C354.209 239.074 354.105 239.074 354.027 239.1"></path>
<path fill="#37021C" d="M21.8652 238.228L21.8479 245.288H38.8619L38.8792 238.228H34.1232V171.476H53.3636V178.353H60.6578L60.6491 164.398H0.103957L0 178.353H7.38081V171.476H26.5259V238.228H21.8652Z"></path>
<path fill="#37021C" d="M173.483 208.76C177.919 216.574 181.956 223.633 185.464 229.749C188.947 235.804 191.901 240.906 194.257 244.908L194.456 245.246L202.366 245.61V171.46H207.122V164.383H190.004V171.46H194.56V231.715L192.135 227.453C190.939 225.357 189.683 223.148 188.358 220.818C185.36 215.543 181.869 209.384 177.893 202.359C173.917 195.333 170.425 189.183 167.428 183.899C164.214 178.234 161.702 173.825 159.9 170.68L157.604 166.297C157.136 165.44 156.868 164.946 156.816 164.842L156.617 164.426H141.032V171.503H145.788L145.771 238.273H141.023L141.075 245.35H157.994V238.273H153.152L153.195 173.6L155.612 177.723C157.336 180.659 159.233 183.934 161.286 187.485C165.002 193.921 169.091 201.077 173.449 208.751"></path>
<path fill="#37021C" d="M118.176 240.237C121.104 238.453 123.772 236.305 126.102 233.862C128.424 231.419 130.486 228.613 132.218 225.503C133.951 222.384 135.276 219.084 136.143 215.697C137.009 212.293 137.451 208.698 137.451 205.008C137.451 201.317 137.009 197.723 136.143 194.318C135.276 190.923 133.959 187.614 132.218 184.504C130.486 181.403 128.433 178.587 126.102 176.145C123.772 173.693 121.104 171.554 118.176 169.769C115.248 167.985 112.138 166.625 108.95 165.741C105.762 164.849 102.392 164.398 98.9353 164.398C95.4788 164.398 92.1176 164.849 88.9469 165.741C85.7763 166.633 82.701 167.993 79.7989 169.778C76.9055 171.562 74.2719 173.71 71.9936 176.153C69.7152 178.596 67.7054 181.411 66.0162 184.521C64.3356 187.622 63.0621 190.923 62.2218 194.327C61.3815 197.731 60.957 201.326 60.957 205.016C60.957 208.706 61.3815 212.293 62.2218 215.706C63.0621 219.101 64.3356 222.402 66.0162 225.511C67.6968 228.621 69.7066 231.436 71.9936 233.879C74.2806 236.322 76.9055 238.47 79.7989 240.255C82.701 242.039 85.7763 243.399 88.9469 244.291C95.3055 246.076 102.556 246.076 108.95 244.291C112.138 243.399 115.239 242.048 118.176 240.263M98.9353 238.271C96.1458 238.271 93.443 237.899 90.9047 237.162C88.3492 236.417 85.8716 235.283 83.5153 233.793C81.159 232.303 79.0192 230.527 77.1653 228.517C75.3548 226.551 73.7522 224.316 72.4181 221.865L72.3054 221.657C70.9454 219.127 69.9058 216.442 69.2301 213.696C68.5458 210.95 68.2079 208.039 68.2079 205.051C68.2079 202.062 68.5544 199.152 69.2301 196.397C69.9145 193.634 70.9454 190.931 72.3141 188.385C73.6742 185.829 75.3115 183.508 77.174 181.489C79.0192 179.48 81.159 177.695 83.5239 176.197C85.8803 174.707 88.3665 173.572 90.9134 172.827C95.9985 171.354 101.889 171.354 106.992 172.827C109.565 173.572 112.086 174.698 114.468 176.188C116.85 177.678 119.025 179.462 120.93 181.489C122.828 183.508 124.508 185.829 125.929 188.385C127.254 190.767 128.277 193.27 128.987 195.825L129.126 196.38C129.836 199.135 130.191 202.028 130.191 204.99C130.191 207.953 129.836 210.846 129.126 213.601L129.03 213.982C128.32 216.615 127.272 219.171 125.929 221.596C124.508 224.151 122.828 226.473 120.93 228.491C119.025 230.518 116.85 232.303 114.477 233.784C112.094 235.274 109.573 236.409 107 237.154C104.454 237.89 101.742 238.262 98.9526 238.262"></path>
<path fill="#37021C" d="M267.931 238.201H264.622V245.278H281.324V238.201H276.741L251.93 165.056L239.577 165.039L214.645 238.201H210.262V245.278H227.172V238.201H223.585L229.234 221.544H262.291L267.939 238.201H267.931ZM232.023 213.955L245.719 172.861L259.71 213.955H232.014H232.023Z"></path>
<path fill="#37021C" d="M339.559 238.218L302.94 203.612L336.518 171.448H339.749V164.371H339.715H322.597H322.588L322.597 171.448H326.278L298.973 197.886L298.929 171.379H303.486V164.371H286.576V171.379H291.133L291.15 238.218H286.593V245.295H303.504V238.218H298.947L298.964 209.424L329.743 238.218H325.871V245.295H342.781V238.218H339.559Z"></path>
</svg>
