<svg xmlns="http://www.w3.org/2000/svg" fill="none" viewBox="0 0 438 231" height="231" width="438">
<path fill="#37021C" d="M261.742 200.161C258.395 202.231 248.986 208.761 242.462 213.327C244.285 210.978 246.652 207.859 249.724 203.765C250.841 202.981 259.18 197.251 264.011 196.852C264.582 196.805 264.836 196.888 264.925 196.926C264.91 197.309 264.179 198.657 261.742 200.161ZM233.964 213.169C235.06 211.341 236.194 209.292 237.289 207.247C237.788 206.687 240.618 203.513 243.828 200.133C249.65 193.999 252.181 191.945 253.278 191.303C254.533 190.566 255.191 190.459 255.471 190.459C255.59 190.459 255.641 190.482 255.64 190.477C255.834 190.749 255.656 192.505 253.38 195.478C252.48 196.653 251.139 198.445 249.59 200.516C245.395 206.117 237.716 216.376 236.055 217.822C236.033 217.839 236.014 217.852 235.993 217.866C235.278 217.927 232.942 218.037 230.588 218.14C231.459 217.096 232.553 215.527 233.964 213.169ZM224.185 210.023C223.793 210.593 223.049 210.8 222.414 210.515C220.31 209.564 216.829 208.355 212.008 206.898C211.985 206.846 211.959 206.795 211.926 206.747L208.699 202.086C210.152 202.08 212.679 202.131 215.432 202.473C220.754 203.134 224.556 204.572 226.454 206.633C225.666 207.828 224.911 208.968 224.185 210.023ZM266.878 196.244C266.676 195.63 266.013 194.623 263.844 194.805C260.702 195.063 256.477 197.174 253.24 199.074C253.932 198.15 254.536 197.351 255.014 196.727C257.598 193.349 258.409 190.506 257.181 189.119C256.52 188.369 255.125 187.834 252.238 189.529C249.857 190.924 244.911 195.958 241.036 200.094C242.116 198.02 243.022 196.308 243.548 195.494C244.956 193.313 245.196 191.404 244.185 190.389C243.159 189.359 241.395 189.628 238.945 191.193C235.162 193.607 231.182 199.459 227.61 204.878C225.279 202.62 221.266 201.123 215.655 200.429C213.074 200.11 210.723 200.036 209.182 200.029C212.997 199.572 219.687 198.843 223.564 198.843C227.959 198.843 230.972 196.494 232.214 194.482C233.037 193.15 233.217 191.8 232.708 190.778C232.316 189.998 231.284 189.443 227.349 189.096C224.72 188.865 221.079 188.77 216.818 188.822C207.79 188.934 196.967 189.684 187.868 190.834C177.501 192.142 169.777 197.73 165.124 202.187C160.096 207 157.534 211.457 157.428 211.645C157.147 212.137 157.319 212.765 157.813 213.045C157.973 213.137 158.148 213.18 158.321 213.18C158.678 213.18 159.025 212.992 159.214 212.661C159.314 212.486 169.323 195.249 188.126 192.875C196.939 191.76 207.088 191.037 215.972 190.889C226.193 190.722 230.136 191.389 230.908 191.806C230.989 192.112 230.918 192.669 230.465 193.402C229.424 195.087 226.886 196.787 223.564 196.787C218.001 196.787 207.261 198.188 206.105 198.341L204.055 195.38C203.732 194.913 203.092 194.797 202.625 195.12C202.159 195.443 202.043 196.085 202.366 196.552L208.89 205.975C203.309 204.352 196.283 202.464 187.839 200.314C182.955 199.071 177.966 199.773 173.411 202.346C169.99 204.279 168.027 206.57 167.946 206.668C167.578 207.099 167.63 207.749 168.063 208.115C168.498 208.481 169.146 208.429 169.513 207.997C169.584 207.913 176.77 199.618 187.333 202.306C205.436 206.914 216.955 210.304 221.568 212.387C223.108 213.083 224.92 212.577 225.877 211.188C226.768 209.897 227.69 208.497 228.666 207.011C232.292 201.502 236.402 195.255 240.051 192.927C241.689 191.881 242.517 191.792 242.726 191.849C242.803 192.071 242.729 192.97 241.82 194.38C241.13 195.451 239.963 197.698 238.487 200.543C236.636 204.112 234.332 208.553 232.201 212.115C228.862 217.688 227.696 218.147 227.499 218.182C224.707 218.675 187.506 218.486 173.408 218.373H173.4C172.836 218.373 172.376 218.828 172.371 219.392C172.368 219.959 172.823 220.424 173.392 220.427C173.734 220.432 175.349 220.443 177.822 220.46C176.687 222.252 174.534 225.519 172.546 228.49C172.231 228.962 172.357 229.6 172.828 229.917C173.005 230.033 173.202 230.089 173.398 230.089C173.731 230.089 174.056 229.93 174.254 229.634C176.567 226.175 179.284 222.072 180.217 220.476C186.361 220.514 195.716 220.562 204.53 220.562C214.122 220.562 223.073 220.505 226.54 220.32C226.624 220.342 226.71 220.358 226.803 220.358C226.815 220.358 226.831 220.358 226.846 220.357C234.197 220.048 235.961 219.955 236.514 219.869C236.53 219.868 236.547 219.865 236.565 219.862C236.692 219.838 236.745 219.815 236.804 219.787C236.812 219.785 236.818 219.78 236.824 219.777C236.829 219.776 236.834 219.774 236.839 219.771C236.928 219.726 237.031 219.658 237.151 219.565C239.183 218.134 257.922 204.941 262.823 201.911C265.811 200.063 267.402 197.838 266.878 196.244Z"></path>
<path fill="#37021C" d="M280.8 42.2049C278.945 47.4682 276.613 52.3864 273.828 56.9372C269.527 63.234 262.34 65.7002 254.772 68.2944C249.423 70.1288 243.891 72.0257 239.118 75.3842C237.517 76.5094 236.079 77.7581 234.785 79.1308C235.704 77.0893 236.677 75.0578 237.675 73.0794C243.808 62.8161 252.842 57.9104 261.588 53.1626C269.902 48.6478 277.902 44.3007 282.783 35.7753C282.225 37.8698 281.571 40.0195 280.8 42.2049ZM260.462 72.9625C257.413 75.6853 252.944 78.391 248.622 81.007C239.995 86.2298 231.076 91.6305 230.937 98.4151V113.699C230.186 113.503 229.455 113.382 228.746 113.326L228.808 96.8745C229.297 94.015 230.211 90.8084 231.405 87.4639C236.441 76.5372 246.048 73.2411 255.373 70.0452C260.104 68.4237 264.687 66.848 268.597 64.3839C266.133 67.4585 263.419 70.3226 260.462 72.9625ZM238.056 117.534C236.513 116.209 234.807 115.15 232.955 114.389C232.979 114.305 232.995 114.218 232.995 114.125V111.06C235.2 112.516 236.962 114.785 238.056 117.534ZM242.521 157.704C240.045 164.022 236.221 168.732 231.463 171.33C217.226 179.106 207.292 181.311 201.936 177.891C198.043 175.404 196.442 169.803 197.041 160.772C197.078 160.206 196.649 159.716 196.082 159.679C195.515 159.646 195.026 160.07 194.99 160.636C194.818 163.216 194.826 165.542 195.007 167.63C192.357 165.827 190.058 161.347 188.972 155.696C187.798 149.59 188.11 142.764 189.849 136.474C191.945 128.895 195.909 122.391 201.631 117.144C210.681 108.844 218.888 105.891 226.709 108.12L226.69 113.336C221.15 113.832 217.487 117.956 217.293 118.181C216.92 118.609 216.965 119.259 217.393 119.63C217.823 120.002 218.471 119.957 218.844 119.529C218.896 119.469 224.156 113.541 231.205 115.922C238.976 118.549 244.209 126.937 245.204 138.36C245.781 144.957 244.827 151.827 242.521 157.704ZM229.721 46.0298C230.039 47.6745 230.447 49.353 230.869 51.098C232.998 59.9002 235.645 70.8407 228.842 88.1572L228.865 81.632H228.85C228.862 81.4663 228.854 81.3077 228.848 81.1788C228.598 75.5533 228.098 59.522 229.721 46.0298ZM244.585 4.11331C247.956 22.2963 250.143 45.576 243.168 59.0743C243.131 59.1478 243.106 59.2228 243.086 59.3004C242.569 60.1158 242.037 60.9784 241.496 61.8826C243.391 52.7029 242.144 44.3141 240.924 36.1315C239.586 27.1628 238.322 18.6644 241.566 10.056C242.633 7.88249 243.653 5.90005 244.585 4.11331ZM231.049 37.9773C231.294 36.8719 231.558 35.8105 231.85 34.8086C233.659 28.5946 235.747 23.0387 237.839 18.1542C237.274 24.1784 238.166 30.1815 239.094 36.4035C240.636 46.7489 242.223 57.4328 237.197 69.5337C236.259 71.3151 235.333 73.1569 234.434 75.0299C236.067 64.7182 234.232 57.1296 232.667 50.6635C231.573 46.1419 230.593 42.0895 231.049 37.9773ZM259.347 45.29C267.479 38.4802 277.446 30.1318 285.663 16.6926C285.604 18.1728 285.503 19.7631 285.342 21.4463C284.38 29.4364 281.693 35.5099 276.94 40.4779C272.468 45.1486 266.754 48.2511 260.704 51.5366C254.576 54.8639 248.313 58.2681 242.921 63.5001C244.145 61.4374 245.325 59.5744 246.4 57.9921C249.318 53.6908 253.966 49.7982 259.347 45.29ZM195.515 68.3382C187.341 58.4744 178.891 48.275 169.849 47.7793C168.077 47.6804 166.33 47.971 164.623 48.6346C168.451 44.5668 172.553 41.4963 176.463 39.8529C181.882 37.5753 186.698 37.9826 190.778 41.0618L190.792 41.0723C192.262 42.1884 193.547 44.4581 194.509 47.6381C195.265 50.1366 195.546 52.3095 195.547 52.3321C195.603 52.7666 195.928 53.1176 196.356 53.2085C196.785 53.2994 197.224 53.1077 197.449 52.7314L201.705 45.6376C201.822 45.4466 201.995 45.3849 202.089 45.3657C202.183 45.3458 202.368 45.3332 202.548 45.4638C204.266 46.6992 206.808 48.5482 209.158 50.3283C209.447 50.5453 209.391 50.952 209.216 51.2353C207.668 53.7631 205.644 58.0292 205.558 58.209C205.378 58.5865 205.446 59.037 205.73 59.3448C206.013 59.6528 206.456 59.7582 206.848 59.6102L213.665 57.0519C216.157 63.9141 216.939 73.7865 217.466 80.4192C217.616 82.3148 217.747 83.9522 217.892 85.22C217.944 85.6912 218.024 86.1515 218.116 86.6047C210.971 86.9908 203.452 77.9179 195.515 68.3382ZM152.367 55.0231C155.386 46.2375 161.006 40.6862 169.55 38.0536C172.274 37.2136 174.948 36.7937 177.547 36.7937C178.052 36.7937 178.554 36.8095 179.054 36.8414C177.941 37.1049 176.81 37.4764 175.667 37.9581C165.199 42.3568 154.586 55.5678 149.833 68.9691C150.149 64.2533 150.845 59.4556 152.367 55.0231ZM287.788 12.759C287.786 12.2911 287.468 11.8838 287.014 11.769C286.562 11.6536 286.087 11.8593 285.861 12.2679C277.489 27.4136 266.697 36.452 258.027 43.7137C254.048 47.0475 250.464 50.0524 247.619 53.1779C248.697 49.318 249.388 44.8733 249.673 39.8795C250.286 29.2341 249.066 16.0949 246.05 0.829787C245.966 0.401135 245.62 0.0734352 245.189 0.0103794C244.757 -0.0512434 244.333 0.16563 244.131 0.551768L243.708 1.36051C239.893 8.62881 234.13 19.6112 229.877 34.2341C225.709 48.5602 226.464 73.8582 226.795 81.2698C226.803 81.443 226.808 81.5585 226.81 81.6142V81.6247L226.752 96.9302C224.714 95.2543 220.572 90.571 219.933 84.9866C219.795 83.7544 219.666 82.1336 219.516 80.2567C218.955 73.1908 218.108 62.5116 215.213 55.3468C215.004 54.828 214.421 54.5733 213.899 54.769L208.55 56.7759C209.262 55.3594 210.19 53.58 210.969 52.3088C211.741 51.0469 211.502 49.525 210.399 48.6896C208.032 46.8956 205.476 45.0386 203.749 43.7945C203.151 43.3653 202.395 43.2035 201.674 43.352C200.954 43.5006 200.322 43.9485 199.943 44.58L197.086 49.3419C196.402 46.3324 194.923 41.6384 192.049 39.4456C191.76 39.2034 189.561 37.4106 185.782 36.1089C182.14 34.8543 176.264 33.8327 168.945 36.0884C164.076 37.5891 159.998 40.0532 156.825 43.4124C154.069 46.329 151.916 50.0113 150.424 54.355C147.747 62.1441 147.523 70.8812 147.523 78.4587C147.523 79.0007 147.944 79.4499 148.486 79.4837C149.027 79.5157 149.502 79.1262 149.571 78.5888C150.496 71.3802 153.952 62.9906 159.053 55.5724C159.396 55.0736 159.745 54.5825 160.098 54.1008C160.119 54.0822 160.143 54.0683 160.162 54.0497C163.283 51.0289 166.413 49.649 169.738 49.8328C177.882 50.2793 186.04 60.1265 193.931 69.6485C202.022 79.4141 209.697 88.6747 217.667 88.6747C217.998 88.6747 218.331 88.6575 218.662 88.6244C219.589 91.3804 221.096 93.6886 222.373 95.3054C223.354 96.5468 225.293 98.6719 226.743 99.3757L226.719 105.991C218.328 103.836 209.655 106.994 200.24 115.629C194.316 121.062 190.037 128.082 187.868 135.927C186.045 142.515 185.722 149.674 186.953 156.084C188.333 163.268 191.539 168.633 195.327 170.115C196.124 174.641 197.949 177.782 200.83 179.623C202.784 180.87 205.217 181.496 208.098 181.496C209.478 181.496 210.961 181.352 212.542 181.066C217.901 180.09 224.598 177.423 232.449 173.136C237.635 170.302 241.782 165.227 244.437 158.456C246.854 152.288 247.856 145.087 247.254 138.181C246.636 131.097 244.453 125.09 241.069 120.717C240.151 115.333 237.15 110.858 232.995 108.676V98.4463C233.119 92.7963 241.54 87.6968 249.687 82.7666C254.089 80.1015 258.64 77.3453 261.83 74.4965C271.286 66.0526 278.32 55.4185 282.738 42.8876C286.992 30.8272 287.832 19.8461 287.788 12.759Z"></path>
<path fill="#37021C" d="M54.7712 121.762H46.1445L46.0663 122.079L39.1283 149.993L32.5772 122.084L32.5016 121.762H22.5026L22.427 122.083L15.8208 149.993L8.93789 122.08L8.85954 121.762H0L0.133451 122.283L10.6392 163.134L10.7194 163.446H20.7111L20.7867 163.126L27.3849 135.307L33.9839 163.126L34.0595 163.446H44.0512L44.1314 163.134L54.6373 122.283L54.7712 121.762Z"></path>
<path fill="#37021C" d="M76.0147 121.762H67.5938V163.447H76.0147V121.762Z"></path>
<path fill="#37021C" d="M100.12 155.143V121.762H91.6992V163.448H116.411L116.459 163.086L117.451 155.615L117.514 155.143H100.12Z"></path>
<path fill="#37021C" d="M144.811 155.143H138.808V130.065H144.811C153.343 130.065 155.134 136.884 155.134 142.605C155.134 152.968 149.521 155.143 144.811 155.143ZM159.365 157.42C162.411 153.803 164.021 148.681 164.021 142.605C164.021 136.529 162.411 131.407 159.365 127.79C157.741 125.863 155.718 124.373 153.353 123.362C150.871 122.3 147.997 121.762 144.811 121.762H130.387V163.448H144.811C147.997 163.448 150.871 162.908 153.353 161.847C155.718 160.835 157.741 159.346 159.365 157.42Z"></path>
<path fill="#37021C" d="M209.975 144.384C210.78 143.534 211.915 143.028 213.27 142.913L219.378 151.152C218.034 152.035 216.334 152.537 214.653 152.537C212.864 152.537 211.353 152.038 210.284 151.095C209.294 150.221 208.748 148.997 208.748 147.652C208.748 146.364 209.173 145.234 209.975 144.384ZM213.989 158.723C217.191 158.723 220.478 157.806 223.074 156.197L224.54 158.127L224.657 158.281H232.673L232.212 157.659L227.717 151.625C229.84 148.25 230.466 144.044 229.578 139.117L229.527 138.835L229.243 138.798L223.212 138.045L222.668 137.977L222.786 138.515C223.343 141.053 223.434 143.35 223.059 145.358L213.739 132.705H225.633L225.679 132.368L226.432 126.915L226.494 126.473H205.575V132.442L205.65 132.545L209.56 137.84C205.161 139.067 202.027 143.103 202.027 147.652C202.027 153.964 207.17 158.723 213.989 158.723Z"></path>
<path fill="#37021C" d="M283.785 121.16C278.485 121.16 274.085 123.306 271.063 127.368C268.231 131.173 266.734 136.434 266.734 142.586C266.734 149.81 268.601 155.37 272.283 159.116C275.429 162.319 279.771 164.012 284.835 164.012C289.835 164.012 295.092 162.324 299.26 159.383L299.486 159.224L299.427 158.953L297.791 151.6L297.665 151.034L297.169 151.333C292.415 154.197 288.305 155.65 284.953 155.65C278.936 155.65 275.622 151.01 275.622 142.586C275.622 138.753 276.351 135.494 277.732 133.162C279.162 130.742 281.256 129.464 283.785 129.464C286.572 129.464 288.469 130.66 289.585 133.122C290.52 135.185 290.956 138.191 290.956 142.586V143.062L291.428 143L299.481 141.949L299.844 141.902V141.536C299.844 135.537 298.646 130.732 296.285 127.252C293.542 123.209 289.337 121.16 283.785 121.16Z"></path>
<path fill="#37021C" d="M328.734 155.65C324.265 155.65 318.937 153.383 318.937 142.587C318.937 138.56 319.696 135.389 321.193 133.161C322.84 130.707 325.377 129.463 328.734 129.463C332.063 129.463 334.581 130.707 336.223 133.161C336.747 133.944 337.148 134.544 337.457 135.081C337.902 136.192 338.226 137.45 338.429 138.85C338.472 139.783 338.473 140.967 338.473 142.587C338.473 153.383 333.175 155.65 328.734 155.65ZM328.734 121.16C325.67 121.16 322.894 121.713 320.486 122.806C318.19 123.846 316.221 125.378 314.634 127.356C311.635 131.094 310.049 136.362 310.049 142.587C310.049 148.811 311.635 154.077 314.634 157.817C316.221 159.794 318.19 161.326 320.486 162.366C322.894 163.459 325.67 164.012 328.734 164.012C334.678 164.012 339.537 161.869 342.783 157.816C345.778 154.074 347.359 148.808 347.359 142.587C347.359 136.365 345.778 131.098 342.783 127.357C339.537 123.302 334.678 121.16 328.734 121.16Z"></path>
<path fill="#37021C" d="M374.02 121.16C368.72 121.16 364.321 123.306 361.297 127.368C358.466 131.173 356.969 136.434 356.969 142.586C356.969 149.81 358.837 155.37 362.517 159.116C365.664 162.319 370.005 164.012 375.071 164.012C380.069 164.012 385.326 162.324 389.494 159.383L389.722 159.224L389.661 158.953L388.027 151.6L387.901 151.034L387.405 151.333C382.649 154.197 378.539 155.65 375.187 155.65C369.172 155.65 365.858 151.01 365.858 142.586C365.858 138.753 366.587 135.494 367.967 133.162C369.398 130.742 371.491 129.464 374.02 129.464C376.806 129.464 378.705 130.66 379.819 133.122C380.756 135.185 381.191 138.191 381.191 142.586V143.062L381.662 143L389.715 141.949L390.08 141.902V141.536C390.08 135.537 388.881 130.732 386.521 127.252C383.777 123.209 379.571 121.16 374.02 121.16Z"></path>
<path fill="#37021C" d="M418.956 155.65C414.488 155.65 409.159 153.383 409.159 142.587C409.159 138.56 409.919 135.389 411.416 133.161C413.064 130.707 415.601 129.463 418.956 129.463C422.286 129.463 424.805 130.707 426.446 133.161C426.97 133.944 427.373 134.544 427.678 135.082C428.124 136.192 428.451 137.45 428.653 138.85C428.694 139.783 428.696 140.967 428.696 142.587C428.696 153.383 423.399 155.65 418.956 155.65ZM433.005 127.357C429.761 123.302 424.903 121.16 418.956 121.16C415.892 121.16 413.118 121.713 410.71 122.806C408.414 123.846 406.446 125.378 404.858 127.356C401.856 131.094 400.271 136.362 400.271 142.587C400.271 148.811 401.856 154.077 404.858 157.817C406.446 159.794 408.414 161.326 410.71 162.366C413.118 163.459 415.892 164.012 418.956 164.012C424.903 164.012 429.761 161.869 433.005 157.816C436.001 154.074 437.584 148.808 437.584 142.587C437.584 136.365 436.001 131.098 433.005 127.357Z"></path>
</svg>
