<svg xmlns="http://www.w3.org/2000/svg" fill="none" viewBox="0 0 856 242" height="242" width="856">
<path fill="#37021C" d="M844.566 43.7787H846.322C846.918 43.8413 847.518 43.71 848.034 43.4042C848.183 43.2866 848.303 43.1353 848.383 42.9626C848.462 42.79 848.5 42.6009 848.493 42.4108C848.498 42.1573 848.419 41.9092 848.269 41.7046C848.119 41.4894 847.907 41.3251 847.661 41.2337C847.187 41.1063 846.697 41.0553 846.207 41.0827H844.567V43.7648L844.566 43.7787ZM843.125 48.811V39.8708H846.202C846.972 39.8373 847.741 39.9207 848.486 40.1182C848.945 40.2755 849.342 40.5785 849.614 40.9814C849.883 41.365 850.028 41.822 850.029 42.2906C850.032 42.608 849.971 42.9227 849.849 43.216C849.728 43.5093 849.549 43.7753 849.324 43.9982C848.828 44.4955 848.162 44.7865 847.46 44.8128C847.742 44.9206 848 45.0826 848.22 45.2896C848.726 45.8303 849.17 46.4253 849.546 47.0637L850.638 48.814H848.883L848.089 47.4084C847.713 46.6294 847.201 45.9239 846.577 45.3253C846.236 45.1017 845.831 44.9969 845.425 45.0273H844.575V48.8229H843.128L843.125 48.811ZM846.773 37.2742C845.578 37.2815 844.404 37.5908 843.36 38.1732C842.265 38.7604 841.364 39.6536 840.767 40.744C840.157 41.7946 839.835 42.9877 839.833 44.2027C839.831 45.4178 840.149 46.6119 840.755 47.6647C841.354 48.7476 842.247 49.6389 843.33 50.2355C844.381 50.8403 845.571 51.1586 846.783 51.1586C847.994 51.1586 849.185 50.8403 850.235 50.2355C851.318 49.6404 852.209 48.7486 852.804 47.6647C853.405 46.6097 853.719 45.4155 853.715 44.2012C853.711 42.9868 853.388 41.7948 852.78 40.744C852.185 39.6523 851.284 38.7586 850.187 38.1732C849.147 37.593 847.977 37.2839 846.786 37.2742H846.773ZM846.773 35.8984C848.204 35.9074 849.61 36.2766 850.861 36.9723C852.175 37.6735 853.254 38.7439 853.967 40.0516C854.692 41.3226 855.077 42.76 855.082 44.2237C855.08 45.6732 854.702 47.0974 853.985 48.357C853.278 49.659 852.209 50.7285 850.908 51.4364C849.647 52.1546 848.222 52.5332 846.771 52.5351C845.319 52.5303 843.893 52.152 842.629 51.4364C841.329 50.7261 840.261 49.6572 839.551 48.357C838.832 47.0979 838.452 45.6738 838.447 44.2237C838.456 42.7603 838.84 41.3237 839.563 40.0516C840.281 38.7461 841.362 37.6766 842.674 36.9723C843.927 36.2757 845.336 35.9064 846.769 35.8984H846.773Z"></path>
<path fill="#37021C" d="M39.6656 182.731H58.3954L56.7435 188.247C52.0578 203.403 50.9609 206.716 48.206 210.572C46.5311 213.128 43.9855 214.989 41.0425 215.809C37.7188 216.679 34.2848 217.051 30.8521 216.914C26.6552 217.079 22.4611 216.52 18.4539 215.261L12.6712 237.863C23.1396 241.17 27.5473 241.997 35.8088 241.997C63.6321 241.997 75.7523 228.764 86.4917 187.698L121.199 54.5724H88.9735L66.6629 150.215L65.8369 157.383V162.901H62.2542V157.386L61.1522 150.215L34.7089 54.5664H0L39.6656 182.731Z"></path>
<path fill="#37021C" d="M161.567 121.004C161.567 92.615 171.48 76.3539 189.661 76.3539C207.842 76.3539 218.31 92.3379 218.31 121.551C218.31 150.765 208.397 166.48 190.487 166.48C172.577 166.48 161.567 150.496 161.567 121.002M127.965 122.652C127.965 164.544 152.206 191.281 189.387 191.281C226.569 191.281 251.913 163.995 251.913 121.276C251.913 78.5571 228.499 51.543 191.04 51.543C153.581 51.543 127.955 78.8333 127.955 122.652H127.965Z"></path>
<path fill="#37021C" d="M325.875 74.7037C340.196 74.7037 349.29 84.3521 349.29 99.7867C349.29 115.221 339.647 124.87 324.777 124.87C309.907 124.87 300.537 115.221 300.537 99.7867C300.537 84.3521 310.45 74.7037 325.875 74.7037ZM396.662 54.8585C393.635 54.5814 390.879 54.3092 388.4 54.3092C379.036 54.3092 373.253 57.3379 365.812 66.437C357.55 58.9968 353.413 56.7886 343.773 54.8585C337.636 53.3999 331.351 52.6609 325.043 52.6562C290.893 52.6562 268.023 71.9461 268.023 100.337C268.023 112.465 272.708 124.038 280.692 131.484C283.194 133.708 285.865 135.733 288.681 137.543L279.317 144.983C272.153 150.769 267.746 156.285 267.746 160.14C267.746 162.342 269.676 167.857 272.431 173.372C275.187 178.887 278.214 183.021 281.248 184.945C283.73 186.876 287.856 187.428 297.499 187.428H300.255C306.31 187.428 311.274 187.151 314.854 187.151H330.556C344.329 187.151 348.459 187.977 353.144 190.458C357.004 192.66 358.656 195.695 358.656 201.484C358.656 213.612 347.085 219.676 324.506 219.676C304.124 219.676 292.553 212.785 292.553 200.935C292.553 195.975 293.657 193.767 296.961 192.113V191.008H266.938C264.182 197.35 263.633 200.378 263.633 205.067C263.633 228.496 285.118 242 322.028 242C366.928 242 390.066 226.565 390.066 196.802C390.066 171.997 376.016 162.072 340.758 162.072H336.898L312.109 162.621H311.005C302.189 162.621 298.059 160.69 298.059 156.008C298.059 153.251 299.711 150.495 303.015 147.742L306.597 144.713C312.495 145.861 318.492 146.415 324.5 146.366C359.209 146.366 380.966 129 380.966 100.888C380.966 92.6217 379.862 89.0377 376.009 80.7651C380.417 78.834 381.792 78.2817 385.373 78.2817C388.27 78.3352 391.144 78.7984 393.911 79.6575L396.667 80.7621V54.8525L396.662 54.8585Z"></path>
<path fill="#37021C" d="M469.312 74.7037C483.633 74.7037 492.726 84.3521 492.726 99.7867C492.726 115.221 483.084 124.87 468.214 124.87C453.343 124.87 443.973 115.221 443.973 99.7867C443.973 84.3521 453.886 74.7037 469.312 74.7037ZM540.105 54.8585C537.078 54.5814 534.323 54.3092 531.844 54.3092C522.479 54.3092 516.697 57.3379 509.255 66.437C500.994 58.9968 496.857 56.7886 487.216 54.8585C481.08 53.4 474.794 52.6609 468.487 52.6562C434.337 52.6562 411.466 71.9461 411.466 100.337C411.466 112.465 416.152 124.038 424.135 131.484C426.637 133.708 429.309 135.733 432.125 137.543L422.76 144.983C415.597 150.769 411.189 156.285 411.189 160.14C411.189 162.342 413.119 167.857 415.875 173.372C418.631 178.887 421.657 183.021 424.691 184.945C427.173 186.876 431.3 187.428 440.942 187.428H443.698C449.754 187.428 454.717 187.151 458.297 187.151H473.999C487.772 187.151 491.902 187.977 496.588 190.458C500.441 192.66 502.099 195.695 502.099 201.484C502.099 213.612 490.528 219.676 467.949 219.676C447.568 219.676 435.996 212.785 435.996 200.935C435.996 195.975 437.1 193.767 440.404 192.113V191.008H410.381C407.625 197.35 407.076 200.378 407.076 205.067C407.076 228.496 428.562 242 465.472 242C510.372 242 533.509 226.565 533.509 196.802C533.509 171.997 519.459 162.072 484.201 162.072H480.342L455.552 162.621H454.448C445.632 162.621 441.502 160.69 441.502 156.008C441.502 153.251 443.154 150.495 446.459 147.742L450.041 144.713C455.938 145.861 461.936 146.415 467.943 146.366C502.652 146.366 524.409 129 524.409 100.888C524.409 92.6217 523.305 89.0377 519.452 80.7651C523.86 78.834 525.235 78.2817 528.817 78.2817C531.713 78.3352 534.588 78.7984 537.354 79.6575L540.11 80.7621V54.8525L540.105 54.8585Z"></path>
<path fill="#37021C" d="M555.189 17.6429C555.189 27.8396 563.451 34.7285 575.3 34.7285C587.149 34.7285 595.415 27.8406 595.415 17.3658C595.415 6.89087 587.42 0 575.028 0C562.636 0 555.195 7.16802 555.195 17.6369"></path>
<path fill="#37021C" d="M559.297 188.26H591.25V52.6562L559.297 57.616V188.26Z"></path>
<path fill="#37021C" d="M697.794 106.953H644.356C646.008 86.5583 655.927 76.0834 673.005 76.0834C690.083 76.0834 697.517 86.003 697.794 106.953ZM647.937 130.106H730.296C730.573 126.244 730.573 123.493 730.573 121.563C730.573 74.7106 712.116 51.5586 674.657 51.5586C637.198 51.5586 611.305 78.8439 611.305 122.118C611.305 165.393 634.719 191.025 674.108 191.025C688.158 191.025 703.028 187.718 714.045 182.482C716.527 181.106 720.101 179.175 724.785 176.141L716.795 154.088C706.05 159.603 701.37 161.528 693.936 162.91C689.76 163.7 685.516 164.07 681.266 164.015C659.228 164.015 646.558 153.54 644.635 133.695L644.266 130.111H647.94L647.937 130.106Z"></path>
<path fill="#37021C" d="M743.303 176.662C755.146 184.379 760.378 186.581 771.952 189.068C778.005 190.478 784.195 191.216 790.41 191.27C822.635 191.27 842.745 173.904 842.745 146.62C842.745 125.399 830.901 113.541 802.253 106.102C787.377 102.24 783.246 100.587 780.214 98.1077C779.026 97.0794 778.067 95.8115 777.402 94.3869C776.737 92.9623 776.38 91.4132 776.355 89.8411C776.355 81.8466 783.518 77.7133 798.117 77.7133C812.717 77.7133 822.081 80.742 832.826 87.91L839.435 64.4808C829.244 57.8681 824.559 55.938 816.02 54.006C809.403 52.6562 802.662 52.0089 795.91 52.0749C763.685 52.0749 744.401 67.5096 744.401 93.6963C744.401 104.171 748.253 113.541 754.869 119.051C760.925 124.01 770.571 128.421 785.17 132.554C805.281 138.34 810.238 141.924 810.238 150.746C810.238 159.568 802.525 164.805 787.926 164.805C782.647 164.846 777.379 164.291 772.224 163.152C763.137 161.221 758.729 159.297 749.086 152.4L743.304 176.656L743.303 176.662Z"></path>
</svg>
